{"glyphs":{"0":{"ha":965,"x_min":97,"x_max":868,"o":"m 483 -12 q 198 113 299 -12 q 97 514 97 239 q 197 915 97 790 q 483 1040 297 1040 q 768 915 668 1040 q 868 514 868 790 q 767 113 868 239 q 483 -12 666 -12 m 483 64 q 642 106 577 64 q 744 246 708 147 q 780 512 780 345 q 744 780 780 681 q 642 922 708 880 q 483 964 577 964 q 323 922 388 964 q 222 782 258 881 q 186 516 186 683 q 222 248 186 347 q 323 106 258 148 q 483 64 388 64 z "},"1":{"ha":578,"x_min":20,"x_max":430,"o":"m 372 1031 l 430 1031 l 430 0 l 343 0 l 343 917 l 20 690 l 20 780 l 372 1031 z "},"2":{"ha":763,"x_min":41,"x_max":710,"o":"m 710 74 l 710 0 l 53 0 l 53 48 l 388 433 q 516 612 479 539 q 553 756 553 685 q 491 915 553 864 q 301 965 429 965 q 41 922 158 965 l 41 999 q 162 1029 94 1018 q 304 1040 230 1040 q 640 764 640 1040 q 623 648 640 703 q 565 533 606 594 q 454 391 525 472 l 178 74 l 710 74 z "},"3":{"ha":771,"x_min":44,"x_max":716,"o":"m 485 536 q 657 449 597 514 q 716 283 716 385 q 618 65 716 142 q 318 -12 519 -12 q 177 -1 249 -12 q 44 31 106 10 l 44 103 q 182 70 112 82 q 317 59 252 59 q 631 287 631 59 q 563 439 631 387 q 354 492 494 492 l 203 492 l 203 564 l 274 564 q 594 776 594 564 q 527 918 594 867 q 335 969 460 969 q 78 929 201 969 l 78 1002 q 340 1040 199 1040 q 525 1009 449 1040 q 640 920 601 978 q 680 781 680 862 q 628 628 680 691 q 485 536 576 565 z "},"4":{"ha":899,"x_min":38,"x_max":866,"o":"m 866 328 l 866 254 l 703 254 l 703 0 l 621 0 l 621 254 l 38 254 l 38 303 l 502 1028 l 593 1028 l 145 328 l 621 328 l 633 681 l 703 681 l 703 328 l 866 328 z "},"5":{"ha":783,"x_min":63,"x_max":735,"o":"m 280 587 q 546 542 446 577 q 691 445 646 507 q 735 291 735 384 q 635 65 735 142 q 337 -12 534 -12 q 197 -1 269 -12 q 63 31 126 10 l 63 104 q 199 71 129 83 q 337 60 269 60 q 573 117 494 60 q 651 290 651 175 q 614 408 651 363 q 491 481 577 454 q 256 515 405 507 l 109 524 l 145 1028 l 692 1028 l 692 957 l 224 957 l 198 592 l 280 587 z "},"6":{"ha":881,"x_min":102,"x_max":828,"o":"m 474 584 q 735 508 642 584 q 828 285 828 433 q 786 123 828 190 q 669 22 744 56 q 493 -12 594 -12 q 203 107 305 -12 q 102 481 102 227 q 220 900 102 759 q 567 1040 338 1040 q 778 1008 694 1040 l 778 934 q 679 960 735 951 q 572 968 624 968 q 285 853 381 968 q 189 506 190 739 q 321 563 244 542 q 474 584 397 584 m 493 58 q 677 114 610 58 q 744 283 744 171 q 672 456 744 399 q 462 514 600 514 q 318 494 392 514 q 190 435 243 474 q 273 147 196 236 q 493 58 349 58 z "},"7":{"ha":717,"x_min":10,"x_max":674,"o":"m 10 1028 l 674 1028 l 674 980 l 233 0 l 140 0 l 574 953 l 10 953 l 10 1028 z "},"8":{"ha":965,"x_min":85,"x_max":879,"o":"m 648 517 q 824 419 769 480 q 879 267 879 358 q 835 118 879 181 q 702 22 790 56 q 489 -12 615 -12 q 188 58 290 -12 q 85 260 85 128 q 140 427 85 358 q 294 533 194 496 q 165 632 205 572 q 124 774 124 691 q 166 916 124 856 q 289 1008 208 976 q 483 1040 369 1040 q 675 1009 595 1040 q 798 920 756 978 q 840 781 840 863 q 791 623 840 690 q 648 517 743 557 m 210 776 q 240 670 210 713 q 336 597 269 627 q 521 547 404 567 l 561 540 q 712 636 665 580 q 759 774 759 692 q 686 921 759 870 q 481 972 614 972 q 279 920 348 972 q 210 776 210 869 m 490 56 q 716 109 639 56 q 794 261 794 162 q 764 361 794 321 q 668 430 734 402 q 490 478 602 458 q 369 506 419 490 q 221 412 272 474 q 171 269 171 350 q 252 110 171 165 q 490 56 334 56 z "},"9":{"ha":881,"x_min":53,"x_max":778,"o":"m 388 1040 q 677 920 576 1040 q 778 547 778 801 q 660 128 778 269 q 313 -12 542 -12 q 102 20 186 -12 l 102 94 q 201 68 146 76 q 309 60 257 60 q 595 174 500 60 q 692 522 691 289 q 560 465 636 485 q 407 444 483 444 q 145 519 238 444 q 53 743 53 595 q 94 905 53 838 q 211 1006 136 972 q 388 1040 287 1040 m 136 745 q 208 572 136 629 q 419 514 281 514 q 563 534 488 514 q 691 592 638 554 q 608 881 685 792 q 388 970 531 970 q 203 914 271 970 q 136 745 136 857 z "},"\u0000":{"ha":0,"x_min":0,"x_max":0,"o":""},"\r":{"ha":384,"x_min":0,"x_max":0,"o":""}," ":{"ha":384,"x_min":0,"x_max":0,"o":""},"A":{"ha":1033,"x_min":30,"x_max":1002,"o":"m 912 0 l 769 348 l 263 348 l 119 0 l 30 0 l 457 1028 l 576 1028 l 1002 0 l 912 0 m 293 422 l 738 422 l 515 963 l 293 422 z "},"Á":{"ha":1033,"x_min":30,"x_max":1002,"o":"m 912 0 l 769 348 l 263 348 l 119 0 l 30 0 l 457 1028 l 576 1028 l 1002 0 l 912 0 m 293 422 l 738 422 l 515 963 l 293 422 m 474 1119 l 626 1313 l 726 1313 l 558 1119 l 474 1119 z "},"Ă":{"ha":1033,"x_min":30,"x_max":1002,"o":"m 912 0 l 769 348 l 263 348 l 119 0 l 30 0 l 457 1028 l 576 1028 l 1002 0 l 912 0 m 293 422 l 738 422 l 515 963 l 293 422 m 518 1126 q 346 1173 406 1126 q 277 1296 286 1220 l 340 1296 q 391 1212 349 1242 q 518 1183 432 1183 q 644 1212 603 1183 q 694 1296 684 1242 l 756 1296 q 689 1173 747 1219 q 518 1126 630 1126 z "},"Ắ":{"ha":1033,"x_min":30,"x_max":1002,"o":"m 912 0 l 769 348 l 263 348 l 119 0 l 30 0 l 457 1028 l 576 1028 l 1002 0 l 912 0 m 293 422 l 738 422 l 515 963 l 293 422 m 483 1279 l 625 1452 l 708 1452 l 551 1279 l 483 1279 m 518 1126 q 350 1172 408 1126 q 283 1292 292 1217 l 340 1292 q 391 1208 350 1237 q 518 1179 431 1179 q 644 1208 605 1179 q 694 1292 683 1237 l 751 1292 q 684 1172 742 1217 q 518 1126 627 1126 z "},"Ặ":{"ha":1033,"x_min":30,"x_max":1002,"o":"m 912 0 l 769 348 l 263 348 l 119 0 l 30 0 l 457 1028 l 576 1028 l 1002 0 l 912 0 m 293 422 l 738 422 l 515 963 l 293 422 m 517 -231 q 470 -216 487 -231 q 453 -176 453 -201 q 470 -135 453 -150 q 517 -120 487 -120 q 563 -135 547 -120 q 580 -176 580 -150 q 563 -216 580 -201 q 517 -231 547 -231 m 518 1126 q 346 1173 406 1126 q 277 1296 286 1220 l 340 1296 q 391 1212 349 1242 q 518 1183 432 1183 q 644 1212 603 1183 q 694 1296 684 1242 l 756 1296 q 689 1173 747 1219 q 518 1126 630 1126 z "},"Ằ":{"ha":1033,"x_min":30,"x_max":1002,"o":"m 912 0 l 769 348 l 263 348 l 119 0 l 30 0 l 457 1028 l 576 1028 l 1002 0 l 912 0 m 293 422 l 738 422 l 515 963 l 293 422 m 483 1279 l 326 1452 l 408 1452 l 551 1279 l 483 1279 m 515 1126 q 349 1172 406 1126 q 283 1292 292 1217 l 340 1292 q 389 1208 350 1237 q 515 1179 428 1179 q 643 1208 602 1179 q 693 1292 683 1237 l 751 1292 q 683 1172 742 1217 q 515 1126 625 1126 z "},"Ẳ":{"ha":1033,"x_min":30,"x_max":1002,"o":"m 912 0 l 769 348 l 263 348 l 119 0 l 30 0 l 457 1028 l 576 1028 l 1002 0 l 912 0 m 293 422 l 738 422 l 515 963 l 293 422 m 486 1279 q 507 1322 488 1307 q 562 1350 526 1336 q 601 1368 588 1360 q 614 1391 614 1377 q 594 1416 614 1407 q 525 1425 574 1425 q 450 1420 483 1425 q 376 1402 417 1415 l 376 1447 q 528 1470 441 1470 q 635 1449 600 1470 q 670 1393 670 1428 q 661 1361 670 1374 q 638 1341 651 1349 q 601 1324 624 1334 q 562 1304 575 1313 q 547 1279 549 1295 l 486 1279 m 515 1126 q 349 1172 406 1126 q 283 1292 292 1217 l 340 1292 q 389 1208 350 1237 q 515 1179 428 1179 q 643 1208 602 1179 q 694 1292 683 1237 l 751 1292 q 683 1172 742 1217 q 515 1126 625 1126 z "},"Ẵ":{"ha":1033,"x_min":30,"x_max":1002,"o":"m 912 0 l 769 348 l 263 348 l 119 0 l 30 0 l 457 1028 l 576 1028 l 1002 0 l 912 0 m 293 422 l 738 422 l 515 963 l 293 422 m 624 1340 q 568 1347 595 1340 q 504 1367 541 1353 q 450 1384 472 1378 q 409 1390 429 1390 q 343 1378 373 1390 q 283 1341 313 1366 l 283 1399 q 409 1440 331 1440 q 465 1433 438 1440 q 529 1413 492 1426 q 583 1396 562 1401 q 624 1390 604 1390 q 691 1402 660 1390 q 751 1439 721 1414 l 751 1381 q 624 1340 702 1340 m 515 1126 q 349 1172 406 1126 q 283 1292 292 1217 l 340 1292 q 389 1208 350 1237 q 515 1179 428 1179 q 643 1208 602 1179 q 693 1292 683 1237 l 751 1292 q 683 1172 742 1217 q 515 1126 625 1126 z "},"Â":{"ha":1033,"x_min":30,"x_max":1002,"o":"m 912 0 l 769 348 l 263 348 l 119 0 l 30 0 l 457 1028 l 576 1028 l 1002 0 l 912 0 m 293 422 l 738 422 l 515 963 l 293 422 m 760 1119 l 669 1119 l 517 1269 l 364 1119 l 273 1119 l 475 1313 l 558 1313 l 760 1119 z "},"Ấ":{"ha":1033,"x_min":30,"x_max":1002,"o":"m 912 0 l 769 348 l 263 348 l 119 0 l 30 0 l 457 1028 l 576 1028 l 1002 0 l 912 0 m 293 422 l 738 422 l 515 963 l 293 422 m 837 1433 l 919 1433 l 763 1248 l 694 1248 l 837 1433 m 475 1308 l 558 1308 l 760 1119 l 669 1119 l 517 1267 l 364 1119 l 273 1119 l 475 1308 z "},"Ậ":{"ha":1033,"x_min":30,"x_max":1002,"o":"m 912 0 l 769 348 l 263 348 l 119 0 l 30 0 l 457 1028 l 576 1028 l 1002 0 l 912 0 m 293 422 l 738 422 l 515 963 l 293 422 m 517 -231 q 470 -216 487 -231 q 453 -176 453 -201 q 470 -135 453 -150 q 517 -120 487 -120 q 563 -135 547 -120 q 580 -176 580 -150 q 563 -216 580 -201 q 517 -231 547 -231 m 760 1119 l 669 1119 l 517 1269 l 364 1119 l 273 1119 l 475 1313 l 558 1313 l 760 1119 z "},"Ầ":{"ha":1033,"x_min":30,"x_max":1002,"o":"m 912 0 l 769 348 l 263 348 l 119 0 l 30 0 l 457 1028 l 576 1028 l 1002 0 l 912 0 m 293 422 l 738 422 l 515 963 l 293 422 m 778 1248 l 710 1248 l 553 1433 l 635 1433 l 778 1248 m 475 1308 l 558 1308 l 760 1119 l 669 1119 l 517 1267 l 364 1119 l 273 1119 l 475 1308 z "},"Ẩ":{"ha":1033,"x_min":30,"x_max":1002,"o":"m 912 0 l 769 348 l 263 348 l 119 0 l 30 0 l 457 1028 l 576 1028 l 1002 0 l 912 0 m 293 422 l 738 422 l 515 963 l 293 422 m 738 1439 q 844 1418 810 1439 q 879 1363 879 1398 q 862 1321 879 1335 q 811 1294 844 1307 q 771 1274 785 1283 q 756 1248 758 1264 l 695 1248 q 716 1290 697 1276 q 771 1319 735 1305 q 810 1337 797 1328 q 823 1360 823 1346 q 803 1385 823 1376 q 734 1394 783 1394 q 659 1389 692 1394 q 585 1371 626 1384 l 585 1416 q 738 1439 651 1439 m 475 1308 l 558 1308 l 760 1119 l 669 1119 l 517 1267 l 364 1119 l 273 1119 l 475 1308 z "},"Ẫ":{"ha":1033,"x_min":30,"x_max":1002,"o":"m 912 0 l 769 348 l 263 348 l 119 0 l 30 0 l 457 1028 l 576 1028 l 1002 0 l 912 0 m 293 422 l 738 422 l 515 963 l 293 422 m 631 1390 q 698 1402 667 1390 q 760 1439 729 1414 l 760 1381 q 630 1340 711 1340 q 571 1347 599 1340 q 503 1367 543 1353 q 446 1384 468 1378 q 403 1390 424 1390 q 335 1378 366 1390 q 273 1341 304 1366 l 273 1399 q 403 1440 322 1440 q 463 1433 435 1440 q 530 1413 490 1426 q 587 1396 565 1401 q 631 1390 609 1390 m 475 1308 l 558 1308 l 760 1119 l 669 1119 l 517 1267 l 364 1119 l 273 1119 l 475 1308 z "},"Ȁ":{"ha":1033,"x_min":30,"x_max":1002,"o":"m 912 0 l 769 348 l 263 348 l 119 0 l 30 0 l 457 1028 l 576 1028 l 1002 0 l 912 0 m 293 422 l 738 422 l 515 963 l 293 422 m 357 1119 l 241 1313 l 318 1313 l 429 1119 l 357 1119 m 604 1119 l 488 1313 l 565 1313 l 676 1119 l 604 1119 z "},"Ä":{"ha":1033,"x_min":30,"x_max":1002,"o":"m 912 0 l 769 348 l 263 348 l 119 0 l 30 0 l 457 1028 l 576 1028 l 1002 0 l 912 0 m 293 422 l 738 422 l 515 963 l 293 422 m 333 1162 q 289 1176 305 1162 q 273 1217 273 1191 q 289 1257 273 1242 q 333 1272 305 1272 q 376 1257 360 1272 q 392 1217 392 1242 q 376 1176 392 1191 q 333 1162 360 1162 m 701 1162 q 657 1176 673 1162 q 642 1217 642 1191 q 658 1257 642 1242 q 701 1272 674 1272 q 744 1257 728 1272 q 760 1217 760 1242 q 744 1176 760 1191 q 701 1162 728 1162 z "},"Ạ":{"ha":1033,"x_min":30,"x_max":1002,"o":"m 912 0 l 769 348 l 263 348 l 119 0 l 30 0 l 457 1028 l 576 1028 l 1002 0 l 912 0 m 293 422 l 738 422 l 515 963 l 293 422 m 517 -231 q 470 -216 487 -231 q 453 -176 453 -201 q 470 -135 453 -150 q 517 -120 487 -120 q 563 -135 547 -120 q 580 -176 580 -150 q 563 -216 580 -201 q 517 -231 547 -231 z "},"À":{"ha":1033,"x_min":30,"x_max":1002,"o":"m 912 0 l 769 348 l 263 348 l 119 0 l 30 0 l 457 1028 l 576 1028 l 1002 0 l 912 0 m 293 422 l 738 422 l 515 963 l 293 422 m 474 1119 l 307 1313 l 406 1313 l 559 1119 l 474 1119 z "},"Ả":{"ha":1033,"x_min":30,"x_max":1002,"o":"m 912 0 l 769 348 l 263 348 l 119 0 l 30 0 l 457 1028 l 576 1028 l 1002 0 l 912 0 m 293 422 l 738 422 l 515 963 l 293 422 m 486 1119 q 498 1153 487 1140 q 523 1174 509 1167 q 562 1192 538 1182 q 602 1211 590 1203 q 614 1233 614 1219 q 594 1259 614 1250 q 525 1268 574 1268 q 450 1263 483 1268 q 376 1244 417 1258 l 376 1292 q 528 1315 441 1315 q 635 1294 600 1315 q 670 1236 670 1273 q 652 1194 670 1208 q 601 1166 635 1179 q 561 1145 574 1154 q 547 1119 549 1135 l 486 1119 z "},"Ȃ":{"ha":1033,"x_min":30,"x_max":1002,"o":"m 912 0 l 769 348 l 263 348 l 119 0 l 30 0 l 457 1028 l 576 1028 l 1002 0 l 912 0 m 293 422 l 738 422 l 515 963 l 293 422 m 277 1136 q 345 1259 286 1213 q 515 1306 403 1306 q 687 1259 627 1306 q 756 1136 747 1212 l 694 1136 q 643 1220 684 1190 q 515 1249 601 1249 q 390 1220 430 1249 q 340 1136 349 1190 l 277 1136 z "},"Ā":{"ha":1033,"x_min":30,"x_max":1002,"o":"m 912 0 l 769 348 l 263 348 l 119 0 l 30 0 l 457 1028 l 576 1028 l 1002 0 l 912 0 m 293 422 l 738 422 l 515 963 l 293 422 m 294 1186 l 294 1246 l 739 1246 l 739 1186 l 294 1186 z "},"Ą":{"ha":1033,"x_min":30,"x_max":1088,"o":"m 960 -236 q 1018 -230 990 -236 q 1088 -209 1047 -224 l 1088 -257 q 956 -283 1023 -283 q 834 -251 876 -283 q 792 -160 792 -219 q 819 -72 792 -112 q 910 4 847 -32 l 769 348 l 263 348 l 119 0 l 30 0 l 457 1028 l 576 1028 l 1002 0 q 884 -75 917 -38 q 851 -155 851 -111 q 879 -215 851 -194 q 960 -236 907 -236 m 293 422 l 738 422 l 515 963 l 293 422 z "},"Å":{"ha":1033,"x_min":30,"x_max":1002,"o":"m 912 0 l 769 348 l 263 348 l 119 0 l 30 0 l 457 1028 l 576 1028 l 1002 0 l 912 0 m 293 422 l 738 422 l 515 963 l 293 422 m 517 1115 q 449 1132 479 1115 q 402 1179 419 1149 q 385 1247 385 1209 q 402 1314 385 1284 q 449 1361 419 1344 q 517 1378 479 1378 q 584 1361 554 1378 q 632 1314 615 1344 q 649 1247 649 1284 q 632 1179 649 1209 q 584 1132 615 1149 q 517 1115 554 1115 m 517 1160 q 578 1183 555 1160 q 602 1247 602 1207 q 578 1310 602 1287 q 517 1333 555 1333 q 455 1310 478 1333 q 431 1247 431 1287 q 455 1183 431 1207 q 517 1160 478 1160 z "},"Ǻ":{"ha":1033,"x_min":30,"x_max":1002,"o":"m 912 0 l 769 348 l 263 348 l 119 0 l 30 0 l 457 1028 l 576 1028 l 1002 0 l 912 0 m 293 422 l 738 422 l 515 963 l 293 422 m 623 1328 q 649 1247 649 1292 q 632 1179 649 1209 q 584 1132 615 1149 q 517 1115 554 1115 q 449 1132 479 1115 q 402 1179 419 1149 q 385 1247 385 1209 q 402 1314 385 1284 q 449 1361 419 1344 q 517 1378 479 1378 q 583 1362 553 1378 l 672 1455 l 749 1455 l 623 1328 m 517 1160 q 578 1183 555 1160 q 602 1247 602 1207 q 578 1310 602 1287 q 517 1333 555 1333 q 455 1310 478 1333 q 431 1247 431 1287 q 455 1183 431 1207 q 517 1160 478 1160 z "},"Ã":{"ha":1033,"x_min":30,"x_max":1002,"o":"m 912 0 l 769 348 l 263 348 l 119 0 l 30 0 l 457 1028 l 576 1028 l 1002 0 l 912 0 m 293 422 l 738 422 l 515 963 l 293 422 m 631 1168 q 573 1175 601 1168 q 506 1195 545 1182 q 448 1214 471 1208 q 401 1219 425 1219 q 331 1208 360 1219 q 273 1172 301 1197 l 273 1235 q 327 1267 295 1257 q 402 1278 358 1278 q 460 1271 433 1278 q 528 1251 488 1264 q 585 1232 563 1238 q 633 1226 608 1226 q 703 1238 673 1226 q 760 1274 733 1249 l 760 1211 q 707 1178 738 1189 q 631 1168 675 1168 z "},"Æ":{"ha":1405,"x_min":30,"x_max":1332,"o":"m 799 74 l 1332 74 l 1332 0 l 717 0 l 688 348 l 265 348 l 119 0 l 30 0 l 463 1028 l 1325 1028 l 1325 954 l 722 954 l 756 565 l 1255 565 l 1255 491 l 762 491 l 799 74 m 296 422 l 681 422 l 636 954 l 518 954 l 296 422 z "},"Ǽ":{"ha":1405,"x_min":30,"x_max":1332,"o":"m 799 74 l 1332 74 l 1332 0 l 717 0 l 688 348 l 265 348 l 119 0 l 30 0 l 463 1028 l 1325 1028 l 1325 954 l 722 954 l 756 565 l 1255 565 l 1255 491 l 762 491 l 799 74 m 296 422 l 681 422 l 636 954 l 518 954 l 296 422 m 633 1119 l 785 1313 l 885 1313 l 717 1119 l 633 1119 z "},"B":{"ha":949,"x_min":142,"x_max":890,"o":"m 669 531 q 835 446 781 511 q 890 281 890 381 q 843 121 890 185 q 693 25 797 58 q 420 -8 590 -8 q 285 -3 349 -8 q 142 10 220 1 l 142 1008 q 291 1031 219 1024 q 450 1038 363 1038 q 761 970 663 1038 q 860 765 860 902 q 813 614 860 674 q 669 531 766 553 m 456 967 q 228 949 326 967 l 228 564 l 494 564 q 707 611 638 564 q 776 763 776 659 q 743 881 776 836 q 641 947 711 926 q 456 967 572 967 m 434 63 q 657 88 576 63 q 772 160 738 112 q 806 285 806 208 q 733 442 806 392 q 506 492 660 492 l 228 492 l 228 76 q 324 66 276 69 q 434 63 372 63 z "},"C":{"ha":905,"x_min":90,"x_max":865,"o":"m 594 -12 q 224 113 357 -12 q 90 513 90 238 q 226 909 90 778 q 606 1040 361 1040 q 739 1032 677 1040 q 865 1005 801 1023 l 865 928 q 608 964 738 964 q 291 856 400 964 q 183 515 183 749 q 290 169 183 274 q 599 64 397 64 q 731 74 669 64 q 865 108 794 84 l 865 31 q 594 -12 743 -12 z "},"Ć":{"ha":905,"x_min":90,"x_max":865,"o":"m 594 -12 q 224 113 357 -12 q 90 513 90 238 q 226 909 90 778 q 606 1040 361 1040 q 739 1032 677 1040 q 865 1005 801 1023 l 865 928 q 608 964 738 964 q 291 856 400 964 q 183 515 183 749 q 290 169 183 274 q 599 64 397 64 q 731 74 669 64 q 865 108 794 84 l 865 31 q 594 -12 743 -12 m 497 1119 l 649 1313 l 749 1313 l 581 1119 l 497 1119 z "},"Č":{"ha":905,"x_min":90,"x_max":865,"o":"m 594 -12 q 224 113 357 -12 q 90 513 90 238 q 226 909 90 778 q 606 1040 361 1040 q 739 1032 677 1040 q 865 1005 801 1023 l 865 928 q 608 964 738 964 q 291 856 400 964 q 183 515 183 749 q 290 169 183 274 q 599 64 397 64 q 731 74 669 64 q 865 108 794 84 l 865 31 q 594 -12 743 -12 m 692 1313 l 783 1313 l 581 1119 l 498 1119 l 296 1313 l 387 1313 l 540 1163 l 692 1313 z "},"Ç":{"ha":905,"x_min":90,"x_max":865,"o":"m 608 964 q 291 856 400 964 q 183 515 183 749 q 290 169 183 274 q 599 64 397 64 q 731 74 669 64 q 865 108 794 84 l 865 31 q 594 -12 743 -12 l 576 -12 l 576 -74 q 674 -103 639 -76 q 708 -178 708 -130 q 668 -257 708 -230 q 554 -283 627 -283 q 479 -276 517 -283 q 411 -257 442 -269 l 411 -208 q 552 -237 485 -237 q 653 -177 653 -237 q 627 -131 653 -145 q 551 -116 601 -116 l 522 -116 l 522 -10 q 204 134 317 8 q 90 513 90 260 q 226 909 90 778 q 606 1040 361 1040 q 739 1032 677 1040 q 865 1005 801 1023 l 865 928 q 608 964 738 964 z "},"Ḉ":{"ha":905,"x_min":90,"x_max":865,"o":"m 749 1313 l 581 1119 l 497 1119 l 649 1313 l 749 1313 m 608 964 q 291 856 400 964 q 183 515 183 749 q 290 169 183 274 q 599 64 397 64 q 731 74 669 64 q 865 108 794 84 l 865 31 q 594 -12 743 -12 l 576 -12 l 576 -74 q 674 -103 639 -76 q 708 -178 708 -130 q 668 -257 708 -230 q 554 -283 627 -283 q 479 -276 517 -283 q 411 -257 442 -269 l 411 -208 q 552 -237 485 -237 q 653 -177 653 -237 q 627 -131 653 -145 q 551 -116 601 -116 l 522 -116 l 522 -10 q 204 134 317 8 q 90 513 90 260 q 226 909 90 778 q 606 1040 361 1040 q 739 1032 677 1040 q 865 1005 801 1023 l 865 928 q 608 964 738 964 z "},"Ĉ":{"ha":905,"x_min":90,"x_max":865,"o":"m 594 -12 q 224 113 357 -12 q 90 513 90 238 q 226 909 90 778 q 606 1040 361 1040 q 739 1032 677 1040 q 865 1005 801 1023 l 865 928 q 608 964 738 964 q 291 856 400 964 q 183 515 183 749 q 290 169 183 274 q 599 64 397 64 q 731 74 669 64 q 865 108 794 84 l 865 31 q 594 -12 743 -12 m 783 1119 l 692 1119 l 540 1269 l 387 1119 l 296 1119 l 498 1313 l 581 1313 l 783 1119 z "},"Ċ":{"ha":905,"x_min":90,"x_max":865,"o":"m 594 -12 q 224 113 357 -12 q 90 513 90 238 q 226 909 90 778 q 606 1040 361 1040 q 739 1032 677 1040 q 865 1005 801 1023 l 865 928 q 608 964 738 964 q 291 856 400 964 q 183 515 183 749 q 290 169 183 274 q 599 64 397 64 q 731 74 669 64 q 865 108 794 84 l 865 31 q 594 -12 743 -12 m 540 1162 q 493 1177 510 1162 q 476 1217 476 1192 q 493 1257 476 1242 q 540 1272 510 1272 q 586 1257 569 1272 q 603 1217 603 1242 q 586 1177 603 1192 q 540 1162 569 1162 z "},"D":{"ha":1089,"x_min":142,"x_max":999,"o":"m 421 -8 q 285 -3 350 -8 q 142 11 221 1 l 142 1008 q 290 1030 211 1022 q 440 1038 369 1038 q 857 906 716 1038 q 999 514 999 775 q 854 122 999 251 q 421 -8 710 -8 m 435 68 q 791 177 674 68 q 908 515 908 286 q 791 852 908 742 q 438 962 674 962 q 229 944 343 962 l 229 82 q 435 68 315 68 z "},"Ǳ":{"ha":1943,"x_min":142,"x_max":1893,"o":"m 421 -8 q 285 -3 350 -8 q 142 11 221 1 l 142 1008 q 290 1030 211 1022 q 440 1038 369 1038 q 857 906 716 1038 q 999 514 999 775 q 854 122 999 251 q 421 -8 710 -8 m 435 68 q 791 177 674 68 q 908 515 908 286 q 791 852 908 742 q 438 962 674 962 q 229 944 343 962 l 229 82 q 435 68 315 68 m 1217 74 l 1893 74 l 1893 0 l 1099 0 l 1099 49 l 1765 953 l 1108 953 l 1108 1028 l 1884 1028 l 1884 979 l 1217 74 z "},"Ǆ":{"ha":1943,"x_min":142,"x_max":1893,"o":"m 421 -8 q 285 -3 350 -8 q 142 11 221 1 l 142 1008 q 290 1030 211 1022 q 440 1038 369 1038 q 857 906 716 1038 q 999 514 999 775 q 854 122 999 251 q 421 -8 710 -8 m 435 68 q 791 177 674 68 q 908 515 908 286 q 791 852 908 742 q 438 962 674 962 q 229 944 343 962 l 229 82 q 435 68 315 68 m 1217 74 l 1893 74 l 1893 0 l 1099 0 l 1099 49 l 1765 953 l 1108 953 l 1108 1028 l 1884 1028 l 1884 979 l 1217 74 m 1649 1313 l 1740 1313 l 1538 1119 l 1454 1119 l 1252 1313 l 1343 1313 l 1496 1163 l 1649 1313 z "},"Ð":{"ha":1089,"x_min":6,"x_max":999,"o":"m 440 1038 q 857 906 716 1038 q 999 514 999 775 q 854 122 999 251 q 421 -8 710 -8 q 285 -3 350 -8 q 142 11 221 1 l 142 497 l 6 497 l 6 560 l 142 560 l 142 1008 q 290 1030 211 1022 q 440 1038 369 1038 m 435 68 q 791 177 674 68 q 908 515 908 286 q 791 852 908 742 q 438 962 674 962 q 229 944 343 962 l 229 560 l 511 560 l 511 497 l 229 497 l 229 82 q 435 68 315 68 z "},"Ď":{"ha":1089,"x_min":142,"x_max":999,"o":"m 421 -8 q 285 -3 350 -8 q 142 11 221 1 l 142 1008 q 290 1030 211 1022 q 440 1038 369 1038 q 857 906 716 1038 q 999 514 999 775 q 854 122 999 251 q 421 -8 710 -8 m 435 68 q 791 177 674 68 q 908 515 908 286 q 791 852 908 742 q 438 962 674 962 q 229 944 343 962 l 229 82 q 435 68 315 68 m 650 1313 l 741 1313 l 539 1119 l 456 1119 l 253 1313 l 344 1313 l 497 1163 l 650 1313 z "},"Đ":{"ha":1089,"x_min":6,"x_max":999,"o":"m 440 1038 q 857 906 716 1038 q 999 514 999 775 q 854 122 999 251 q 421 -8 710 -8 q 285 -3 350 -8 q 142 11 221 1 l 142 497 l 6 497 l 6 560 l 142 560 l 142 1008 q 290 1030 211 1022 q 440 1038 369 1038 m 435 68 q 791 177 674 68 q 908 515 908 286 q 791 852 908 742 q 438 962 674 962 q 229 944 343 962 l 229 560 l 511 560 l 511 497 l 229 497 l 229 82 q 435 68 315 68 z "},"Ḍ":{"ha":1089,"x_min":142,"x_max":999,"o":"m 421 -8 q 285 -3 350 -8 q 142 11 221 1 l 142 1008 q 290 1030 211 1022 q 440 1038 369 1038 q 857 906 716 1038 q 999 514 999 775 q 854 122 999 251 q 421 -8 710 -8 m 435 68 q 791 177 674 68 q 908 515 908 286 q 791 852 908 742 q 438 962 674 962 q 229 944 343 962 l 229 82 q 435 68 315 68 m 499 -231 q 452 -216 469 -231 q 435 -176 435 -201 q 452 -135 435 -150 q 499 -120 469 -120 q 545 -135 528 -120 q 562 -176 562 -150 q 545 -216 562 -201 q 499 -231 528 -231 z "},"Ḏ":{"ha":1089,"x_min":142,"x_max":999,"o":"m 421 -8 q 285 -3 350 -8 q 142 11 221 1 l 142 1008 q 290 1030 211 1022 q 440 1038 369 1038 q 857 906 716 1038 q 999 514 999 775 q 854 122 999 251 q 421 -8 710 -8 m 435 68 q 791 177 674 68 q 908 515 908 286 q 791 852 908 742 q 438 962 674 962 q 229 944 343 962 l 229 82 q 435 68 315 68 m 276 -206 l 276 -146 l 721 -146 l 721 -206 l 276 -206 z "},"ǲ":{"ha":1803,"x_min":142,"x_max":1758,"o":"m 421 -8 q 285 -3 350 -8 q 142 11 221 1 l 142 1008 q 290 1030 211 1022 q 440 1038 369 1038 q 857 906 716 1038 q 999 514 999 775 q 854 122 999 251 q 421 -8 710 -8 m 435 68 q 791 177 674 68 q 908 515 908 286 q 791 852 908 742 q 438 962 674 962 q 229 944 343 962 l 229 82 q 435 68 315 68 m 1258 74 l 1758 74 l 1758 0 l 1138 0 l 1138 53 l 1630 678 l 1148 678 l 1148 752 l 1749 752 l 1749 699 l 1258 74 z "},"ǅ":{"ha":1803,"x_min":142,"x_max":1758,"o":"m 421 -8 q 285 -3 350 -8 q 142 11 221 1 l 142 1008 q 290 1030 211 1022 q 440 1038 369 1038 q 857 906 716 1038 q 999 514 999 775 q 854 122 999 251 q 421 -8 710 -8 m 435 68 q 791 177 674 68 q 908 515 908 286 q 791 852 908 742 q 438 962 674 962 q 229 944 343 962 l 229 82 q 435 68 315 68 m 1258 74 l 1758 74 l 1758 0 l 1138 0 l 1138 53 l 1630 678 l 1148 678 l 1148 752 l 1749 752 l 1749 699 l 1258 74 m 1601 1090 l 1692 1090 l 1490 897 l 1407 897 l 1205 1090 l 1296 1090 l 1449 940 l 1601 1090 z "},"E":{"ha":913,"x_min":142,"x_max":840,"o":"m 228 74 l 840 74 l 840 0 l 142 0 l 142 1028 l 833 1028 l 833 954 l 228 954 l 228 565 l 763 565 l 763 491 l 228 491 l 228 74 z "},"É":{"ha":913,"x_min":142,"x_max":840,"o":"m 228 74 l 840 74 l 840 0 l 142 0 l 142 1028 l 833 1028 l 833 954 l 228 954 l 228 565 l 763 565 l 763 491 l 228 491 l 228 74 m 460 1119 l 612 1313 l 711 1313 l 544 1119 l 460 1119 z "},"Ĕ":{"ha":913,"x_min":142,"x_max":840,"o":"m 228 74 l 840 74 l 840 0 l 142 0 l 142 1028 l 833 1028 l 833 954 l 228 954 l 228 565 l 763 565 l 763 491 l 228 491 l 228 74 m 503 1126 q 332 1173 392 1126 q 263 1296 272 1220 l 325 1296 q 376 1212 335 1242 q 503 1183 417 1183 q 629 1212 589 1183 q 679 1296 669 1242 l 742 1296 q 674 1173 733 1219 q 503 1126 615 1126 z "},"Ě":{"ha":913,"x_min":142,"x_max":840,"o":"m 228 74 l 840 74 l 840 0 l 142 0 l 142 1028 l 833 1028 l 833 954 l 228 954 l 228 565 l 763 565 l 763 491 l 228 491 l 228 74 m 655 1313 l 746 1313 l 544 1119 l 460 1119 l 258 1313 l 349 1313 l 502 1163 l 655 1313 z "},"Ḝ":{"ha":913,"x_min":142,"x_max":840,"o":"m 503 1126 q 332 1173 392 1126 q 263 1296 272 1220 l 325 1296 q 376 1212 335 1242 q 503 1183 417 1183 q 629 1212 589 1183 q 679 1296 669 1242 l 742 1296 q 674 1173 733 1219 q 503 1126 615 1126 m 528 0 l 528 -74 q 626 -103 592 -76 q 661 -178 661 -130 q 620 -257 661 -230 q 507 -283 580 -283 q 432 -276 469 -283 q 364 -257 394 -269 l 364 -208 q 505 -237 438 -237 q 606 -177 606 -237 q 580 -131 606 -145 q 503 -116 554 -116 l 475 -116 l 475 0 l 142 0 l 142 1028 l 833 1028 l 833 954 l 228 954 l 228 565 l 763 565 l 763 491 l 228 491 l 228 74 l 840 74 l 840 0 l 528 0 z "},"Ê":{"ha":913,"x_min":142,"x_max":840,"o":"m 228 74 l 840 74 l 840 0 l 142 0 l 142 1028 l 833 1028 l 833 954 l 228 954 l 228 565 l 763 565 l 763 491 l 228 491 l 228 74 m 746 1119 l 655 1119 l 502 1269 l 349 1119 l 258 1119 l 460 1313 l 544 1313 l 746 1119 z "},"Ế":{"ha":913,"x_min":142,"x_max":904,"o":"m 228 74 l 840 74 l 840 0 l 142 0 l 142 1028 l 833 1028 l 833 954 l 228 954 l 228 565 l 763 565 l 763 491 l 228 491 l 228 74 m 822 1433 l 904 1433 l 748 1248 l 679 1248 l 822 1433 m 460 1308 l 544 1308 l 746 1119 l 655 1119 l 502 1267 l 349 1119 l 258 1119 l 460 1308 z "},"Ệ":{"ha":913,"x_min":142,"x_max":840,"o":"m 228 74 l 840 74 l 840 0 l 142 0 l 142 1028 l 833 1028 l 833 954 l 228 954 l 228 565 l 763 565 l 763 491 l 228 491 l 228 74 m 504 -231 q 458 -216 474 -231 q 441 -176 441 -201 q 458 -135 441 -150 q 504 -120 474 -120 q 551 -135 534 -120 q 567 -176 567 -150 q 551 -216 567 -201 q 504 -231 534 -231 m 746 1119 l 655 1119 l 502 1269 l 349 1119 l 258 1119 l 460 1313 l 544 1313 l 746 1119 z "},"Ề":{"ha":913,"x_min":142,"x_max":840,"o":"m 228 74 l 840 74 l 840 0 l 142 0 l 142 1028 l 833 1028 l 833 954 l 228 954 l 228 565 l 763 565 l 763 491 l 228 491 l 228 74 m 764 1248 l 695 1248 l 539 1433 l 621 1433 l 764 1248 m 460 1308 l 544 1308 l 746 1119 l 655 1119 l 502 1267 l 349 1119 l 258 1119 l 460 1308 z "},"Ể":{"ha":913,"x_min":142,"x_max":865,"o":"m 228 74 l 840 74 l 840 0 l 142 0 l 142 1028 l 833 1028 l 833 954 l 228 954 l 228 565 l 763 565 l 763 491 l 228 491 l 228 74 m 723 1439 q 830 1418 795 1439 q 865 1363 865 1398 q 847 1321 865 1335 q 797 1294 830 1307 q 757 1274 770 1283 q 741 1248 743 1264 l 681 1248 q 701 1290 682 1276 q 756 1319 721 1305 q 795 1337 783 1328 q 808 1360 808 1346 q 788 1385 808 1376 q 719 1394 768 1394 q 645 1389 678 1394 q 570 1371 612 1384 l 570 1416 q 723 1439 637 1439 m 460 1308 l 544 1308 l 746 1119 l 655 1119 l 502 1267 l 349 1119 l 258 1119 l 460 1308 z "},"Ễ":{"ha":913,"x_min":142,"x_max":840,"o":"m 228 74 l 840 74 l 840 0 l 142 0 l 142 1028 l 833 1028 l 833 954 l 228 954 l 228 565 l 763 565 l 763 491 l 228 491 l 228 74 m 616 1390 q 684 1402 653 1390 q 746 1439 715 1414 l 746 1381 q 615 1340 697 1340 q 556 1347 584 1340 q 489 1367 528 1353 q 432 1384 453 1378 q 388 1390 410 1390 q 320 1378 351 1390 q 258 1341 290 1366 l 258 1399 q 389 1440 308 1440 q 448 1433 420 1440 q 515 1413 476 1426 q 573 1396 551 1401 q 616 1390 594 1390 m 460 1308 l 544 1308 l 746 1119 l 655 1119 l 502 1267 l 349 1119 l 258 1119 l 460 1308 z "},"Ȅ":{"ha":913,"x_min":142,"x_max":840,"o":"m 228 74 l 840 74 l 840 0 l 142 0 l 142 1028 l 833 1028 l 833 954 l 228 954 l 228 565 l 763 565 l 763 491 l 228 491 l 228 74 m 342 1119 l 226 1313 l 303 1313 l 415 1119 l 342 1119 m 590 1119 l 473 1313 l 550 1313 l 662 1119 l 590 1119 z "},"Ë":{"ha":913,"x_min":142,"x_max":840,"o":"m 228 74 l 840 74 l 840 0 l 142 0 l 142 1028 l 833 1028 l 833 954 l 228 954 l 228 565 l 763 565 l 763 491 l 228 491 l 228 74 m 318 1162 q 274 1176 290 1162 q 258 1217 258 1191 q 274 1257 258 1242 q 318 1272 290 1272 q 361 1257 345 1272 q 377 1217 377 1242 q 361 1176 377 1191 q 318 1162 346 1162 m 686 1162 q 643 1176 658 1162 q 627 1217 627 1191 q 643 1257 627 1242 q 686 1272 659 1272 q 730 1257 714 1272 q 746 1217 746 1242 q 730 1176 746 1191 q 686 1162 714 1162 z "},"Ė":{"ha":913,"x_min":142,"x_max":840,"o":"m 228 74 l 840 74 l 840 0 l 142 0 l 142 1028 l 833 1028 l 833 954 l 228 954 l 228 565 l 763 565 l 763 491 l 228 491 l 228 74 m 502 1162 q 456 1177 472 1162 q 439 1217 439 1192 q 456 1257 439 1242 q 502 1272 472 1272 q 549 1257 532 1272 q 565 1217 565 1242 q 549 1177 565 1192 q 502 1162 532 1162 z "},"Ẹ":{"ha":913,"x_min":142,"x_max":840,"o":"m 228 74 l 840 74 l 840 0 l 142 0 l 142 1028 l 833 1028 l 833 954 l 228 954 l 228 565 l 763 565 l 763 491 l 228 491 l 228 74 m 504 -231 q 458 -216 474 -231 q 441 -176 441 -201 q 458 -135 441 -150 q 504 -120 474 -120 q 551 -135 534 -120 q 567 -176 567 -150 q 551 -216 567 -201 q 504 -231 534 -231 z "},"È":{"ha":913,"x_min":142,"x_max":840,"o":"m 228 74 l 840 74 l 840 0 l 142 0 l 142 1028 l 833 1028 l 833 954 l 228 954 l 228 565 l 763 565 l 763 491 l 228 491 l 228 74 m 460 1119 l 292 1313 l 392 1313 l 544 1119 l 460 1119 z "},"Ẻ":{"ha":913,"x_min":142,"x_max":840,"o":"m 228 74 l 840 74 l 840 0 l 142 0 l 142 1028 l 833 1028 l 833 954 l 228 954 l 228 565 l 763 565 l 763 491 l 228 491 l 228 74 m 472 1119 q 483 1153 472 1140 q 509 1174 494 1167 q 547 1192 523 1182 q 587 1211 575 1203 q 599 1233 599 1219 q 579 1259 599 1250 q 510 1268 559 1268 q 435 1263 468 1268 q 361 1244 402 1258 l 361 1292 q 513 1315 426 1315 q 620 1294 585 1315 q 656 1236 656 1273 q 638 1194 656 1208 q 587 1166 620 1179 q 547 1145 560 1154 q 532 1119 534 1135 l 472 1119 z "},"Ȇ":{"ha":913,"x_min":142,"x_max":840,"o":"m 228 74 l 840 74 l 840 0 l 142 0 l 142 1028 l 833 1028 l 833 954 l 228 954 l 228 565 l 763 565 l 763 491 l 228 491 l 228 74 m 263 1136 q 330 1259 272 1213 q 501 1306 389 1306 q 673 1259 613 1306 q 742 1136 733 1212 l 679 1136 q 628 1220 669 1190 q 501 1249 587 1249 q 375 1220 415 1249 q 325 1136 335 1190 l 263 1136 z "},"Ē":{"ha":913,"x_min":142,"x_max":840,"o":"m 228 74 l 840 74 l 840 0 l 142 0 l 142 1028 l 833 1028 l 833 954 l 228 954 l 228 565 l 763 565 l 763 491 l 228 491 l 228 74 m 280 1186 l 280 1246 l 724 1246 l 724 1186 l 280 1186 z "},"Ḗ":{"ha":913,"x_min":142,"x_max":840,"o":"m 228 74 l 840 74 l 840 0 l 142 0 l 142 1028 l 833 1028 l 833 954 l 228 954 l 228 565 l 763 565 l 763 491 l 228 491 l 228 74 m 457 1318 l 608 1479 l 715 1479 l 549 1318 l 457 1318 m 280 1186 l 280 1246 l 724 1246 l 724 1186 l 280 1186 z "},"Ḕ":{"ha":913,"x_min":142,"x_max":840,"o":"m 228 74 l 840 74 l 840 0 l 142 0 l 142 1028 l 833 1028 l 833 954 l 228 954 l 228 565 l 763 565 l 763 491 l 228 491 l 228 74 m 457 1318 l 290 1479 l 394 1479 l 547 1318 l 457 1318 m 280 1186 l 280 1246 l 724 1246 l 724 1186 l 280 1186 z "},"Ę":{"ha":913,"x_min":142,"x_max":868,"o":"m 741 -236 q 799 -230 770 -236 q 868 -209 827 -224 l 868 -257 q 736 -283 803 -283 q 615 -251 657 -283 q 572 -160 572 -219 q 598 -74 572 -114 q 683 0 624 -35 l 142 0 l 142 1028 l 833 1028 l 833 954 l 228 954 l 228 565 l 763 565 l 763 491 l 228 491 l 228 74 l 840 74 l 840 0 l 783 0 q 664 -75 697 -38 q 631 -155 631 -111 q 659 -215 631 -194 q 741 -236 688 -236 z "},"Ẽ":{"ha":913,"x_min":142,"x_max":840,"o":"m 228 74 l 840 74 l 840 0 l 142 0 l 142 1028 l 833 1028 l 833 954 l 228 954 l 228 565 l 763 565 l 763 491 l 228 491 l 228 74 m 617 1168 q 558 1175 586 1168 q 491 1195 531 1182 q 433 1214 456 1208 q 386 1219 410 1219 q 316 1208 346 1219 q 258 1172 286 1197 l 258 1235 q 312 1267 281 1257 q 388 1278 344 1278 q 446 1271 418 1278 q 513 1251 474 1264 q 571 1232 548 1238 q 618 1226 594 1226 q 688 1238 658 1226 q 746 1274 718 1249 l 746 1211 q 692 1178 724 1189 q 617 1168 660 1168 z "},"F":{"ha":883,"x_min":142,"x_max":827,"o":"m 827 953 l 229 953 l 229 560 l 756 560 l 756 485 l 229 485 l 229 0 l 142 0 l 142 1028 l 827 1028 l 827 953 z "},"G":{"ha":1057,"x_min":90,"x_max":923,"o":"m 923 500 l 923 14 q 787 -3 847 2 q 658 -8 727 -8 q 233 124 376 -8 q 90 513 90 255 q 158 809 90 691 q 347 983 226 926 q 628 1040 467 1040 q 758 1032 694 1040 q 893 1005 822 1023 l 893 928 q 757 956 819 948 q 635 964 695 964 q 303 855 424 964 q 182 517 182 746 q 655 68 182 68 q 839 81 760 68 l 839 500 l 923 500 z "},"Ǵ":{"ha":1057,"x_min":90,"x_max":923,"o":"m 923 500 l 923 14 q 787 -3 847 2 q 658 -8 727 -8 q 233 124 376 -8 q 90 513 90 255 q 158 809 90 691 q 347 983 226 926 q 628 1040 467 1040 q 758 1032 694 1040 q 893 1005 822 1023 l 893 928 q 757 956 819 948 q 635 964 695 964 q 303 855 424 964 q 182 517 182 746 q 655 68 182 68 q 839 81 760 68 l 839 500 l 923 500 m 527 1119 l 679 1313 l 778 1313 l 611 1119 l 527 1119 z "},"Ğ":{"ha":1057,"x_min":90,"x_max":923,"o":"m 923 500 l 923 14 q 787 -3 847 2 q 658 -8 727 -8 q 233 124 376 -8 q 90 513 90 255 q 158 809 90 691 q 347 983 226 926 q 628 1040 467 1040 q 758 1032 694 1040 q 893 1005 822 1023 l 893 928 q 757 956 819 948 q 635 964 695 964 q 303 855 424 964 q 182 517 182 746 q 655 68 182 68 q 839 81 760 68 l 839 500 l 923 500 m 571 1126 q 399 1173 459 1126 q 330 1296 339 1220 l 392 1296 q 443 1212 402 1242 q 571 1183 485 1183 q 697 1212 656 1183 q 747 1296 737 1242 l 809 1296 q 741 1173 800 1219 q 571 1126 683 1126 z "},"Ǧ":{"ha":1057,"x_min":90,"x_max":923,"o":"m 923 500 l 923 14 q 787 -3 847 2 q 658 -8 727 -8 q 233 124 376 -8 q 90 513 90 255 q 158 809 90 691 q 347 983 226 926 q 628 1040 467 1040 q 758 1032 694 1040 q 893 1005 822 1023 l 893 928 q 757 956 819 948 q 635 964 695 964 q 303 855 424 964 q 182 517 182 746 q 655 68 182 68 q 839 81 760 68 l 839 500 l 923 500 m 722 1313 l 813 1313 l 611 1119 l 528 1119 l 326 1313 l 417 1313 l 569 1163 l 722 1313 z "},"Ĝ":{"ha":1057,"x_min":90,"x_max":923,"o":"m 923 500 l 923 14 q 787 -3 847 2 q 658 -8 727 -8 q 233 124 376 -8 q 90 513 90 255 q 158 809 90 691 q 347 983 226 926 q 628 1040 467 1040 q 758 1032 694 1040 q 893 1005 822 1023 l 893 928 q 757 956 819 948 q 635 964 695 964 q 303 855 424 964 q 182 517 182 746 q 655 68 182 68 q 839 81 760 68 l 839 500 l 923 500 m 813 1119 l 722 1119 l 569 1269 l 417 1119 l 326 1119 l 528 1313 l 611 1313 l 813 1119 z "},"Ģ":{"ha":1057,"x_min":90,"x_max":923,"o":"m 923 500 l 923 14 q 787 -3 847 2 q 658 -8 727 -8 q 233 124 376 -8 q 90 513 90 255 q 158 809 90 691 q 347 983 226 926 q 628 1040 467 1040 q 758 1032 694 1040 q 893 1005 822 1023 l 893 928 q 757 956 819 948 q 635 964 695 964 q 303 855 424 964 q 182 517 182 746 q 655 68 182 68 q 839 81 760 68 l 839 500 l 923 500 m 567 -120 q 615 -137 599 -120 q 631 -189 631 -155 q 622 -252 631 -217 q 595 -318 613 -287 l 542 -318 q 567 -222 565 -262 q 524 -207 540 -221 q 508 -170 508 -193 q 524 -134 508 -147 q 567 -120 540 -120 z "},"Ġ":{"ha":1057,"x_min":90,"x_max":923,"o":"m 923 500 l 923 14 q 787 -3 847 2 q 658 -8 727 -8 q 233 124 376 -8 q 90 513 90 255 q 158 809 90 691 q 347 983 226 926 q 628 1040 467 1040 q 758 1032 694 1040 q 893 1005 822 1023 l 893 928 q 757 956 819 948 q 635 964 695 964 q 303 855 424 964 q 182 517 182 746 q 655 68 182 68 q 839 81 760 68 l 839 500 l 923 500 m 569 1162 q 523 1177 540 1162 q 506 1217 506 1192 q 523 1257 506 1242 q 569 1272 540 1272 q 616 1257 599 1272 q 633 1217 633 1242 q 616 1177 633 1192 q 569 1162 599 1162 z "},"Ḡ":{"ha":1057,"x_min":90,"x_max":923,"o":"m 923 500 l 923 14 q 787 -3 847 2 q 658 -8 727 -8 q 233 124 376 -8 q 90 513 90 255 q 158 809 90 691 q 347 983 226 926 q 628 1040 467 1040 q 758 1032 694 1040 q 893 1005 822 1023 l 893 928 q 757 956 819 948 q 635 964 695 964 q 303 855 424 964 q 182 517 182 746 q 655 68 182 68 q 839 81 760 68 l 839 500 l 923 500 m 347 1186 l 347 1246 l 792 1246 l 792 1186 l 347 1186 z "},"H":{"ha":1116,"x_min":142,"x_max":974,"o":"m 142 0 l 142 1028 l 229 1028 l 229 567 l 887 567 l 887 1028 l 974 1028 l 974 0 l 887 0 l 887 488 l 229 488 l 229 0 l 142 0 z "},"Ħ":{"ha":1116,"x_min":6,"x_max":1110,"o":"m 1110 832 l 1110 768 l 974 768 l 974 0 l 887 0 l 887 488 l 229 488 l 229 0 l 142 0 l 142 768 l 6 768 l 6 832 l 142 832 l 142 1028 l 229 1028 l 229 832 l 887 832 l 887 1028 l 974 1028 l 974 832 l 1110 832 m 887 567 l 887 768 l 229 768 l 229 567 l 887 567 z "},"Ḫ":{"ha":1116,"x_min":142,"x_max":974,"o":"m 142 0 l 142 1028 l 229 1028 l 229 567 l 887 567 l 887 1028 l 974 1028 l 974 0 l 887 0 l 887 488 l 229 488 l 229 0 l 142 0 m 560 -283 q 428 -260 481 -283 q 348 -198 374 -237 q 319 -109 321 -159 l 381 -109 q 560 -226 391 -226 q 690 -195 649 -226 q 735 -109 731 -165 l 798 -109 q 735 -235 794 -187 q 560 -283 676 -283 z "},"Ĥ":{"ha":1116,"x_min":142,"x_max":974,"o":"m 142 0 l 142 1028 l 229 1028 l 229 567 l 887 567 l 887 1028 l 974 1028 l 974 0 l 887 0 l 887 488 l 229 488 l 229 0 l 142 0 m 802 1119 l 711 1119 l 558 1269 l 406 1119 l 315 1119 l 517 1313 l 600 1313 l 802 1119 z "},"Ḥ":{"ha":1116,"x_min":142,"x_max":974,"o":"m 142 0 l 142 1028 l 229 1028 l 229 567 l 887 567 l 887 1028 l 974 1028 l 974 0 l 887 0 l 887 488 l 229 488 l 229 0 l 142 0 m 558 -231 q 512 -216 528 -231 q 495 -176 495 -201 q 512 -135 495 -150 q 558 -120 528 -120 q 605 -135 588 -120 q 622 -176 622 -150 q 605 -216 622 -201 q 558 -231 588 -231 z "},"I":{"ha":370,"x_min":142,"x_max":229,"o":"m 142 0 l 142 1028 l 229 1028 l 229 0 l 142 0 z "},"Í":{"ha":370,"x_min":142,"x_max":394,"o":"m 142 0 l 142 1028 l 229 1028 l 229 0 l 142 0 m 143 1119 l 295 1313 l 394 1313 l 227 1119 l 143 1119 z "},"Ĭ":{"ha":370,"x_min":-54,"x_max":425,"o":"m 142 0 l 142 1028 l 229 1028 l 229 0 l 142 0 m 187 1126 q 15 1173 75 1126 q -54 1296 -45 1220 l 8 1296 q 59 1212 18 1242 q 187 1183 101 1183 q 313 1212 272 1183 q 363 1296 353 1242 l 425 1296 q 357 1173 416 1219 q 187 1126 299 1126 z "},"Î":{"ha":370,"x_min":-58,"x_max":429,"o":"m 142 0 l 142 1028 l 229 1028 l 229 0 l 142 0 m 429 1119 l 338 1119 l 185 1269 l 33 1119 l -58 1119 l 144 1313 l 227 1313 l 429 1119 z "},"Ȉ":{"ha":370,"x_min":-90,"x_max":345,"o":"m 142 0 l 142 1028 l 229 1028 l 229 0 l 142 0 m 26 1119 l -90 1313 l -13 1313 l 98 1119 l 26 1119 m 273 1119 l 156 1313 l 233 1313 l 345 1119 l 273 1119 z "},"Ï":{"ha":370,"x_min":-58,"x_max":429,"o":"m 142 0 l 142 1028 l 229 1028 l 229 0 l 142 0 m 1 1162 q -42 1176 -26 1162 q -58 1217 -58 1191 q -42 1257 -58 1242 q 1 1272 -26 1272 q 44 1257 28 1272 q 60 1217 60 1242 q 45 1176 60 1191 q 1 1162 29 1162 m 369 1162 q 326 1176 342 1162 q 310 1217 310 1191 q 326 1257 310 1242 q 369 1272 342 1272 q 413 1257 397 1272 q 429 1217 429 1242 q 413 1176 429 1191 q 369 1162 397 1162 z "},"Ḯ":{"ha":370,"x_min":-58,"x_max":429,"o":"m 142 0 l 142 1028 l 229 1028 l 229 0 l 142 0 m 140 1318 l 292 1479 l 398 1479 l 232 1318 l 140 1318 m 1 1162 q -42 1176 -26 1162 q -58 1217 -58 1191 q -42 1257 -58 1242 q 1 1272 -26 1272 q 44 1257 28 1272 q 60 1217 60 1242 q 45 1176 60 1191 q 1 1162 29 1162 m 369 1162 q 326 1176 342 1162 q 310 1217 310 1191 q 326 1257 310 1242 q 369 1272 342 1272 q 413 1257 397 1272 q 429 1217 429 1242 q 413 1176 429 1191 q 369 1162 397 1162 z "},"İ":{"ha":370,"x_min":122,"x_max":249,"o":"m 142 0 l 142 1028 l 229 1028 l 229 0 l 142 0 m 185 1162 q 139 1177 156 1162 q 122 1217 122 1192 q 139 1257 122 1242 q 185 1272 156 1272 q 232 1257 215 1272 q 249 1217 249 1242 q 232 1177 249 1192 q 185 1162 215 1162 z "},"Ị":{"ha":370,"x_min":122,"x_max":248,"o":"m 142 0 l 142 1028 l 229 1028 l 229 0 l 142 0 m 185 -231 q 138 -216 155 -231 q 122 -176 122 -201 q 138 -135 122 -150 q 185 -120 155 -120 q 231 -135 215 -120 q 248 -176 248 -150 q 231 -216 248 -201 q 185 -231 215 -231 z "},"Ì":{"ha":370,"x_min":-24,"x_max":229,"o":"m 142 0 l 142 1028 l 229 1028 l 229 0 l 142 0 m 143 1119 l -24 1313 l 75 1313 l 228 1119 l 143 1119 z "},"Ỉ":{"ha":370,"x_min":44,"x_max":339,"o":"m 142 0 l 142 1028 l 229 1028 l 229 0 l 142 0 m 155 1119 q 167 1153 156 1140 q 192 1174 178 1167 q 231 1192 206 1182 q 270 1211 258 1203 q 283 1233 283 1219 q 263 1259 283 1250 q 194 1268 242 1268 q 118 1263 151 1268 q 44 1244 85 1258 l 44 1292 q 197 1315 110 1315 q 304 1294 269 1315 q 339 1236 339 1273 q 321 1194 339 1208 q 270 1166 303 1179 q 230 1145 243 1154 q 215 1119 217 1135 l 155 1119 z "},"Ȋ":{"ha":370,"x_min":-54,"x_max":425,"o":"m 142 0 l 142 1028 l 229 1028 l 229 0 l 142 0 m -54 1136 q 14 1259 -45 1213 q 184 1306 72 1306 q 356 1259 296 1306 q 425 1136 416 1212 l 363 1136 q 311 1220 353 1190 q 184 1249 270 1249 q 58 1220 99 1249 q 8 1136 18 1190 l -54 1136 z "},"Ī":{"ha":370,"x_min":-37,"x_max":408,"o":"m 142 0 l 142 1028 l 229 1028 l 229 0 l 142 0 m -37 1186 l -37 1246 l 408 1246 l 408 1186 l -37 1186 z "},"Į":{"ha":370,"x_min":19,"x_max":315,"o":"m 188 -236 q 245 -230 217 -236 q 315 -209 274 -224 l 315 -257 q 183 -283 250 -283 q 61 -251 103 -283 q 19 -160 19 -219 q 47 -70 19 -112 q 142 7 76 -29 l 142 1028 l 229 1028 l 229 0 q 111 -75 144 -38 q 78 -155 78 -111 q 106 -215 78 -194 q 188 -236 134 -236 z "},"Ĩ":{"ha":370,"x_min":-58,"x_max":429,"o":"m 142 0 l 142 1028 l 229 1028 l 229 0 l 142 0 m 300 1168 q 242 1175 269 1168 q 174 1195 214 1182 q 117 1214 140 1208 q 69 1219 94 1219 q -1 1208 29 1219 q -58 1172 -31 1197 l -58 1235 q -5 1267 -36 1257 q 71 1278 27 1278 q 129 1271 101 1278 q 197 1251 157 1264 q 254 1232 231 1238 q 301 1226 277 1226 q 372 1238 342 1226 q 429 1274 401 1249 l 429 1211 q 375 1178 407 1189 q 300 1168 344 1168 z "},"J":{"ha":370,"x_min":1,"x_max":229,"o":"m 1 -197 q 108 -14 74 -109 q 142 200 142 82 l 142 1028 l 229 1028 l 229 181 q 184 -41 223 56 q 58 -238 146 -139 l 1 -197 z "},"Ĵ":{"ha":370,"x_min":-58,"x_max":429,"o":"m 1 -197 q 108 -14 74 -109 q 142 200 142 82 l 142 1028 l 229 1028 l 229 181 q 184 -41 223 56 q 58 -238 146 -139 l 1 -197 m 429 1119 l 338 1119 l 185 1269 l 33 1119 l -58 1119 l 144 1313 l 227 1313 l 429 1119 z "},"K":{"ha":942,"x_min":142,"x_max":937,"o":"m 833 0 l 428 488 l 229 488 l 229 0 l 142 0 l 142 1028 l 229 1028 l 229 567 l 431 567 l 807 1028 l 907 1028 l 499 529 l 937 0 l 833 0 z "},"Ķ":{"ha":942,"x_min":142,"x_max":937,"o":"m 833 0 l 428 488 l 229 488 l 229 0 l 142 0 l 142 1028 l 229 1028 l 229 567 l 431 567 l 807 1028 l 907 1028 l 499 529 l 937 0 l 833 0 m 481 -120 q 528 -137 513 -120 q 544 -189 544 -155 q 535 -252 544 -217 q 509 -318 526 -287 l 456 -318 q 481 -222 478 -262 q 438 -207 453 -221 q 422 -170 422 -193 q 438 -134 422 -147 q 481 -120 453 -120 z "},"L":{"ha":828,"x_min":142,"x_max":813,"o":"m 142 0 l 142 1028 l 229 1028 l 229 76 l 813 76 l 813 0 l 142 0 z "},"Ǉ":{"ha":1198,"x_min":142,"x_max":1057,"o":"m 142 0 l 142 1028 l 229 1028 l 229 76 l 813 76 l 813 0 l 142 0 m 829 -197 q 936 -14 902 -109 q 969 200 969 82 l 969 1028 l 1057 1028 l 1057 181 q 1012 -41 1051 56 q 886 -238 974 -139 l 829 -197 z "},"Ĺ":{"ha":828,"x_min":142,"x_max":813,"o":"m 142 0 l 142 1028 l 229 1028 l 229 76 l 813 76 l 813 0 l 142 0 m 143 1119 l 295 1313 l 394 1313 l 227 1119 l 143 1119 z "},"Ľ":{"ha":828,"x_min":142,"x_max":813,"o":"m 142 0 l 142 1028 l 229 1028 l 229 76 l 813 76 l 813 0 l 142 0 m 526 792 q 537 940 534 860 q 540 1122 540 1019 l 607 1122 q 576 792 607 926 l 526 792 z "},"Ļ":{"ha":828,"x_min":142,"x_max":813,"o":"m 142 0 l 142 1028 l 229 1028 l 229 76 l 813 76 l 813 0 l 142 0 m 476 -120 q 523 -137 507 -120 q 539 -189 539 -155 q 530 -252 539 -217 q 503 -318 521 -287 l 450 -318 q 476 -222 473 -262 q 432 -207 448 -221 q 417 -170 417 -193 q 432 -134 417 -147 q 476 -120 448 -120 z "},"Ŀ":{"ha":828,"x_min":142,"x_max":813,"o":"m 142 0 l 142 1028 l 229 1028 l 229 76 l 813 76 l 813 0 l 142 0 m 588 494 q 541 510 558 494 q 524 552 524 525 q 541 595 524 579 q 588 611 558 611 q 634 595 617 611 q 651 552 651 579 q 634 510 651 525 q 588 494 617 494 z "},"Ḷ":{"ha":828,"x_min":142,"x_max":813,"o":"m 142 0 l 142 1028 l 229 1028 l 229 76 l 813 76 l 813 0 l 142 0 m 478 -231 q 431 -216 448 -231 q 415 -176 415 -201 q 431 -135 415 -150 q 478 -120 448 -120 q 524 -135 508 -120 q 541 -176 541 -150 q 524 -216 541 -201 q 478 -231 508 -231 z "},"ǈ":{"ha":1170,"x_min":142,"x_max":1062,"o":"m 142 0 l 142 1028 l 229 1028 l 229 76 l 813 76 l 813 0 l 142 0 m 815 -281 q 923 -97 889 -192 q 956 117 956 -1 l 956 752 l 1042 752 l 1042 121 q 1002 -114 1042 -9 q 872 -321 961 -219 l 815 -281 m 998 936 q 951 951 968 936 q 934 994 934 967 q 951 1037 934 1022 q 998 1053 968 1053 q 1045 1037 1028 1053 q 1062 994 1062 1022 q 1045 951 1062 967 q 998 936 1028 936 z "},"Ḻ":{"ha":828,"x_min":142,"x_max":813,"o":"m 142 0 l 142 1028 l 229 1028 l 229 76 l 813 76 l 813 0 l 142 0 m 256 -206 l 256 -146 l 700 -146 l 700 -206 l 256 -206 z "},"Ł":{"ha":828,"x_min":-3,"x_max":813,"o":"m 229 76 l 813 76 l 813 0 l 142 0 l 142 471 l 32 392 l -3 446 l 142 549 l 142 1028 l 229 1028 l 229 612 l 447 767 l 481 715 l 229 534 l 229 76 z "},"M":{"ha":1328,"x_min":144,"x_max":1183,"o":"m 1082 1028 l 1183 1028 l 1183 0 l 1100 0 l 1100 896 l 706 141 l 622 141 l 227 891 l 227 0 l 144 0 l 144 1028 l 245 1028 l 665 222 l 1082 1028 z "},"Ṃ":{"ha":1328,"x_min":144,"x_max":1183,"o":"m 1082 1028 l 1183 1028 l 1183 0 l 1100 0 l 1100 896 l 706 141 l 622 141 l 227 891 l 227 0 l 144 0 l 144 1028 l 245 1028 l 665 222 l 1082 1028 m 667 -231 q 620 -216 637 -231 q 603 -176 603 -201 q 620 -135 603 -150 q 667 -120 637 -120 q 713 -135 697 -120 q 730 -176 730 -150 q 713 -216 730 -201 q 667 -231 697 -231 z "},"N":{"ha":1135,"x_min":142,"x_max":993,"o":"m 910 1028 l 993 1028 l 993 0 l 902 0 l 225 905 l 225 0 l 142 0 l 142 1028 l 233 1028 l 910 123 l 910 1028 z "},"Ǌ":{"ha":1505,"x_min":142,"x_max":1364,"o":"m 910 1028 l 993 1028 l 993 0 l 902 0 l 225 905 l 225 0 l 142 0 l 142 1028 l 233 1028 l 910 123 l 910 1028 m 1136 -197 q 1243 -14 1209 -109 q 1276 200 1276 82 l 1276 1028 l 1364 1028 l 1364 181 q 1319 -41 1358 56 q 1193 -238 1281 -139 l 1136 -197 z "},"Ń":{"ha":1135,"x_min":142,"x_max":993,"o":"m 910 1028 l 993 1028 l 993 0 l 902 0 l 225 905 l 225 0 l 142 0 l 142 1028 l 233 1028 l 910 123 l 910 1028 m 526 1119 l 678 1313 l 777 1313 l 610 1119 l 526 1119 z "},"Ň":{"ha":1135,"x_min":142,"x_max":993,"o":"m 910 1028 l 993 1028 l 993 0 l 902 0 l 225 905 l 225 0 l 142 0 l 142 1028 l 233 1028 l 910 123 l 910 1028 m 721 1313 l 812 1313 l 610 1119 l 526 1119 l 324 1313 l 415 1313 l 568 1163 l 721 1313 z "},"Ņ":{"ha":1135,"x_min":142,"x_max":993,"o":"m 910 1028 l 993 1028 l 993 0 l 902 0 l 225 905 l 225 0 l 142 0 l 142 1028 l 233 1028 l 910 123 l 910 1028 m 566 -120 q 613 -137 597 -120 q 629 -189 629 -155 q 620 -252 629 -217 q 594 -318 611 -287 l 540 -318 q 566 -222 563 -262 q 523 -207 538 -221 q 507 -170 507 -193 q 523 -134 507 -147 q 566 -120 538 -120 z "},"Ṅ":{"ha":1135,"x_min":142,"x_max":993,"o":"m 910 1028 l 993 1028 l 993 0 l 902 0 l 225 905 l 225 0 l 142 0 l 142 1028 l 233 1028 l 910 123 l 910 1028 m 568 1162 q 522 1177 538 1162 q 505 1217 505 1192 q 522 1257 505 1242 q 568 1272 538 1272 q 615 1257 598 1272 q 631 1217 631 1242 q 615 1177 631 1192 q 568 1162 598 1162 z "},"Ṇ":{"ha":1135,"x_min":142,"x_max":993,"o":"m 910 1028 l 993 1028 l 993 0 l 902 0 l 225 905 l 225 0 l 142 0 l 142 1028 l 233 1028 l 910 123 l 910 1028 m 568 -231 q 522 -216 538 -231 q 505 -176 505 -201 q 522 -135 505 -150 q 568 -120 538 -120 q 615 -135 598 -120 q 631 -176 631 -150 q 615 -216 631 -201 q 568 -231 598 -231 z "},"Ŋ":{"ha":1135,"x_min":142,"x_max":993,"o":"m 993 1028 l 993 124 q 953 -114 993 -8 q 823 -321 913 -219 l 766 -281 q 854 -145 821 -214 q 901 3 888 -76 l 225 903 l 225 0 l 142 0 l 142 1028 l 233 1028 l 910 125 l 910 1028 l 993 1028 z "},"ǋ":{"ha":1477,"x_min":142,"x_max":1369,"o":"m 910 1028 l 993 1028 l 993 0 l 902 0 l 225 905 l 225 0 l 142 0 l 142 1028 l 233 1028 l 910 123 l 910 1028 m 1122 -281 q 1230 -97 1196 -192 q 1263 117 1263 -1 l 1263 752 l 1349 752 l 1349 121 q 1309 -114 1349 -9 q 1179 -321 1268 -219 l 1122 -281 m 1305 936 q 1258 951 1275 936 q 1241 994 1241 967 q 1258 1037 1241 1022 q 1305 1053 1275 1053 q 1352 1037 1335 1053 q 1369 994 1369 1022 q 1352 951 1369 967 q 1305 936 1335 936 z "},"Ṉ":{"ha":1135,"x_min":142,"x_max":993,"o":"m 910 1028 l 993 1028 l 993 0 l 902 0 l 225 905 l 225 0 l 142 0 l 142 1028 l 233 1028 l 910 123 l 910 1028 m 346 -206 l 346 -146 l 790 -146 l 790 -206 l 346 -206 z "},"Ñ":{"ha":1135,"x_min":142,"x_max":993,"o":"m 910 1028 l 993 1028 l 993 0 l 902 0 l 225 905 l 225 0 l 142 0 l 142 1028 l 233 1028 l 910 123 l 910 1028 m 683 1168 q 624 1175 652 1168 q 557 1195 597 1182 q 499 1214 522 1208 q 452 1219 476 1219 q 382 1208 412 1219 q 324 1172 352 1197 l 324 1235 q 378 1267 347 1257 q 453 1278 410 1278 q 512 1271 484 1278 q 579 1251 540 1264 q 637 1232 614 1238 q 684 1226 660 1226 q 754 1238 724 1226 q 812 1274 784 1249 l 812 1211 q 758 1178 790 1189 q 683 1168 726 1168 z "},"O":{"ha":1123,"x_min":90,"x_max":1033,"o":"m 562 -12 q 313 44 418 -12 q 149 219 207 101 q 90 514 90 337 q 149 809 90 691 q 314 983 208 926 q 562 1040 420 1040 q 810 983 705 1040 q 974 809 916 926 q 1033 514 1033 691 q 974 219 1033 337 q 809 44 915 101 q 562 -12 703 -12 m 562 64 q 841 173 740 64 q 942 510 942 281 q 841 854 942 744 q 562 964 740 964 q 282 856 383 964 q 181 517 181 747 q 282 173 181 283 q 562 64 383 64 z "},"Ó":{"ha":1123,"x_min":90,"x_max":1033,"o":"m 562 -12 q 313 44 418 -12 q 149 219 207 101 q 90 514 90 337 q 149 809 90 691 q 314 983 208 926 q 562 1040 420 1040 q 810 983 705 1040 q 974 809 916 926 q 1033 514 1033 691 q 974 219 1033 337 q 809 44 915 101 q 562 -12 703 -12 m 562 64 q 841 173 740 64 q 942 510 942 281 q 841 854 942 744 q 562 964 740 964 q 282 856 383 964 q 181 517 181 747 q 282 173 181 283 q 562 64 383 64 m 519 1119 l 672 1313 l 771 1313 l 603 1119 l 519 1119 z "},"Ŏ":{"ha":1123,"x_min":90,"x_max":1033,"o":"m 562 -12 q 313 44 418 -12 q 149 219 207 101 q 90 514 90 337 q 149 809 90 691 q 314 983 208 926 q 562 1040 420 1040 q 810 983 705 1040 q 974 809 916 926 q 1033 514 1033 691 q 974 219 1033 337 q 809 44 915 101 q 562 -12 703 -12 m 562 64 q 841 173 740 64 q 942 510 942 281 q 841 854 942 744 q 562 964 740 964 q 282 856 383 964 q 181 517 181 747 q 282 173 181 283 q 562 64 383 64 m 563 1126 q 391 1173 451 1126 q 322 1296 331 1220 l 385 1296 q 436 1212 394 1242 q 563 1183 477 1183 q 689 1212 649 1183 q 739 1296 729 1242 l 801 1296 q 734 1173 792 1219 q 563 1126 675 1126 z "},"Ô":{"ha":1123,"x_min":90,"x_max":1033,"o":"m 562 -12 q 313 44 418 -12 q 149 219 207 101 q 90 514 90 337 q 149 809 90 691 q 314 983 208 926 q 562 1040 420 1040 q 810 983 705 1040 q 974 809 916 926 q 1033 514 1033 691 q 974 219 1033 337 q 809 44 915 101 q 562 -12 703 -12 m 562 64 q 841 173 740 64 q 942 510 942 281 q 841 854 942 744 q 562 964 740 964 q 282 856 383 964 q 181 517 181 747 q 282 173 181 283 q 562 64 383 64 m 806 1119 l 715 1119 l 562 1269 l 409 1119 l 318 1119 l 520 1313 l 603 1313 l 806 1119 z "},"Ố":{"ha":1123,"x_min":90,"x_max":1033,"o":"m 562 -12 q 313 44 418 -12 q 149 219 207 101 q 90 514 90 337 q 149 809 90 691 q 314 983 208 926 q 562 1040 420 1040 q 810 983 705 1040 q 974 809 916 926 q 1033 514 1033 691 q 974 219 1033 337 q 809 44 915 101 q 562 -12 703 -12 m 562 64 q 841 173 740 64 q 942 510 942 281 q 841 854 942 744 q 562 964 740 964 q 282 856 383 964 q 181 517 181 747 q 282 173 181 283 q 562 64 383 64 m 882 1433 l 964 1433 l 808 1248 l 739 1248 l 882 1433 m 520 1308 l 603 1308 l 806 1119 l 715 1119 l 562 1267 l 409 1119 l 318 1119 l 520 1308 z "},"Ộ":{"ha":1123,"x_min":90,"x_max":1033,"o":"m 562 -12 q 313 44 418 -12 q 149 219 207 101 q 90 514 90 337 q 149 809 90 691 q 314 983 208 926 q 562 1040 420 1040 q 810 983 705 1040 q 974 809 916 926 q 1033 514 1033 691 q 974 219 1033 337 q 809 44 915 101 q 562 -12 703 -12 m 562 64 q 841 173 740 64 q 942 510 942 281 q 841 854 942 744 q 562 964 740 964 q 282 856 383 964 q 181 517 181 747 q 282 173 181 283 q 562 64 383 64 m 562 -231 q 515 -216 532 -231 q 499 -176 499 -201 q 515 -135 499 -150 q 562 -120 532 -120 q 608 -135 592 -120 q 625 -176 625 -150 q 608 -216 625 -201 q 562 -231 592 -231 m 806 1119 l 715 1119 l 562 1269 l 409 1119 l 318 1119 l 520 1313 l 603 1313 l 806 1119 z "},"Ồ":{"ha":1123,"x_min":90,"x_max":1033,"o":"m 562 -12 q 313 44 418 -12 q 149 219 207 101 q 90 514 90 337 q 149 809 90 691 q 314 983 208 926 q 562 1040 420 1040 q 810 983 705 1040 q 974 809 916 926 q 1033 514 1033 691 q 974 219 1033 337 q 809 44 915 101 q 562 -12 703 -12 m 562 64 q 841 173 740 64 q 942 510 942 281 q 841 854 942 744 q 562 964 740 964 q 282 856 383 964 q 181 517 181 747 q 282 173 181 283 q 562 64 383 64 m 824 1248 l 755 1248 l 599 1433 l 681 1433 l 824 1248 m 520 1308 l 603 1308 l 806 1119 l 715 1119 l 562 1267 l 409 1119 l 318 1119 l 520 1308 z "},"Ổ":{"ha":1123,"x_min":90,"x_max":1033,"o":"m 562 -12 q 313 44 418 -12 q 149 219 207 101 q 90 514 90 337 q 149 809 90 691 q 314 983 208 926 q 562 1040 420 1040 q 810 983 705 1040 q 974 809 916 926 q 1033 514 1033 691 q 974 219 1033 337 q 809 44 915 101 q 562 -12 703 -12 m 562 64 q 841 173 740 64 q 942 510 942 281 q 841 854 942 744 q 562 964 740 964 q 282 856 383 964 q 181 517 181 747 q 282 173 181 283 q 562 64 383 64 m 783 1439 q 890 1418 855 1439 q 924 1363 924 1398 q 907 1321 924 1335 q 856 1294 890 1307 q 816 1274 830 1283 q 801 1248 803 1264 l 740 1248 q 761 1290 742 1276 q 816 1319 781 1305 q 855 1337 842 1328 q 868 1360 868 1346 q 848 1385 868 1376 q 779 1394 828 1394 q 705 1389 738 1394 q 630 1371 672 1384 l 630 1416 q 783 1439 697 1439 m 520 1308 l 603 1308 l 806 1119 l 715 1119 l 562 1267 l 409 1119 l 318 1119 l 520 1308 z "},"Ỗ":{"ha":1123,"x_min":90,"x_max":1033,"o":"m 562 -12 q 313 44 418 -12 q 149 219 207 101 q 90 514 90 337 q 149 809 90 691 q 314 983 208 926 q 562 1040 420 1040 q 810 983 705 1040 q 974 809 916 926 q 1033 514 1033 691 q 974 219 1033 337 q 809 44 915 101 q 562 -12 703 -12 m 562 64 q 841 173 740 64 q 942 510 942 281 q 841 854 942 744 q 562 964 740 964 q 282 856 383 964 q 181 517 181 747 q 282 173 181 283 q 562 64 383 64 m 676 1390 q 743 1402 713 1390 q 806 1439 774 1414 l 806 1381 q 675 1340 756 1340 q 616 1347 644 1340 q 549 1367 588 1353 q 491 1384 513 1378 q 448 1390 469 1390 q 380 1378 411 1390 q 318 1341 349 1366 l 318 1399 q 449 1440 367 1440 q 508 1433 480 1440 q 575 1413 535 1426 q 632 1396 610 1401 q 676 1390 654 1390 m 520 1308 l 603 1308 l 806 1119 l 715 1119 l 562 1267 l 409 1119 l 318 1119 l 520 1308 z "},"Ȍ":{"ha":1123,"x_min":90,"x_max":1033,"o":"m 562 -12 q 313 44 418 -12 q 149 219 207 101 q 90 514 90 337 q 149 809 90 691 q 314 983 208 926 q 562 1040 420 1040 q 810 983 705 1040 q 974 809 916 926 q 1033 514 1033 691 q 974 219 1033 337 q 809 44 915 101 q 562 -12 703 -12 m 562 64 q 841 173 740 64 q 942 510 942 281 q 841 854 942 744 q 562 964 740 964 q 282 856 383 964 q 181 517 181 747 q 282 173 181 283 q 562 64 383 64 m 402 1119 l 286 1313 l 363 1313 l 474 1119 l 402 1119 m 649 1119 l 533 1313 l 610 1313 l 722 1119 l 649 1119 z "},"Ö":{"ha":1123,"x_min":90,"x_max":1033,"o":"m 562 -12 q 313 44 418 -12 q 149 219 207 101 q 90 514 90 337 q 149 809 90 691 q 314 983 208 926 q 562 1040 420 1040 q 810 983 705 1040 q 974 809 916 926 q 1033 514 1033 691 q 974 219 1033 337 q 809 44 915 101 q 562 -12 703 -12 m 562 64 q 841 173 740 64 q 942 510 942 281 q 841 854 942 744 q 562 964 740 964 q 282 856 383 964 q 181 517 181 747 q 282 173 181 283 q 562 64 383 64 m 378 1162 q 334 1176 350 1162 q 318 1217 318 1191 q 334 1257 318 1242 q 378 1272 350 1272 q 421 1257 405 1272 q 437 1217 437 1242 q 421 1176 437 1191 q 378 1162 406 1162 m 746 1162 q 702 1176 718 1162 q 687 1217 687 1191 q 703 1257 687 1242 q 746 1272 719 1272 q 790 1257 774 1272 q 806 1217 806 1242 q 790 1176 806 1191 q 746 1162 774 1162 z "},"Ȫ":{"ha":1123,"x_min":90,"x_max":1033,"o":"m 562 -12 q 313 44 418 -12 q 149 219 207 101 q 90 514 90 337 q 149 809 90 691 q 314 983 208 926 q 562 1040 420 1040 q 810 983 705 1040 q 974 809 916 926 q 1033 514 1033 691 q 974 219 1033 337 q 809 44 915 101 q 562 -12 703 -12 m 562 64 q 841 173 740 64 q 942 510 942 281 q 841 854 942 744 q 562 964 740 964 q 282 856 383 964 q 181 517 181 747 q 282 173 181 283 q 562 64 383 64 m 378 1162 q 334 1176 350 1162 q 318 1217 318 1191 q 334 1257 318 1242 q 378 1272 350 1272 q 421 1257 405 1272 q 437 1217 437 1242 q 421 1176 437 1191 q 378 1162 406 1162 m 746 1162 q 702 1176 718 1162 q 687 1217 687 1191 q 703 1257 687 1242 q 746 1272 719 1272 q 790 1257 774 1272 q 806 1217 806 1242 q 790 1176 806 1191 q 746 1162 774 1162 m 340 1385 l 340 1445 l 784 1445 l 784 1385 l 340 1385 z "},"Ȱ":{"ha":1123,"x_min":90,"x_max":1033,"o":"m 562 -12 q 313 44 418 -12 q 149 219 207 101 q 90 514 90 337 q 149 809 90 691 q 314 983 208 926 q 562 1040 420 1040 q 810 983 705 1040 q 974 809 916 926 q 1033 514 1033 691 q 974 219 1033 337 q 809 44 915 101 q 562 -12 703 -12 m 562 64 q 841 173 740 64 q 942 510 942 281 q 841 854 942 744 q 562 964 740 964 q 282 856 383 964 q 181 517 181 747 q 282 173 181 283 q 562 64 383 64 m 562 1162 q 515 1177 532 1162 q 499 1217 499 1192 q 515 1257 499 1242 q 562 1272 532 1272 q 608 1257 592 1272 q 625 1217 625 1242 q 608 1177 625 1192 q 562 1162 592 1162 m 340 1385 l 340 1445 l 784 1445 l 784 1385 l 340 1385 z "},"Ọ":{"ha":1123,"x_min":90,"x_max":1033,"o":"m 562 -12 q 313 44 418 -12 q 149 219 207 101 q 90 514 90 337 q 149 809 90 691 q 314 983 208 926 q 562 1040 420 1040 q 810 983 705 1040 q 974 809 916 926 q 1033 514 1033 691 q 974 219 1033 337 q 809 44 915 101 q 562 -12 703 -12 m 562 64 q 841 173 740 64 q 942 510 942 281 q 841 854 942 744 q 562 964 740 964 q 282 856 383 964 q 181 517 181 747 q 282 173 181 283 q 562 64 383 64 m 562 -231 q 515 -216 532 -231 q 499 -176 499 -201 q 515 -135 499 -150 q 562 -120 532 -120 q 608 -135 592 -120 q 625 -176 625 -150 q 608 -216 625 -201 q 562 -231 592 -231 z "},"Ò":{"ha":1123,"x_min":90,"x_max":1033,"o":"m 562 -12 q 313 44 418 -12 q 149 219 207 101 q 90 514 90 337 q 149 809 90 691 q 314 983 208 926 q 562 1040 420 1040 q 810 983 705 1040 q 974 809 916 926 q 1033 514 1033 691 q 974 219 1033 337 q 809 44 915 101 q 562 -12 703 -12 m 562 64 q 841 173 740 64 q 942 510 942 281 q 841 854 942 744 q 562 964 740 964 q 282 856 383 964 q 181 517 181 747 q 282 173 181 283 q 562 64 383 64 m 519 1119 l 352 1313 l 451 1313 l 604 1119 l 519 1119 z "},"Ỏ":{"ha":1123,"x_min":90,"x_max":1033,"o":"m 562 -12 q 313 44 418 -12 q 149 219 207 101 q 90 514 90 337 q 149 809 90 691 q 314 983 208 926 q 562 1040 420 1040 q 810 983 705 1040 q 974 809 916 926 q 1033 514 1033 691 q 974 219 1033 337 q 809 44 915 101 q 562 -12 703 -12 m 562 64 q 841 173 740 64 q 942 510 942 281 q 841 854 942 744 q 562 964 740 964 q 282 856 383 964 q 181 517 181 747 q 282 173 181 283 q 562 64 383 64 m 531 1119 q 543 1153 532 1140 q 568 1174 554 1167 q 607 1192 583 1182 q 647 1211 635 1203 q 659 1233 659 1219 q 639 1259 659 1250 q 570 1268 619 1268 q 495 1263 528 1268 q 421 1244 462 1258 l 421 1292 q 573 1315 486 1315 q 680 1294 645 1315 q 715 1236 715 1273 q 698 1194 715 1208 q 647 1166 680 1179 q 607 1145 619 1154 q 592 1119 594 1135 l 531 1119 z "},"Ơ":{"ha":1123,"x_min":90,"x_max":1034,"o":"m 844 964 q 984 791 935 903 q 1033 514 1033 678 q 974 216 1033 334 q 811 43 916 99 q 562 -12 706 -12 q 313 44 418 -12 q 149 219 207 101 q 90 514 90 337 q 149 809 90 691 q 314 983 208 926 q 562 1040 420 1040 q 630 1037 594 1040 q 674 1033 665 1033 q 813 1023 757 1023 q 966 1135 966 1023 q 962 1183 966 1160 q 949 1233 958 1206 l 1017 1233 q 1030 1185 1026 1208 q 1034 1133 1034 1162 q 985 1014 1034 1058 q 844 964 937 969 m 562 64 q 841 173 740 64 q 942 510 942 281 q 841 854 942 744 q 562 964 740 964 q 282 856 383 964 q 181 517 181 747 q 282 173 181 283 q 562 64 383 64 z "},"Ớ":{"ha":1123,"x_min":90,"x_max":1034,"o":"m 844 964 q 984 791 935 903 q 1033 514 1033 678 q 974 216 1033 334 q 811 43 916 99 q 562 -12 706 -12 q 313 44 418 -12 q 149 219 207 101 q 90 514 90 337 q 149 809 90 691 q 314 983 208 926 q 562 1040 420 1040 q 630 1037 594 1040 q 674 1033 665 1033 q 813 1023 757 1023 q 966 1135 966 1023 q 962 1183 966 1160 q 949 1233 958 1206 l 1017 1233 q 1030 1185 1026 1208 q 1034 1133 1034 1162 q 985 1014 1034 1058 q 844 964 937 969 m 562 64 q 841 173 740 64 q 942 510 942 281 q 841 854 942 744 q 562 964 740 964 q 282 856 383 964 q 181 517 181 747 q 282 173 181 283 q 562 64 383 64 m 519 1119 l 672 1313 l 771 1313 l 603 1119 l 519 1119 z "},"Ợ":{"ha":1123,"x_min":90,"x_max":1034,"o":"m 844 964 q 984 791 935 903 q 1033 514 1033 678 q 974 216 1033 334 q 811 43 916 99 q 562 -12 706 -12 q 313 44 418 -12 q 149 219 207 101 q 90 514 90 337 q 149 809 90 691 q 314 983 208 926 q 562 1040 420 1040 q 630 1037 594 1040 q 674 1033 665 1033 q 813 1023 757 1023 q 966 1135 966 1023 q 962 1183 966 1160 q 949 1233 958 1206 l 1017 1233 q 1030 1185 1026 1208 q 1034 1133 1034 1162 q 985 1014 1034 1058 q 844 964 937 969 m 562 64 q 841 173 740 64 q 942 510 942 281 q 841 854 942 744 q 562 964 740 964 q 282 856 383 964 q 181 517 181 747 q 282 173 181 283 q 562 64 383 64 m 562 -231 q 515 -216 532 -231 q 499 -176 499 -201 q 515 -135 499 -150 q 562 -120 532 -120 q 608 -135 592 -120 q 625 -176 625 -150 q 608 -216 625 -201 q 562 -231 592 -231 z "},"Ờ":{"ha":1123,"x_min":90,"x_max":1034,"o":"m 844 964 q 984 791 935 903 q 1033 514 1033 678 q 974 216 1033 334 q 811 43 916 99 q 562 -12 706 -12 q 313 44 418 -12 q 149 219 207 101 q 90 514 90 337 q 149 809 90 691 q 314 983 208 926 q 562 1040 420 1040 q 630 1037 594 1040 q 674 1033 665 1033 q 813 1023 757 1023 q 966 1135 966 1023 q 962 1183 966 1160 q 949 1233 958 1206 l 1017 1233 q 1030 1185 1026 1208 q 1034 1133 1034 1162 q 985 1014 1034 1058 q 844 964 937 969 m 562 64 q 841 173 740 64 q 942 510 942 281 q 841 854 942 744 q 562 964 740 964 q 282 856 383 964 q 181 517 181 747 q 282 173 181 283 q 562 64 383 64 m 519 1119 l 352 1313 l 451 1313 l 604 1119 l 519 1119 z "},"Ở":{"ha":1123,"x_min":90,"x_max":1034,"o":"m 844 964 q 984 791 935 903 q 1033 514 1033 678 q 974 216 1033 334 q 811 43 916 99 q 562 -12 706 -12 q 313 44 418 -12 q 149 219 207 101 q 90 514 90 337 q 149 809 90 691 q 314 983 208 926 q 562 1040 420 1040 q 630 1037 594 1040 q 674 1033 665 1033 q 813 1023 757 1023 q 966 1135 966 1023 q 962 1183 966 1160 q 949 1233 958 1206 l 1017 1233 q 1030 1185 1026 1208 q 1034 1133 1034 1162 q 985 1014 1034 1058 q 844 964 937 969 m 562 64 q 841 173 740 64 q 942 510 942 281 q 841 854 942 744 q 562 964 740 964 q 282 856 383 964 q 181 517 181 747 q 282 173 181 283 q 562 64 383 64 m 531 1119 q 543 1153 532 1140 q 568 1174 554 1167 q 607 1192 583 1182 q 647 1211 635 1203 q 659 1233 659 1219 q 639 1259 659 1250 q 570 1268 619 1268 q 495 1263 528 1268 q 421 1244 462 1258 l 421 1292 q 573 1315 486 1315 q 680 1294 645 1315 q 715 1236 715 1273 q 698 1194 715 1208 q 647 1166 680 1179 q 607 1145 619 1154 q 592 1119 594 1135 l 531 1119 z "},"Ỡ":{"ha":1123,"x_min":90,"x_max":1034,"o":"m 676 1168 q 617 1175 645 1168 q 550 1196 588 1182 q 492 1214 515 1208 q 446 1219 469 1219 q 375 1208 406 1219 q 317 1172 345 1197 l 317 1235 q 372 1267 340 1257 q 447 1278 403 1278 q 506 1271 478 1278 q 573 1251 533 1264 q 631 1232 608 1238 q 678 1226 653 1226 q 748 1238 718 1226 q 806 1274 778 1249 l 806 1211 q 751 1178 783 1189 q 676 1168 720 1168 m 844 964 q 984 791 935 903 q 1033 514 1033 678 q 974 216 1033 334 q 811 43 916 99 q 562 -12 706 -12 q 313 44 418 -12 q 149 219 207 101 q 90 514 90 337 q 149 809 90 691 q 314 983 208 926 q 562 1040 420 1040 q 630 1037 594 1040 q 674 1033 665 1033 q 813 1023 757 1023 q 966 1135 966 1023 q 962 1183 966 1160 q 949 1233 958 1206 l 1017 1233 q 1030 1185 1026 1208 q 1034 1133 1034 1162 q 985 1014 1034 1058 q 844 964 937 969 m 562 64 q 841 173 740 64 q 942 510 942 281 q 841 854 942 744 q 562 964 740 964 q 282 856 383 964 q 181 517 181 747 q 282 173 181 283 q 562 64 383 64 z "},"Ő":{"ha":1123,"x_min":90,"x_max":1033,"o":"m 562 -12 q 313 44 418 -12 q 149 219 207 101 q 90 514 90 337 q 149 809 90 691 q 314 983 208 926 q 562 1040 420 1040 q 810 983 705 1040 q 974 809 916 926 q 1033 514 1033 691 q 974 219 1033 337 q 809 44 915 101 q 562 -12 703 -12 m 562 64 q 841 173 740 64 q 942 510 942 281 q 841 854 942 744 q 562 964 740 964 q 282 856 383 964 q 181 517 181 747 q 282 173 181 283 q 562 64 383 64 m 402 1119 l 514 1313 l 591 1313 l 474 1119 l 402 1119 m 649 1119 l 760 1313 l 838 1313 l 722 1119 l 649 1119 z "},"Ȏ":{"ha":1123,"x_min":90,"x_max":1033,"o":"m 562 -12 q 313 44 418 -12 q 149 219 207 101 q 90 514 90 337 q 149 809 90 691 q 314 983 208 926 q 562 1040 420 1040 q 810 983 705 1040 q 974 809 916 926 q 1033 514 1033 691 q 974 219 1033 337 q 809 44 915 101 q 562 -12 703 -12 m 562 64 q 841 173 740 64 q 942 510 942 281 q 841 854 942 744 q 562 964 740 964 q 282 856 383 964 q 181 517 181 747 q 282 173 181 283 q 562 64 383 64 m 322 1136 q 390 1259 331 1213 q 560 1306 449 1306 q 732 1259 672 1306 q 801 1136 792 1212 l 739 1136 q 688 1220 729 1190 q 560 1249 647 1249 q 435 1220 475 1249 q 385 1136 394 1190 l 322 1136 z "},"Ō":{"ha":1123,"x_min":90,"x_max":1033,"o":"m 562 -12 q 313 44 418 -12 q 149 219 207 101 q 90 514 90 337 q 149 809 90 691 q 314 983 208 926 q 562 1040 420 1040 q 810 983 705 1040 q 974 809 916 926 q 1033 514 1033 691 q 974 219 1033 337 q 809 44 915 101 q 562 -12 703 -12 m 562 64 q 841 173 740 64 q 942 510 942 281 q 841 854 942 744 q 562 964 740 964 q 282 856 383 964 q 181 517 181 747 q 282 173 181 283 q 562 64 383 64 m 340 1186 l 340 1246 l 784 1246 l 784 1186 l 340 1186 z "},"Ṓ":{"ha":1123,"x_min":90,"x_max":1033,"o":"m 562 -12 q 313 44 418 -12 q 149 219 207 101 q 90 514 90 337 q 149 809 90 691 q 314 983 208 926 q 562 1040 420 1040 q 810 983 705 1040 q 974 809 916 926 q 1033 514 1033 691 q 974 219 1033 337 q 809 44 915 101 q 562 -12 703 -12 m 562 64 q 841 173 740 64 q 942 510 942 281 q 841 854 942 744 q 562 964 740 964 q 282 856 383 964 q 181 517 181 747 q 282 173 181 283 q 562 64 383 64 m 517 1318 l 668 1479 l 774 1479 l 608 1318 l 517 1318 m 340 1186 l 340 1246 l 784 1246 l 784 1186 l 340 1186 z "},"Ṑ":{"ha":1123,"x_min":90,"x_max":1033,"o":"m 562 -12 q 313 44 418 -12 q 149 219 207 101 q 90 514 90 337 q 149 809 90 691 q 314 983 208 926 q 562 1040 420 1040 q 810 983 705 1040 q 974 809 916 926 q 1033 514 1033 691 q 974 219 1033 337 q 809 44 915 101 q 562 -12 703 -12 m 562 64 q 841 173 740 64 q 942 510 942 281 q 841 854 942 744 q 562 964 740 964 q 282 856 383 964 q 181 517 181 747 q 282 173 181 283 q 562 64 383 64 m 517 1318 l 349 1479 l 454 1479 l 607 1318 l 517 1318 m 340 1186 l 340 1246 l 784 1246 l 784 1186 l 340 1186 z "},"Ǫ":{"ha":1123,"x_min":90,"x_max":1033,"o":"m 736 13 q 582 -64 624 -23 q 539 -155 539 -106 q 567 -215 539 -194 q 649 -236 595 -236 q 706 -230 678 -236 q 776 -209 735 -224 l 776 -257 q 644 -283 711 -283 q 522 -251 565 -283 q 479 -160 479 -218 q 502 -78 479 -115 q 576 -12 524 -42 l 563 -12 q 312 45 418 -12 q 148 219 206 102 q 90 514 90 337 q 149 809 90 691 q 314 983 208 926 q 562 1040 420 1040 q 809 985 704 1040 q 974 811 915 929 q 1033 514 1033 694 q 952 178 1033 301 q 736 13 871 55 m 562 64 q 841 173 740 64 q 942 510 942 281 q 841 854 942 744 q 562 964 740 964 q 282 856 383 964 q 181 517 181 747 q 282 173 181 283 q 562 64 383 64 z "},"Ø":{"ha":1123,"x_min":90,"x_max":1033,"o":"m 923 890 q 1033 514 1033 756 q 974 219 1033 337 q 809 44 915 101 q 562 -12 703 -12 q 383 14 464 -12 q 242 94 303 40 l 148 -16 l 103 24 l 200 138 q 90 514 90 272 q 149 809 90 691 q 314 983 208 926 q 562 1040 420 1040 q 740 1014 659 1040 q 881 933 821 987 l 976 1044 l 1021 1004 l 923 890 m 181 517 q 258 205 181 318 l 826 869 q 562 964 731 964 q 282 856 383 964 q 181 517 181 747 m 562 64 q 841 173 740 64 q 942 510 942 281 q 865 823 942 709 l 297 158 q 562 64 391 64 z "},"Ǿ":{"ha":1123,"x_min":90,"x_max":1033,"o":"m 923 890 q 1033 514 1033 756 q 974 219 1033 337 q 809 44 915 101 q 562 -12 703 -12 q 383 14 464 -12 q 242 94 303 40 l 148 -16 l 103 24 l 200 138 q 90 514 90 272 q 149 809 90 691 q 314 983 208 926 q 562 1040 420 1040 q 740 1014 659 1040 q 881 933 821 987 l 976 1044 l 1021 1004 l 923 890 m 181 517 q 258 205 181 318 l 826 869 q 562 964 731 964 q 282 856 383 964 q 181 517 181 747 m 562 64 q 841 173 740 64 q 942 510 942 281 q 865 823 942 709 l 297 158 q 562 64 391 64 m 513 1119 l 665 1313 l 764 1313 l 597 1119 l 513 1119 z "},"Õ":{"ha":1123,"x_min":90,"x_max":1033,"o":"m 562 -12 q 313 44 418 -12 q 149 219 207 101 q 90 514 90 337 q 149 809 90 691 q 314 983 208 926 q 562 1040 420 1040 q 810 983 705 1040 q 974 809 916 926 q 1033 514 1033 691 q 974 219 1033 337 q 809 44 915 101 q 562 -12 703 -12 m 562 64 q 841 173 740 64 q 942 510 942 281 q 841 854 942 744 q 562 964 740 964 q 282 856 383 964 q 181 517 181 747 q 282 173 181 283 q 562 64 383 64 m 676 1168 q 618 1175 646 1168 q 551 1195 590 1182 q 493 1214 516 1208 q 446 1219 470 1219 q 376 1208 406 1219 q 318 1172 346 1197 l 318 1235 q 372 1267 340 1257 q 447 1278 403 1278 q 506 1271 478 1278 q 573 1251 533 1264 q 631 1232 608 1238 q 678 1226 653 1226 q 748 1238 718 1226 q 806 1274 778 1249 l 806 1211 q 752 1178 783 1189 q 676 1168 720 1168 z "},"Ṍ":{"ha":1123,"x_min":90,"x_max":1033,"o":"m 562 -12 q 313 44 418 -12 q 149 219 207 101 q 90 514 90 337 q 149 809 90 691 q 314 983 208 926 q 562 1040 420 1040 q 810 983 705 1040 q 974 809 916 926 q 1033 514 1033 691 q 974 219 1033 337 q 809 44 915 101 q 562 -12 703 -12 m 562 64 q 841 173 740 64 q 942 510 942 281 q 841 854 942 744 q 562 964 740 964 q 282 856 383 964 q 181 517 181 747 q 282 173 181 283 q 562 64 383 64 m 517 1318 l 668 1479 l 774 1479 l 608 1318 l 517 1318 m 676 1168 q 618 1175 646 1168 q 551 1195 590 1182 q 493 1214 516 1208 q 446 1219 470 1219 q 376 1208 406 1219 q 318 1172 346 1197 l 318 1235 q 372 1267 340 1257 q 447 1278 403 1278 q 506 1271 478 1278 q 573 1251 533 1264 q 631 1232 608 1238 q 678 1226 653 1226 q 748 1238 718 1226 q 806 1274 778 1249 l 806 1211 q 752 1178 783 1189 q 676 1168 720 1168 z "},"Ṏ":{"ha":1123,"x_min":90,"x_max":1033,"o":"m 562 -12 q 313 44 418 -12 q 149 219 207 101 q 90 514 90 337 q 149 809 90 691 q 314 983 208 926 q 562 1040 420 1040 q 810 983 705 1040 q 974 809 916 926 q 1033 514 1033 691 q 974 219 1033 337 q 809 44 915 101 q 562 -12 703 -12 m 562 64 q 841 173 740 64 q 942 510 942 281 q 841 854 942 744 q 562 964 740 964 q 282 856 383 964 q 181 517 181 747 q 282 173 181 283 q 562 64 383 64 m 676 1168 q 618 1175 646 1168 q 551 1195 590 1182 q 493 1214 516 1208 q 446 1219 470 1219 q 376 1208 406 1219 q 318 1172 346 1197 l 318 1235 q 372 1267 340 1257 q 447 1278 403 1278 q 506 1271 478 1278 q 573 1251 533 1264 q 631 1232 608 1238 q 678 1226 653 1226 q 748 1238 718 1226 q 806 1274 778 1249 l 806 1211 q 752 1178 783 1189 q 676 1168 720 1168 m 378 1361 q 334 1376 350 1361 q 318 1416 318 1390 q 334 1456 318 1441 q 378 1472 350 1472 q 421 1456 405 1472 q 437 1416 437 1441 q 421 1376 437 1390 q 378 1361 406 1361 m 746 1361 q 702 1376 718 1361 q 687 1416 687 1390 q 703 1456 687 1441 q 746 1472 719 1472 q 790 1456 774 1472 q 806 1416 806 1441 q 790 1376 806 1390 q 746 1361 774 1361 z "},"Ȭ":{"ha":1123,"x_min":90,"x_max":1033,"o":"m 562 -12 q 313 44 418 -12 q 149 219 207 101 q 90 514 90 337 q 149 809 90 691 q 314 983 208 926 q 562 1040 420 1040 q 810 983 705 1040 q 974 809 916 926 q 1033 514 1033 691 q 974 219 1033 337 q 809 44 915 101 q 562 -12 703 -12 m 562 64 q 841 173 740 64 q 942 510 942 281 q 841 854 942 744 q 562 964 740 964 q 282 856 383 964 q 181 517 181 747 q 282 173 181 283 q 562 64 383 64 m 676 1168 q 618 1175 646 1168 q 551 1195 590 1182 q 493 1214 516 1208 q 446 1219 470 1219 q 376 1208 406 1219 q 318 1172 346 1197 l 318 1235 q 372 1267 340 1257 q 447 1278 403 1278 q 506 1271 478 1278 q 573 1251 533 1264 q 631 1232 608 1238 q 678 1226 653 1226 q 748 1238 718 1226 q 806 1274 778 1249 l 806 1211 q 752 1178 783 1189 q 676 1168 720 1168 m 340 1385 l 340 1445 l 784 1445 l 784 1385 l 340 1385 z "},"Œ":{"ha":1578,"x_min":90,"x_max":1506,"o":"m 1506 74 l 1506 0 l 915 0 q 851 -1 890 0 q 790 -3 811 -3 q 655 -8 696 -8 q 232 122 374 -8 q 90 514 90 251 q 232 906 90 775 q 648 1038 374 1038 q 776 1033 698 1038 q 831 1030 790 1032 q 903 1028 872 1028 l 1499 1028 l 1499 954 l 922 954 l 922 565 l 1428 565 l 1428 491 l 922 491 l 922 74 l 1506 74 m 835 951 q 640 962 740 962 q 296 851 412 962 q 181 513 181 741 q 296 178 181 287 q 640 69 411 69 q 835 76 774 69 l 835 951 z "},"P":{"ha":933,"x_min":142,"x_max":863,"o":"m 142 1009 q 285 1031 217 1024 q 430 1038 353 1038 q 753 955 644 1038 q 863 695 863 871 q 751 435 863 524 q 403 347 640 347 q 229 356 313 347 l 229 0 l 142 0 l 142 1009 m 403 418 q 618 449 536 418 q 738 540 700 479 q 775 694 775 601 q 691 901 775 835 q 435 967 606 967 q 229 949 324 967 l 229 430 q 403 418 315 418 z "},"Þ":{"ha":940,"x_min":142,"x_max":863,"o":"m 142 1029 l 229 1029 l 229 856 q 431 874 326 874 q 753 790 644 874 q 863 530 863 706 q 751 270 863 358 q 403 182 640 182 q 229 191 320 182 l 229 0 l 142 0 l 142 1029 m 403 253 q 618 284 536 253 q 738 375 700 315 q 775 529 775 436 q 691 736 775 669 q 435 802 606 802 q 229 785 324 802 l 229 265 q 403 253 318 253 z "},"Q":{"ha":1123,"x_min":90,"x_max":1033,"o":"m 1033 514 q 919 131 1033 265 q 590 -7 806 -2 q 789 -48 678 -31 q 1013 -72 899 -64 l 1001 -146 q 452 -35 649 -112 q 172 173 254 42 q 90 512 90 303 q 149 808 90 690 q 314 983 208 926 q 562 1040 420 1040 q 809 985 704 1040 q 974 811 915 929 q 1033 514 1033 694 m 181 517 q 282 173 181 283 q 562 64 382 64 q 841 173 740 64 q 942 510 942 281 q 841 854 942 744 q 562 964 740 964 q 282 856 383 964 q 181 517 181 747 z "},"R":{"ha":996,"x_min":142,"x_max":939,"o":"m 836 0 l 474 438 q 415 436 436 436 q 326 438 367 436 q 228 444 285 440 l 228 0 l 142 0 l 142 1008 q 284 1030 213 1022 q 440 1038 355 1038 q 680 1007 586 1038 q 819 911 773 976 q 865 740 865 845 q 567 447 865 492 l 939 0 l 836 0 m 228 517 q 323 510 285 512 q 419 508 360 508 q 626 533 547 508 q 743 609 706 558 q 781 738 781 660 q 746 873 781 823 q 638 945 711 923 q 442 967 564 967 q 330 962 378 967 q 228 948 283 958 l 228 517 z "},"Ŕ":{"ha":996,"x_min":142,"x_max":939,"o":"m 836 0 l 474 438 q 415 436 436 436 q 326 438 367 436 q 228 444 285 440 l 228 0 l 142 0 l 142 1008 q 284 1030 213 1022 q 440 1038 355 1038 q 680 1007 586 1038 q 819 911 773 976 q 865 740 865 845 q 567 447 865 492 l 939 0 l 836 0 m 228 517 q 323 510 285 512 q 419 508 360 508 q 626 533 547 508 q 743 609 706 558 q 781 738 781 660 q 746 873 781 823 q 638 945 711 923 q 442 967 564 967 q 330 962 378 967 q 228 948 283 958 l 228 517 m 440 1119 l 592 1313 l 692 1313 l 524 1119 l 440 1119 z "},"Ř":{"ha":996,"x_min":142,"x_max":939,"o":"m 836 0 l 474 438 q 415 436 436 436 q 326 438 367 436 q 228 444 285 440 l 228 0 l 142 0 l 142 1008 q 284 1030 213 1022 q 440 1038 355 1038 q 680 1007 586 1038 q 819 911 773 976 q 865 740 865 845 q 567 447 865 492 l 939 0 l 836 0 m 228 517 q 323 510 285 512 q 419 508 360 508 q 626 533 547 508 q 743 609 706 558 q 781 738 781 660 q 746 873 781 823 q 638 945 711 923 q 442 967 564 967 q 330 962 378 967 q 228 948 283 958 l 228 517 m 635 1313 l 726 1313 l 524 1119 l 441 1119 l 239 1313 l 330 1313 l 483 1163 l 635 1313 z "},"Ŗ":{"ha":996,"x_min":142,"x_max":939,"o":"m 836 0 l 474 438 q 415 436 436 436 q 326 438 367 436 q 228 444 285 440 l 228 0 l 142 0 l 142 1008 q 284 1030 213 1022 q 440 1038 355 1038 q 680 1007 586 1038 q 819 911 773 976 q 865 740 865 845 q 567 447 865 492 l 939 0 l 836 0 m 228 517 q 323 510 285 512 q 419 508 360 508 q 626 533 547 508 q 743 609 706 558 q 781 738 781 660 q 746 873 781 823 q 638 945 711 923 q 442 967 564 967 q 330 962 378 967 q 228 948 283 958 l 228 517 m 510 -120 q 557 -137 541 -120 q 573 -189 573 -155 q 564 -252 573 -217 q 538 -318 555 -287 l 484 -318 q 510 -222 507 -262 q 466 -207 482 -221 q 451 -170 451 -193 q 466 -134 451 -147 q 510 -120 482 -120 z "},"Ȑ":{"ha":996,"x_min":142,"x_max":939,"o":"m 836 0 l 474 438 q 415 436 436 436 q 326 438 367 436 q 228 444 285 440 l 228 0 l 142 0 l 142 1008 q 284 1030 213 1022 q 440 1038 355 1038 q 680 1007 586 1038 q 819 911 773 976 q 865 740 865 845 q 567 447 865 492 l 939 0 l 836 0 m 228 517 q 323 510 285 512 q 419 508 360 508 q 626 533 547 508 q 743 609 706 558 q 781 738 781 660 q 746 873 781 823 q 638 945 711 923 q 442 967 564 967 q 330 962 378 967 q 228 948 283 958 l 228 517 m 323 1119 l 207 1313 l 284 1313 l 395 1119 l 323 1119 m 570 1119 l 453 1313 l 531 1313 l 642 1119 l 570 1119 z "},"Ṛ":{"ha":996,"x_min":142,"x_max":939,"o":"m 836 0 l 474 438 q 415 436 436 436 q 326 438 367 436 q 228 444 285 440 l 228 0 l 142 0 l 142 1008 q 284 1030 213 1022 q 440 1038 355 1038 q 680 1007 586 1038 q 819 911 773 976 q 865 740 865 845 q 567 447 865 492 l 939 0 l 836 0 m 228 517 q 323 510 285 512 q 419 508 360 508 q 626 533 547 508 q 743 609 706 558 q 781 738 781 660 q 746 873 781 823 q 638 945 711 923 q 442 967 564 967 q 330 962 378 967 q 228 948 283 958 l 228 517 m 512 -231 q 465 -216 482 -231 q 449 -176 449 -201 q 465 -135 449 -150 q 512 -120 482 -120 q 558 -135 542 -120 q 575 -176 575 -150 q 558 -216 575 -201 q 512 -231 542 -231 z "},"Ȓ":{"ha":996,"x_min":142,"x_max":939,"o":"m 836 0 l 474 438 q 415 436 436 436 q 326 438 367 436 q 228 444 285 440 l 228 0 l 142 0 l 142 1008 q 284 1030 213 1022 q 440 1038 355 1038 q 680 1007 586 1038 q 819 911 773 976 q 865 740 865 845 q 567 447 865 492 l 939 0 l 836 0 m 228 517 q 323 510 285 512 q 419 508 360 508 q 626 533 547 508 q 743 609 706 558 q 781 738 781 660 q 746 873 781 823 q 638 945 711 923 q 442 967 564 967 q 330 962 378 967 q 228 948 283 958 l 228 517 m 243 1136 q 311 1259 252 1213 q 481 1306 369 1306 q 653 1259 593 1306 q 722 1136 713 1212 l 660 1136 q 609 1220 650 1190 q 481 1249 567 1249 q 356 1220 396 1249 q 306 1136 315 1190 l 243 1136 z "},"Ṟ":{"ha":996,"x_min":142,"x_max":939,"o":"m 836 0 l 474 438 q 415 436 436 436 q 326 438 367 436 q 228 444 285 440 l 228 0 l 142 0 l 142 1008 q 284 1030 213 1022 q 440 1038 355 1038 q 680 1007 586 1038 q 819 911 773 976 q 865 740 865 845 q 567 447 865 492 l 939 0 l 836 0 m 228 517 q 323 510 285 512 q 419 508 360 508 q 626 533 547 508 q 743 609 706 558 q 781 738 781 660 q 746 873 781 823 q 638 945 711 923 q 442 967 564 967 q 330 962 378 967 q 228 948 283 958 l 228 517 m 290 -206 l 290 -146 l 734 -146 l 734 -206 l 290 -206 z "},"S":{"ha":824,"x_min":67,"x_max":756,"o":"m 366 -12 q 221 -1 294 -12 q 82 33 148 10 l 82 109 q 226 74 153 85 q 367 63 300 63 q 667 271 667 63 q 642 366 667 328 q 564 428 617 404 q 420 471 510 453 l 363 482 q 139 578 210 511 q 67 758 67 646 q 110 909 67 846 q 239 1006 153 972 q 451 1040 325 1040 q 711 1003 592 1040 l 711 927 q 451 965 586 965 q 229 913 303 965 q 156 763 156 861 q 178 667 156 705 q 249 603 200 628 q 383 562 299 578 l 441 551 q 623 492 553 528 q 724 402 692 456 q 756 275 756 349 q 710 119 756 183 q 577 21 665 54 q 366 -12 490 -12 z "},"Ś":{"ha":824,"x_min":67,"x_max":756,"o":"m 366 -12 q 221 -1 294 -12 q 82 33 148 10 l 82 109 q 226 74 153 85 q 367 63 300 63 q 667 271 667 63 q 642 366 667 328 q 564 428 617 404 q 420 471 510 453 l 363 482 q 139 578 210 511 q 67 758 67 646 q 110 909 67 846 q 239 1006 153 972 q 451 1040 325 1040 q 711 1003 592 1040 l 711 927 q 451 965 586 965 q 229 913 303 965 q 156 763 156 861 q 178 667 156 705 q 249 603 200 628 q 383 562 299 578 l 441 551 q 623 492 553 528 q 724 402 692 456 q 756 275 756 349 q 710 119 756 183 q 577 21 665 54 q 366 -12 490 -12 m 375 1119 l 527 1313 l 626 1313 l 459 1119 l 375 1119 z "},"Ṥ":{"ha":824,"x_min":67,"x_max":756,"o":"m 366 -12 q 221 -1 294 -12 q 82 33 148 10 l 82 109 q 226 74 153 85 q 367 63 300 63 q 667 271 667 63 q 642 366 667 328 q 564 428 617 404 q 420 471 510 453 l 363 482 q 139 578 210 511 q 67 758 67 646 q 110 909 67 846 q 239 1006 153 972 q 451 1040 325 1040 q 711 1003 592 1040 l 711 927 q 451 965 586 965 q 229 913 303 965 q 156 763 156 861 q 178 667 156 705 q 249 603 200 628 q 383 562 299 578 l 441 551 q 623 492 553 528 q 724 402 692 456 q 756 275 756 349 q 710 119 756 183 q 577 21 665 54 q 366 -12 490 -12 m 364 1285 q 322 1299 337 1285 q 306 1336 306 1313 q 322 1374 306 1360 q 364 1388 338 1388 q 407 1374 391 1388 q 422 1336 422 1360 q 407 1299 422 1313 q 364 1285 391 1285 m 375 1119 l 527 1313 l 626 1313 l 459 1119 l 375 1119 z "},"Š":{"ha":824,"x_min":67,"x_max":756,"o":"m 366 -12 q 221 -1 294 -12 q 82 33 148 10 l 82 109 q 226 74 153 85 q 367 63 300 63 q 667 271 667 63 q 642 366 667 328 q 564 428 617 404 q 420 471 510 453 l 363 482 q 139 578 210 511 q 67 758 67 646 q 110 909 67 846 q 239 1006 153 972 q 451 1040 325 1040 q 711 1003 592 1040 l 711 927 q 451 965 586 965 q 229 913 303 965 q 156 763 156 861 q 178 667 156 705 q 249 603 200 628 q 383 562 299 578 l 441 551 q 623 492 553 528 q 724 402 692 456 q 756 275 756 349 q 710 119 756 183 q 577 21 665 54 q 366 -12 490 -12 m 570 1313 l 661 1313 l 459 1119 l 376 1119 l 174 1313 l 265 1313 l 417 1163 l 570 1313 z "},"Ṧ":{"ha":824,"x_min":67,"x_max":756,"o":"m 366 -12 q 221 -1 294 -12 q 82 33 148 10 l 82 109 q 226 74 153 85 q 367 63 300 63 q 667 271 667 63 q 642 366 667 328 q 564 428 617 404 q 420 471 510 453 l 363 482 q 139 578 210 511 q 67 758 67 646 q 110 909 67 846 q 239 1006 153 972 q 451 1040 325 1040 q 711 1003 592 1040 l 711 927 q 451 965 586 965 q 229 913 303 965 q 156 763 156 861 q 178 667 156 705 q 249 603 200 628 q 383 562 299 578 l 441 551 q 623 492 553 528 q 724 402 692 456 q 756 275 756 349 q 710 119 756 183 q 577 21 665 54 q 366 -12 490 -12 m 417 1317 q 375 1331 390 1317 q 360 1367 360 1344 q 375 1406 360 1391 q 417 1420 390 1420 q 460 1406 444 1420 q 475 1367 475 1391 q 460 1331 475 1344 q 417 1317 444 1317 m 570 1313 l 661 1313 l 459 1119 l 376 1119 l 174 1313 l 265 1313 l 417 1163 l 570 1313 z "},"Ş":{"ha":824,"x_min":67,"x_max":756,"o":"m 756 275 q 675 78 756 151 q 442 -9 593 6 l 442 -74 q 540 -103 505 -76 q 574 -178 574 -130 q 534 -257 574 -230 q 420 -283 493 -283 q 345 -276 383 -283 q 277 -257 308 -269 l 277 -208 q 418 -237 351 -237 q 519 -177 519 -237 q 493 -131 519 -145 q 417 -116 467 -116 l 388 -116 l 388 -12 l 366 -12 q 221 -1 294 -12 q 82 33 148 10 l 82 109 q 226 74 153 85 q 367 63 300 63 q 667 271 667 63 q 642 366 667 328 q 564 428 617 404 q 420 471 510 453 l 363 482 q 139 578 210 511 q 67 758 67 646 q 110 909 67 846 q 239 1006 153 972 q 451 1040 325 1040 q 711 1003 592 1040 l 711 927 q 451 965 586 965 q 229 913 303 965 q 156 763 156 861 q 178 667 156 705 q 249 603 200 628 q 383 562 299 578 l 441 551 q 623 492 553 528 q 724 402 692 456 q 756 275 756 349 z "},"Ŝ":{"ha":824,"x_min":67,"x_max":756,"o":"m 366 -12 q 221 -1 294 -12 q 82 33 148 10 l 82 109 q 226 74 153 85 q 367 63 300 63 q 667 271 667 63 q 642 366 667 328 q 564 428 617 404 q 420 471 510 453 l 363 482 q 139 578 210 511 q 67 758 67 646 q 110 909 67 846 q 239 1006 153 972 q 451 1040 325 1040 q 711 1003 592 1040 l 711 927 q 451 965 586 965 q 229 913 303 965 q 156 763 156 861 q 178 667 156 705 q 249 603 200 628 q 383 562 299 578 l 441 551 q 623 492 553 528 q 724 402 692 456 q 756 275 756 349 q 710 119 756 183 q 577 21 665 54 q 366 -12 490 -12 m 661 1119 l 570 1119 l 417 1269 l 265 1119 l 174 1119 l 376 1313 l 459 1313 l 661 1119 z "},"Ș":{"ha":824,"x_min":67,"x_max":756,"o":"m 366 -12 q 221 -1 294 -12 q 82 33 148 10 l 82 109 q 226 74 153 85 q 367 63 300 63 q 667 271 667 63 q 642 366 667 328 q 564 428 617 404 q 420 471 510 453 l 363 482 q 139 578 210 511 q 67 758 67 646 q 110 909 67 846 q 239 1006 153 972 q 451 1040 325 1040 q 711 1003 592 1040 l 711 927 q 451 965 586 965 q 229 913 303 965 q 156 763 156 861 q 178 667 156 705 q 249 603 200 628 q 383 562 299 578 l 441 551 q 623 492 553 528 q 724 402 692 456 q 756 275 756 349 q 710 119 756 183 q 577 21 665 54 q 366 -12 490 -12 m 415 -120 q 463 -137 447 -120 q 478 -189 478 -155 q 469 -252 478 -217 q 443 -318 460 -287 l 390 -318 q 415 -222 413 -262 q 372 -207 388 -221 q 356 -170 356 -193 q 372 -134 356 -147 q 415 -120 388 -120 z "},"Ṡ":{"ha":824,"x_min":67,"x_max":756,"o":"m 366 -12 q 221 -1 294 -12 q 82 33 148 10 l 82 109 q 226 74 153 85 q 367 63 300 63 q 667 271 667 63 q 642 366 667 328 q 564 428 617 404 q 420 471 510 453 l 363 482 q 139 578 210 511 q 67 758 67 646 q 110 909 67 846 q 239 1006 153 972 q 451 1040 325 1040 q 711 1003 592 1040 l 711 927 q 451 965 586 965 q 229 913 303 965 q 156 763 156 861 q 178 667 156 705 q 249 603 200 628 q 383 562 299 578 l 441 551 q 623 492 553 528 q 724 402 692 456 q 756 275 756 349 q 710 119 756 183 q 577 21 665 54 q 366 -12 490 -12 m 417 1162 q 371 1177 388 1162 q 354 1217 354 1192 q 371 1257 354 1242 q 417 1272 388 1272 q 464 1257 447 1272 q 481 1217 481 1242 q 464 1177 481 1192 q 417 1162 447 1162 z "},"Ṣ":{"ha":824,"x_min":67,"x_max":756,"o":"m 366 -12 q 221 -1 294 -12 q 82 33 148 10 l 82 109 q 226 74 153 85 q 367 63 300 63 q 667 271 667 63 q 642 366 667 328 q 564 428 617 404 q 420 471 510 453 l 363 482 q 139 578 210 511 q 67 758 67 646 q 110 909 67 846 q 239 1006 153 972 q 451 1040 325 1040 q 711 1003 592 1040 l 711 927 q 451 965 586 965 q 229 913 303 965 q 156 763 156 861 q 178 667 156 705 q 249 603 200 628 q 383 562 299 578 l 441 551 q 623 492 553 528 q 724 402 692 456 q 756 275 756 349 q 710 119 756 183 q 577 21 665 54 q 366 -12 490 -12 m 417 -231 q 371 -216 388 -231 q 354 -176 354 -201 q 371 -135 354 -150 q 417 -120 388 -120 q 464 -135 447 -120 q 481 -176 481 -150 q 464 -216 481 -201 q 417 -231 447 -231 z "},"Ṩ":{"ha":824,"x_min":67,"x_max":756,"o":"m 366 -12 q 221 -1 294 -12 q 82 33 148 10 l 82 109 q 226 74 153 85 q 367 63 300 63 q 667 271 667 63 q 642 366 667 328 q 564 428 617 404 q 420 471 510 453 l 363 482 q 139 578 210 511 q 67 758 67 646 q 110 909 67 846 q 239 1006 153 972 q 451 1040 325 1040 q 711 1003 592 1040 l 711 927 q 451 965 586 965 q 229 913 303 965 q 156 763 156 861 q 178 667 156 705 q 249 603 200 628 q 383 562 299 578 l 441 551 q 623 492 553 528 q 724 402 692 456 q 756 275 756 349 q 710 119 756 183 q 577 21 665 54 q 366 -12 490 -12 m 417 -231 q 371 -216 388 -231 q 354 -176 354 -201 q 371 -135 354 -150 q 417 -120 388 -120 q 464 -135 447 -120 q 481 -176 481 -150 q 464 -216 481 -201 q 417 -231 447 -231 m 417 1162 q 371 1177 388 1162 q 354 1217 354 1192 q 371 1257 354 1242 q 417 1272 388 1272 q 464 1257 447 1272 q 481 1217 481 1242 q 464 1177 481 1192 q 417 1162 447 1162 z "},"ẞ":{"ha":1311,"x_min":142,"x_max":1244,"o":"m 931 551 q 1112 492 1043 528 q 1213 402 1181 456 q 1244 275 1244 349 q 1199 119 1244 183 q 1066 21 1153 54 q 856 -12 979 -12 q 714 -1 787 -12 q 576 32 642 10 l 576 108 q 719 74 647 85 q 857 63 792 63 q 1156 271 1156 63 q 1132 366 1156 328 q 1054 428 1107 404 q 911 471 1001 453 l 855 482 q 632 579 703 512 q 561 758 561 647 q 647 957 561 884 q 548 965 601 965 q 307 887 384 965 q 229 640 229 809 l 229 0 l 142 0 l 142 628 q 241 941 142 841 q 548 1040 340 1040 q 740 1010 662 1040 q 943 1040 824 1040 q 1199 1004 1081 1040 l 1199 928 q 943 965 1074 965 q 722 913 796 965 q 649 763 649 861 q 670 667 649 705 q 742 603 692 628 q 875 562 791 578 l 931 551 z "},"Ə":{"ha":1121,"x_min":83,"x_max":1031,"o":"m 450 1040 q 880 911 730 1040 q 1031 510 1031 782 q 973 215 1031 332 q 811 43 915 99 q 567 -12 708 -12 q 310 42 419 -12 q 143 212 202 97 q 83 502 83 327 l 83 551 l 942 551 q 804 866 930 767 q 448 965 678 965 q 294 956 375 965 q 142 928 214 947 l 142 1004 q 450 1040 283 1040 m 567 62 q 837 162 738 62 q 942 480 935 263 l 174 480 q 282 162 181 263 q 567 62 384 62 z "},"T":{"ha":892,"x_min":14,"x_max":878,"o":"m 403 0 l 403 952 l 14 952 l 14 1028 l 878 1028 l 878 952 l 490 952 l 490 0 l 403 0 z "},"Ŧ":{"ha":892,"x_min":14,"x_max":878,"o":"m 878 952 l 490 952 l 490 578 l 747 578 l 747 514 l 490 514 l 490 0 l 403 0 l 403 514 l 144 514 l 144 578 l 403 578 l 403 952 l 14 952 l 14 1028 l 878 1028 l 878 952 z "},"Ť":{"ha":892,"x_min":14,"x_max":878,"o":"m 403 0 l 403 952 l 14 952 l 14 1028 l 878 1028 l 878 952 l 490 952 l 490 0 l 403 0 m 599 1313 l 690 1313 l 488 1119 l 404 1119 l 202 1313 l 293 1313 l 446 1163 l 599 1313 z "},"Ţ":{"ha":892,"x_min":14,"x_max":878,"o":"m 470 0 l 470 -74 q 568 -103 533 -76 q 603 -178 603 -130 q 562 -257 603 -230 q 449 -283 522 -283 q 374 -276 411 -283 q 306 -257 336 -269 l 306 -208 q 447 -237 379 -237 q 547 -177 547 -237 q 522 -131 547 -145 q 445 -116 496 -116 l 417 -116 l 417 0 l 403 0 l 403 952 l 14 952 l 14 1028 l 878 1028 l 878 952 l 490 952 l 490 0 l 470 0 z "},"Ț":{"ha":892,"x_min":14,"x_max":878,"o":"m 403 0 l 403 952 l 14 952 l 14 1028 l 878 1028 l 878 952 l 490 952 l 490 0 l 403 0 m 444 -120 q 491 -137 475 -120 q 507 -189 507 -155 q 498 -252 507 -217 q 472 -318 489 -287 l 418 -318 q 444 -222 441 -262 q 400 -207 416 -221 q 385 -170 385 -193 q 400 -134 385 -147 q 444 -120 416 -120 z "},"Ṭ":{"ha":892,"x_min":14,"x_max":878,"o":"m 403 0 l 403 952 l 14 952 l 14 1028 l 878 1028 l 878 952 l 490 952 l 490 0 l 403 0 m 446 -231 q 399 -216 416 -231 q 383 -176 383 -201 q 399 -135 383 -150 q 446 -120 416 -120 q 492 -135 476 -120 q 509 -176 509 -150 q 492 -216 509 -201 q 446 -231 476 -231 z "},"Ṯ":{"ha":892,"x_min":14,"x_max":878,"o":"m 403 0 l 403 952 l 14 952 l 14 1028 l 878 1028 l 878 952 l 490 952 l 490 0 l 403 0 m 224 -206 l 224 -146 l 668 -146 l 668 -206 l 224 -206 z "},"U":{"ha":1094,"x_min":136,"x_max":958,"o":"m 548 -12 q 316 32 407 -12 q 181 168 225 76 q 136 406 136 260 l 136 1028 l 224 1028 l 224 396 q 259 206 224 279 q 365 99 294 133 q 548 64 436 64 q 731 99 660 64 q 838 206 803 133 q 873 396 873 279 l 873 1028 l 958 1028 l 958 406 q 914 168 958 260 q 780 32 870 76 q 548 -12 689 -12 z "},"Ú":{"ha":1094,"x_min":136,"x_max":958,"o":"m 548 -12 q 316 32 407 -12 q 181 168 225 76 q 136 406 136 260 l 136 1028 l 224 1028 l 224 396 q 259 206 224 279 q 365 99 294 133 q 548 64 436 64 q 731 99 660 64 q 838 206 803 133 q 873 396 873 279 l 873 1028 l 958 1028 l 958 406 q 914 168 958 260 q 780 32 870 76 q 548 -12 689 -12 m 506 1119 l 658 1313 l 757 1313 l 590 1119 l 506 1119 z "},"Ŭ":{"ha":1094,"x_min":136,"x_max":958,"o":"m 548 -12 q 316 32 407 -12 q 181 168 225 76 q 136 406 136 260 l 136 1028 l 224 1028 l 224 396 q 259 206 224 279 q 365 99 294 133 q 548 64 436 64 q 731 99 660 64 q 838 206 803 133 q 873 396 873 279 l 873 1028 l 958 1028 l 958 406 q 914 168 958 260 q 780 32 870 76 q 548 -12 689 -12 m 549 1126 q 377 1173 438 1126 q 308 1296 317 1220 l 371 1296 q 422 1212 381 1242 q 549 1183 463 1183 q 675 1212 635 1183 q 725 1296 715 1242 l 788 1296 q 720 1173 778 1219 q 549 1126 661 1126 z "},"Û":{"ha":1094,"x_min":136,"x_max":958,"o":"m 548 -12 q 316 32 407 -12 q 181 168 225 76 q 136 406 136 260 l 136 1028 l 224 1028 l 224 396 q 259 206 224 279 q 365 99 294 133 q 548 64 436 64 q 731 99 660 64 q 838 206 803 133 q 873 396 873 279 l 873 1028 l 958 1028 l 958 406 q 914 168 958 260 q 780 32 870 76 q 548 -12 689 -12 m 792 1119 l 701 1119 l 548 1269 l 395 1119 l 304 1119 l 506 1313 l 590 1313 l 792 1119 z "},"Ȕ":{"ha":1094,"x_min":136,"x_max":958,"o":"m 548 -12 q 316 32 407 -12 q 181 168 225 76 q 136 406 136 260 l 136 1028 l 224 1028 l 224 396 q 259 206 224 279 q 365 99 294 133 q 548 64 436 64 q 731 99 660 64 q 838 206 803 133 q 873 396 873 279 l 873 1028 l 958 1028 l 958 406 q 914 168 958 260 q 780 32 870 76 q 548 -12 689 -12 m 388 1119 l 272 1313 l 349 1313 l 460 1119 l 388 1119 m 635 1119 l 519 1313 l 596 1313 l 708 1119 l 635 1119 z "},"Ü":{"ha":1094,"x_min":136,"x_max":958,"o":"m 548 -12 q 316 32 407 -12 q 181 168 225 76 q 136 406 136 260 l 136 1028 l 224 1028 l 224 396 q 259 206 224 279 q 365 99 294 133 q 548 64 436 64 q 731 99 660 64 q 838 206 803 133 q 873 396 873 279 l 873 1028 l 958 1028 l 958 406 q 914 168 958 260 q 780 32 870 76 q 548 -12 689 -12 m 364 1162 q 320 1176 336 1162 q 304 1217 304 1191 q 320 1257 304 1242 q 364 1272 336 1272 q 407 1257 391 1272 q 423 1217 423 1242 q 407 1176 423 1191 q 364 1162 392 1162 m 732 1162 q 689 1176 704 1162 q 673 1217 673 1191 q 689 1257 673 1242 q 732 1272 705 1272 q 776 1257 760 1272 q 792 1217 792 1242 q 776 1176 792 1191 q 732 1162 760 1162 z "},"Ụ":{"ha":1094,"x_min":136,"x_max":958,"o":"m 548 -12 q 316 32 407 -12 q 181 168 225 76 q 136 406 136 260 l 136 1028 l 224 1028 l 224 396 q 259 206 224 279 q 365 99 294 133 q 548 64 436 64 q 731 99 660 64 q 838 206 803 133 q 873 396 873 279 l 873 1028 l 958 1028 l 958 406 q 914 168 958 260 q 780 32 870 76 q 548 -12 689 -12 m 548 -231 q 501 -216 518 -231 q 485 -176 485 -201 q 501 -135 485 -150 q 548 -120 518 -120 q 594 -135 578 -120 q 611 -176 611 -150 q 594 -216 611 -201 q 548 -231 578 -231 z "},"Ù":{"ha":1094,"x_min":136,"x_max":958,"o":"m 548 -12 q 316 32 407 -12 q 181 168 225 76 q 136 406 136 260 l 136 1028 l 224 1028 l 224 396 q 259 206 224 279 q 365 99 294 133 q 548 64 436 64 q 731 99 660 64 q 838 206 803 133 q 873 396 873 279 l 873 1028 l 958 1028 l 958 406 q 914 168 958 260 q 780 32 870 76 q 548 -12 689 -12 m 506 1119 l 338 1313 l 438 1313 l 590 1119 l 506 1119 z "},"Ủ":{"ha":1094,"x_min":136,"x_max":958,"o":"m 548 -12 q 316 32 407 -12 q 181 168 225 76 q 136 406 136 260 l 136 1028 l 224 1028 l 224 396 q 259 206 224 279 q 365 99 294 133 q 548 64 436 64 q 731 99 660 64 q 838 206 803 133 q 873 396 873 279 l 873 1028 l 958 1028 l 958 406 q 914 168 958 260 q 780 32 870 76 q 548 -12 689 -12 m 517 1119 q 529 1153 518 1140 q 555 1174 540 1167 q 593 1192 569 1182 q 633 1211 621 1203 q 645 1233 645 1219 q 625 1259 645 1250 q 556 1268 605 1268 q 481 1263 514 1268 q 407 1244 448 1258 l 407 1292 q 559 1315 472 1315 q 666 1294 631 1315 q 701 1236 701 1273 q 684 1194 701 1208 q 633 1166 666 1179 q 593 1145 606 1154 q 578 1119 580 1135 l 517 1119 z "},"Ư":{"ha":1094,"x_min":136,"x_max":1127,"o":"m 548 -12 q 316 32 407 -12 q 181 168 225 76 q 136 406 136 260 l 136 1028 l 224 1028 l 224 396 q 259 206 224 279 q 365 99 294 133 q 548 64 436 64 q 731 99 660 64 q 838 206 803 133 q 873 396 873 279 l 873 1028 l 906 1028 q 1021 1053 983 1028 q 1059 1135 1059 1079 q 1055 1183 1059 1160 q 1042 1233 1051 1206 l 1110 1233 q 1123 1185 1119 1208 q 1127 1133 1127 1162 q 1083 1021 1127 1063 q 958 973 1040 979 l 958 406 q 914 168 958 260 q 780 32 870 76 q 548 -12 689 -12 z "},"Ứ":{"ha":1094,"x_min":136,"x_max":1127,"o":"m 548 -12 q 316 32 407 -12 q 181 168 225 76 q 136 406 136 260 l 136 1028 l 224 1028 l 224 396 q 259 206 224 279 q 365 99 294 133 q 548 64 436 64 q 731 99 660 64 q 838 206 803 133 q 873 396 873 279 l 873 1028 l 906 1028 q 1021 1053 983 1028 q 1059 1135 1059 1079 q 1055 1183 1059 1160 q 1042 1233 1051 1206 l 1110 1233 q 1123 1185 1119 1208 q 1127 1133 1127 1162 q 1083 1021 1127 1063 q 958 973 1040 979 l 958 406 q 914 168 958 260 q 780 32 870 76 q 548 -12 689 -12 m 506 1119 l 658 1313 l 757 1313 l 590 1119 l 506 1119 z "},"Ự":{"ha":1094,"x_min":136,"x_max":1127,"o":"m 548 -12 q 316 32 407 -12 q 181 168 225 76 q 136 406 136 260 l 136 1028 l 224 1028 l 224 396 q 259 206 224 279 q 365 99 294 133 q 548 64 436 64 q 731 99 660 64 q 838 206 803 133 q 873 396 873 279 l 873 1028 l 906 1028 q 1021 1053 983 1028 q 1059 1135 1059 1079 q 1055 1183 1059 1160 q 1042 1233 1051 1206 l 1110 1233 q 1123 1185 1119 1208 q 1127 1133 1127 1162 q 1083 1021 1127 1063 q 958 973 1040 979 l 958 406 q 914 168 958 260 q 780 32 870 76 q 548 -12 689 -12 m 548 -231 q 501 -216 518 -231 q 485 -176 485 -201 q 501 -135 485 -150 q 548 -120 518 -120 q 594 -135 578 -120 q 611 -176 611 -150 q 594 -216 611 -201 q 548 -231 578 -231 z "},"Ừ":{"ha":1094,"x_min":136,"x_max":1127,"o":"m 548 -12 q 316 32 407 -12 q 181 168 225 76 q 136 406 136 260 l 136 1028 l 224 1028 l 224 396 q 259 206 224 279 q 365 99 294 133 q 548 64 436 64 q 731 99 660 64 q 838 206 803 133 q 873 396 873 279 l 873 1028 l 906 1028 q 1021 1053 983 1028 q 1059 1135 1059 1079 q 1055 1183 1059 1160 q 1042 1233 1051 1206 l 1110 1233 q 1123 1185 1119 1208 q 1127 1133 1127 1162 q 1083 1021 1127 1063 q 958 973 1040 979 l 958 406 q 914 168 958 260 q 780 32 870 76 q 548 -12 689 -12 m 506 1119 l 338 1313 l 438 1313 l 590 1119 l 506 1119 z "},"Ử":{"ha":1094,"x_min":136,"x_max":1127,"o":"m 548 -12 q 316 32 407 -12 q 181 168 225 76 q 136 406 136 260 l 136 1028 l 224 1028 l 224 396 q 259 206 224 279 q 365 99 294 133 q 548 64 436 64 q 731 99 660 64 q 838 206 803 133 q 873 396 873 279 l 873 1028 l 906 1028 q 1021 1053 983 1028 q 1059 1135 1059 1079 q 1055 1183 1059 1160 q 1042 1233 1051 1206 l 1110 1233 q 1123 1185 1119 1208 q 1127 1133 1127 1162 q 1083 1021 1127 1063 q 958 973 1040 979 l 958 406 q 914 168 958 260 q 780 32 870 76 q 548 -12 689 -12 m 517 1119 q 529 1153 518 1140 q 555 1174 540 1167 q 593 1192 569 1182 q 633 1211 621 1203 q 645 1233 645 1219 q 625 1259 645 1250 q 556 1268 605 1268 q 481 1263 514 1268 q 407 1244 448 1258 l 407 1292 q 559 1315 472 1315 q 666 1294 631 1315 q 701 1236 701 1273 q 684 1194 701 1208 q 633 1166 666 1179 q 593 1145 606 1154 q 578 1119 580 1135 l 517 1119 z "},"Ữ":{"ha":1094,"x_min":136,"x_max":1127,"o":"m 548 -12 q 316 32 407 -12 q 181 168 225 76 q 136 406 136 260 l 136 1028 l 224 1028 l 224 396 q 259 206 224 279 q 365 99 294 133 q 548 64 436 64 q 731 99 660 64 q 838 206 803 133 q 873 396 873 279 l 873 1028 l 906 1028 q 1021 1053 983 1028 q 1059 1135 1059 1079 q 1055 1183 1059 1160 q 1042 1233 1051 1206 l 1110 1233 q 1123 1185 1119 1208 q 1127 1133 1127 1162 q 1083 1021 1127 1063 q 958 973 1040 979 l 958 406 q 914 168 958 260 q 780 32 870 76 q 548 -12 689 -12 m 663 1168 q 604 1175 632 1168 q 537 1195 576 1182 q 479 1214 502 1208 q 432 1219 456 1219 q 362 1208 392 1219 q 304 1172 332 1197 l 304 1235 q 358 1267 326 1257 q 433 1278 390 1278 q 492 1271 464 1278 q 559 1251 519 1264 q 617 1232 594 1238 q 664 1226 640 1226 q 734 1238 704 1226 q 792 1274 764 1249 l 792 1211 q 738 1178 769 1189 q 663 1168 706 1168 z "},"Ű":{"ha":1094,"x_min":136,"x_max":958,"o":"m 548 -12 q 316 32 407 -12 q 181 168 225 76 q 136 406 136 260 l 136 1028 l 224 1028 l 224 396 q 259 206 224 279 q 365 99 294 133 q 548 64 436 64 q 731 99 660 64 q 838 206 803 133 q 873 396 873 279 l 873 1028 l 958 1028 l 958 406 q 914 168 958 260 q 780 32 870 76 q 548 -12 689 -12 m 388 1119 l 500 1313 l 577 1313 l 460 1119 l 388 1119 m 635 1119 l 747 1313 l 824 1313 l 708 1119 l 635 1119 z "},"Ȗ":{"ha":1094,"x_min":136,"x_max":958,"o":"m 548 -12 q 316 32 407 -12 q 181 168 225 76 q 136 406 136 260 l 136 1028 l 224 1028 l 224 396 q 259 206 224 279 q 365 99 294 133 q 548 64 436 64 q 731 99 660 64 q 838 206 803 133 q 873 396 873 279 l 873 1028 l 958 1028 l 958 406 q 914 168 958 260 q 780 32 870 76 q 548 -12 689 -12 m 308 1136 q 376 1259 317 1213 q 547 1306 435 1306 q 718 1259 658 1306 q 788 1136 778 1212 l 725 1136 q 674 1220 715 1190 q 547 1249 633 1249 q 421 1220 461 1249 q 371 1136 381 1190 l 308 1136 z "},"Ū":{"ha":1094,"x_min":136,"x_max":958,"o":"m 548 -12 q 316 32 407 -12 q 181 168 225 76 q 136 406 136 260 l 136 1028 l 224 1028 l 224 396 q 259 206 224 279 q 365 99 294 133 q 548 64 436 64 q 731 99 660 64 q 838 206 803 133 q 873 396 873 279 l 873 1028 l 958 1028 l 958 406 q 914 168 958 260 q 780 32 870 76 q 548 -12 689 -12 m 326 1186 l 326 1246 l 770 1246 l 770 1186 l 326 1186 z "},"Ṻ":{"ha":1094,"x_min":136,"x_max":958,"o":"m 548 -12 q 316 32 407 -12 q 181 168 225 76 q 136 406 136 260 l 136 1028 l 224 1028 l 224 396 q 259 206 224 279 q 365 99 294 133 q 548 64 436 64 q 731 99 660 64 q 838 206 803 133 q 873 396 873 279 l 873 1028 l 958 1028 l 958 406 q 914 168 958 260 q 780 32 870 76 q 548 -12 689 -12 m 326 1186 l 326 1246 l 770 1246 l 770 1186 l 326 1186 m 364 1361 q 320 1376 336 1361 q 304 1416 304 1390 q 320 1456 304 1441 q 364 1472 336 1472 q 407 1456 391 1472 q 423 1416 423 1441 q 407 1376 423 1390 q 364 1361 392 1361 m 732 1361 q 689 1376 704 1361 q 673 1416 673 1390 q 689 1456 673 1441 q 732 1472 705 1472 q 776 1456 760 1472 q 792 1416 792 1441 q 776 1376 792 1390 q 732 1361 760 1361 z "},"Ų":{"ha":1094,"x_min":136,"x_max":958,"o":"m 958 1028 l 958 406 q 897 136 958 234 q 705 5 835 38 q 558 -60 604 -22 q 513 -151 513 -99 q 540 -212 513 -191 q 622 -234 568 -234 q 680 -227 651 -234 q 750 -206 709 -221 l 750 -254 q 617 -281 683 -281 q 495 -248 537 -281 q 453 -153 453 -215 q 477 -76 453 -112 q 550 -12 500 -39 l 548 -12 q 316 32 407 -12 q 181 168 225 76 q 136 406 136 260 l 136 1028 l 224 1028 l 224 396 q 259 206 224 279 q 365 99 294 133 q 548 64 436 64 q 731 99 660 64 q 838 206 803 133 q 873 396 873 279 l 873 1028 l 958 1028 z "},"Ů":{"ha":1094,"x_min":136,"x_max":958,"o":"m 548 -12 q 316 32 407 -12 q 181 168 225 76 q 136 406 136 260 l 136 1028 l 224 1028 l 224 396 q 259 206 224 279 q 365 99 294 133 q 548 64 436 64 q 731 99 660 64 q 838 206 803 133 q 873 396 873 279 l 873 1028 l 958 1028 l 958 406 q 914 168 958 260 q 780 32 870 76 q 548 -12 689 -12 m 548 1115 q 480 1132 510 1115 q 433 1179 450 1149 q 416 1247 416 1209 q 433 1314 416 1284 q 480 1361 450 1344 q 548 1378 510 1378 q 616 1361 585 1378 q 663 1314 646 1344 q 680 1247 680 1284 q 663 1179 680 1209 q 616 1132 646 1149 q 548 1115 585 1115 m 548 1160 q 610 1183 586 1160 q 633 1247 633 1207 q 610 1310 633 1287 q 548 1333 586 1333 q 486 1310 510 1333 q 463 1247 463 1287 q 486 1183 463 1207 q 548 1160 510 1160 z "},"Ũ":{"ha":1094,"x_min":136,"x_max":958,"o":"m 548 -12 q 316 32 407 -12 q 181 168 225 76 q 136 406 136 260 l 136 1028 l 224 1028 l 224 396 q 259 206 224 279 q 365 99 294 133 q 548 64 436 64 q 731 99 660 64 q 838 206 803 133 q 873 396 873 279 l 873 1028 l 958 1028 l 958 406 q 914 168 958 260 q 780 32 870 76 q 548 -12 689 -12 m 663 1168 q 604 1175 632 1168 q 537 1195 576 1182 q 479 1214 502 1208 q 432 1219 456 1219 q 362 1208 392 1219 q 304 1172 332 1197 l 304 1235 q 358 1267 326 1257 q 433 1278 390 1278 q 492 1271 464 1278 q 559 1251 519 1264 q 617 1232 594 1238 q 664 1226 640 1226 q 734 1238 704 1226 q 792 1274 764 1249 l 792 1211 q 738 1178 769 1189 q 663 1168 706 1168 z "},"Ṹ":{"ha":1094,"x_min":136,"x_max":958,"o":"m 548 -12 q 316 32 407 -12 q 181 168 225 76 q 136 406 136 260 l 136 1028 l 224 1028 l 224 396 q 259 206 224 279 q 365 99 294 133 q 548 64 436 64 q 731 99 660 64 q 838 206 803 133 q 873 396 873 279 l 873 1028 l 958 1028 l 958 406 q 914 168 958 260 q 780 32 870 76 q 548 -12 689 -12 m 503 1318 l 654 1479 l 760 1479 l 594 1318 l 503 1318 m 663 1168 q 604 1175 632 1168 q 537 1195 576 1182 q 479 1214 502 1208 q 432 1219 456 1219 q 362 1208 392 1219 q 304 1172 332 1197 l 304 1235 q 358 1267 326 1257 q 433 1278 390 1278 q 492 1271 464 1278 q 559 1251 519 1264 q 617 1232 594 1238 q 664 1226 640 1226 q 734 1238 704 1226 q 792 1274 764 1249 l 792 1211 q 738 1178 769 1189 q 663 1168 706 1168 z "},"V":{"ha":1002,"x_min":15,"x_max":987,"o":"m 898 1028 l 987 1028 l 563 0 l 439 0 l 15 1028 l 110 1028 l 504 69 l 898 1028 z "},"W":{"ha":1624,"x_min":51,"x_max":1571,"o":"m 1485 1028 l 1571 1028 l 1238 0 l 1123 0 l 812 939 l 501 0 l 385 0 l 51 1028 l 142 1028 l 447 78 l 759 1028 l 867 1028 l 1178 76 l 1485 1028 z "},"Ẃ":{"ha":1624,"x_min":51,"x_max":1571,"o":"m 1485 1028 l 1571 1028 l 1238 0 l 1123 0 l 812 939 l 501 0 l 385 0 l 51 1028 l 142 1028 l 447 78 l 759 1028 l 867 1028 l 1178 76 l 1485 1028 m 770 1119 l 922 1313 l 1022 1313 l 854 1119 l 770 1119 z "},"Ŵ":{"ha":1624,"x_min":51,"x_max":1571,"o":"m 1485 1028 l 1571 1028 l 1238 0 l 1123 0 l 812 939 l 501 0 l 385 0 l 51 1028 l 142 1028 l 447 78 l 759 1028 l 867 1028 l 1178 76 l 1485 1028 m 1056 1119 l 965 1119 l 813 1269 l 660 1119 l 569 1119 l 771 1313 l 854 1313 l 1056 1119 z "},"Ẅ":{"ha":1624,"x_min":51,"x_max":1571,"o":"m 1485 1028 l 1571 1028 l 1238 0 l 1123 0 l 812 939 l 501 0 l 385 0 l 51 1028 l 142 1028 l 447 78 l 759 1028 l 867 1028 l 1178 76 l 1485 1028 m 628 1162 q 585 1176 601 1162 q 569 1217 569 1191 q 585 1257 569 1242 q 628 1272 601 1272 q 672 1257 656 1272 q 688 1217 688 1242 q 672 1176 688 1191 q 628 1162 656 1162 m 997 1162 q 953 1176 969 1162 q 938 1217 938 1191 q 953 1257 938 1242 q 997 1272 969 1272 q 1040 1257 1024 1272 q 1056 1217 1056 1242 q 1040 1176 1056 1191 q 997 1162 1024 1162 z "},"Ẁ":{"ha":1624,"x_min":51,"x_max":1571,"o":"m 1485 1028 l 1571 1028 l 1238 0 l 1123 0 l 812 939 l 501 0 l 385 0 l 51 1028 l 142 1028 l 447 78 l 759 1028 l 867 1028 l 1178 76 l 1485 1028 m 770 1119 l 603 1313 l 702 1313 l 855 1119 l 770 1119 z "},"X":{"ha":972,"x_min":16,"x_max":955,"o":"m 538 523 l 955 0 l 849 0 l 484 459 l 119 0 l 16 0 l 432 521 l 26 1028 l 132 1028 l 486 585 l 842 1028 l 943 1028 l 538 523 z "},"Y":{"ha":892,"x_min":-15,"x_max":901,"o":"m 901 1028 l 490 463 l 490 0 l 403 0 l 403 463 l -15 1028 l 86 1028 l 448 538 l 805 1028 l 901 1028 z "},"Ý":{"ha":892,"x_min":-15,"x_max":901,"o":"m 901 1028 l 490 463 l 490 0 l 403 0 l 403 463 l -15 1028 l 86 1028 l 448 538 l 805 1028 l 901 1028 m 403 1119 l 556 1313 l 655 1313 l 488 1119 l 403 1119 z "},"Ŷ":{"ha":892,"x_min":-15,"x_max":901,"o":"m 901 1028 l 490 463 l 490 0 l 403 0 l 403 463 l -15 1028 l 86 1028 l 448 538 l 805 1028 l 901 1028 m 690 1119 l 599 1119 l 446 1269 l 293 1119 l 202 1119 l 404 1313 l 488 1313 l 690 1119 z "},"Ÿ":{"ha":892,"x_min":-15,"x_max":901,"o":"m 901 1028 l 490 463 l 490 0 l 403 0 l 403 463 l -15 1028 l 86 1028 l 448 538 l 805 1028 l 901 1028 m 262 1162 q 218 1176 234 1162 q 202 1217 202 1191 q 218 1257 202 1242 q 262 1272 234 1272 q 305 1257 289 1272 q 321 1217 321 1242 q 305 1176 321 1191 q 262 1162 290 1162 m 630 1162 q 586 1176 602 1162 q 571 1217 571 1191 q 587 1257 571 1242 q 630 1272 603 1272 q 674 1257 658 1272 q 690 1217 690 1242 q 674 1176 690 1191 q 630 1162 658 1162 z "},"Ẏ":{"ha":892,"x_min":-15,"x_max":901,"o":"m 901 1028 l 490 463 l 490 0 l 403 0 l 403 463 l -15 1028 l 86 1028 l 448 538 l 805 1028 l 901 1028 m 446 1162 q 399 1177 416 1162 q 383 1217 383 1192 q 399 1257 383 1242 q 446 1272 416 1272 q 492 1257 476 1272 q 509 1217 509 1242 q 492 1177 509 1192 q 446 1162 476 1162 z "},"Ỵ":{"ha":892,"x_min":-15,"x_max":901,"o":"m 901 1028 l 490 463 l 490 0 l 403 0 l 403 463 l -15 1028 l 86 1028 l 448 538 l 805 1028 l 901 1028 m 446 -231 q 399 -216 416 -231 q 383 -176 383 -201 q 399 -135 383 -150 q 446 -120 416 -120 q 492 -135 476 -120 q 509 -176 509 -150 q 492 -216 509 -201 q 446 -231 476 -231 z "},"Ỳ":{"ha":892,"x_min":-15,"x_max":901,"o":"m 901 1028 l 490 463 l 490 0 l 403 0 l 403 463 l -15 1028 l 86 1028 l 448 538 l 805 1028 l 901 1028 m 403 1119 l 236 1313 l 335 1313 l 488 1119 l 403 1119 z "},"Ỷ":{"ha":892,"x_min":-15,"x_max":901,"o":"m 901 1028 l 490 463 l 490 0 l 403 0 l 403 463 l -15 1028 l 86 1028 l 448 538 l 805 1028 l 901 1028 m 415 1119 q 427 1153 416 1140 q 452 1174 438 1167 q 491 1192 467 1182 q 531 1211 519 1203 q 543 1233 543 1219 q 523 1259 543 1250 q 454 1268 503 1268 q 379 1263 412 1268 q 305 1244 346 1258 l 305 1292 q 457 1315 370 1315 q 564 1294 529 1315 q 599 1236 599 1273 q 582 1194 599 1208 q 531 1166 564 1179 q 491 1145 503 1154 q 476 1119 478 1135 l 415 1119 z "},"Ȳ":{"ha":892,"x_min":-15,"x_max":901,"o":"m 901 1028 l 490 463 l 490 0 l 403 0 l 403 463 l -15 1028 l 86 1028 l 448 538 l 805 1028 l 901 1028 m 224 1186 l 224 1246 l 668 1246 l 668 1186 l 224 1186 z "},"Ỹ":{"ha":892,"x_min":-15,"x_max":901,"o":"m 901 1028 l 490 463 l 490 0 l 403 0 l 403 463 l -15 1028 l 86 1028 l 448 538 l 805 1028 l 901 1028 m 560 1168 q 502 1175 530 1168 q 435 1195 474 1182 q 377 1214 400 1208 q 330 1219 354 1219 q 260 1208 290 1219 q 202 1172 230 1197 l 202 1235 q 256 1267 224 1257 q 331 1278 288 1278 q 390 1271 362 1278 q 457 1251 417 1264 q 515 1232 492 1238 q 562 1226 538 1226 q 632 1238 602 1226 q 690 1274 662 1249 l 690 1211 q 636 1178 667 1189 q 560 1168 604 1168 z "},"Z":{"ha":894,"x_min":50,"x_max":844,"o":"m 169 74 l 844 74 l 844 0 l 50 0 l 50 49 l 716 953 l 59 953 l 59 1028 l 835 1028 l 835 979 l 169 74 z "},"Ź":{"ha":894,"x_min":50,"x_max":844,"o":"m 169 74 l 844 74 l 844 0 l 50 0 l 50 49 l 716 953 l 59 953 l 59 1028 l 835 1028 l 835 979 l 169 74 m 405 1119 l 557 1313 l 656 1313 l 489 1119 l 405 1119 z "},"Ž":{"ha":894,"x_min":50,"x_max":844,"o":"m 169 74 l 844 74 l 844 0 l 50 0 l 50 49 l 716 953 l 59 953 l 59 1028 l 835 1028 l 835 979 l 169 74 m 600 1313 l 691 1313 l 489 1119 l 406 1119 l 203 1313 l 294 1313 l 447 1163 l 600 1313 z "},"Ż":{"ha":894,"x_min":50,"x_max":844,"o":"m 169 74 l 844 74 l 844 0 l 50 0 l 50 49 l 716 953 l 59 953 l 59 1028 l 835 1028 l 835 979 l 169 74 m 447 1162 q 401 1177 417 1162 q 384 1217 384 1192 q 401 1257 384 1242 q 447 1272 417 1272 q 494 1257 477 1272 q 510 1217 510 1242 q 494 1177 510 1192 q 447 1162 477 1162 z "},"Ẓ":{"ha":894,"x_min":50,"x_max":844,"o":"m 169 74 l 844 74 l 844 0 l 50 0 l 50 49 l 716 953 l 59 953 l 59 1028 l 835 1028 l 835 979 l 169 74 m 447 -231 q 401 -216 417 -231 q 384 -176 384 -201 q 401 -135 384 -150 q 447 -120 417 -120 q 494 -135 477 -120 q 510 -176 510 -150 q 494 -216 510 -201 q 447 -231 477 -231 z "},"a":{"ha":792,"x_min":85,"x_max":675,"o":"m 371 763 q 540 738 473 763 q 641 655 606 713 q 675 497 675 597 l 675 0 l 601 0 l 594 89 l 588 89 q 477 16 545 43 q 333 -12 408 -12 q 199 13 255 -12 q 115 83 144 38 q 85 190 85 128 q 153 338 85 286 q 372 407 221 390 l 590 432 l 590 499 q 564 616 590 574 q 490 675 539 658 q 364 692 442 692 q 250 683 310 692 q 134 653 190 674 l 134 726 q 248 753 185 744 q 371 763 310 763 m 348 56 q 478 82 416 56 q 590 160 540 108 l 590 369 l 376 344 q 221 297 267 332 q 175 197 175 261 q 218 93 175 129 q 348 56 260 56 z "},"á":{"ha":792,"x_min":85,"x_max":675,"o":"m 371 763 q 540 738 473 763 q 641 655 606 713 q 675 497 675 597 l 675 0 l 601 0 l 594 89 l 588 89 q 477 16 545 43 q 333 -12 408 -12 q 199 13 255 -12 q 115 83 144 38 q 85 190 85 128 q 153 338 85 286 q 372 407 221 390 l 590 432 l 590 499 q 564 616 590 574 q 490 675 539 658 q 364 692 442 692 q 250 683 310 692 q 134 653 190 674 l 134 726 q 248 753 185 744 q 371 763 310 763 m 348 56 q 478 82 416 56 q 590 160 540 108 l 590 369 l 376 344 q 221 297 267 332 q 175 197 175 261 q 218 93 175 129 q 348 56 260 56 m 351 874 l 536 1122 l 636 1122 l 437 874 l 351 874 z "},"ă":{"ha":792,"x_min":85,"x_max":675,"o":"m 371 763 q 540 738 473 763 q 641 655 606 713 q 675 497 675 597 l 675 0 l 601 0 l 594 89 l 588 89 q 477 16 545 43 q 333 -12 408 -12 q 199 13 255 -12 q 115 83 144 38 q 85 190 85 128 q 153 338 85 286 q 372 407 221 390 l 590 432 l 590 499 q 564 616 590 574 q 490 675 539 658 q 364 692 442 692 q 250 683 310 692 q 134 653 190 674 l 134 726 q 248 753 185 744 q 371 763 310 763 m 348 56 q 478 82 416 56 q 590 160 540 108 l 590 369 l 376 344 q 221 297 267 332 q 175 197 175 261 q 218 93 175 129 q 348 56 260 56 m 395 881 q 275 909 325 881 q 199 988 225 938 q 169 1103 172 1038 l 231 1103 q 276 981 237 1025 q 395 937 316 937 q 557 1103 544 937 l 619 1103 q 557 941 614 1001 q 395 881 499 881 z "},"ắ":{"ha":792,"x_min":85,"x_max":675,"o":"m 371 763 q 540 738 473 763 q 641 655 606 713 q 675 497 675 597 l 675 0 l 601 0 l 594 89 l 588 89 q 477 16 545 43 q 333 -12 408 -12 q 199 13 255 -12 q 115 83 144 38 q 85 190 85 128 q 153 338 85 286 q 372 407 221 390 l 590 432 l 590 499 q 564 616 590 574 q 490 675 539 658 q 364 692 442 692 q 250 683 310 692 q 134 653 190 674 l 134 726 q 248 753 185 744 q 371 763 310 763 m 348 56 q 478 82 416 56 q 590 160 540 108 l 590 369 l 376 344 q 221 297 267 332 q 175 197 175 261 q 218 93 175 129 q 348 56 260 56 m 356 1108 l 508 1297 l 598 1297 l 431 1108 l 356 1108 m 395 882 q 274 910 324 882 q 197 986 224 938 q 166 1099 170 1035 l 229 1099 q 275 980 235 1024 q 395 937 315 937 q 513 980 474 937 q 558 1099 552 1023 l 622 1099 q 558 941 615 1000 q 395 882 500 882 z "},"ặ":{"ha":792,"x_min":85,"x_max":675,"o":"m 371 763 q 540 738 473 763 q 641 655 606 713 q 675 497 675 597 l 675 0 l 601 0 l 594 89 l 588 89 q 477 16 545 43 q 333 -12 408 -12 q 199 13 255 -12 q 115 83 144 38 q 85 190 85 128 q 153 338 85 286 q 372 407 221 390 l 590 432 l 590 499 q 564 616 590 574 q 490 675 539 658 q 364 692 442 692 q 250 683 310 692 q 134 653 190 674 l 134 726 q 248 753 185 744 q 371 763 310 763 m 348 56 q 478 82 416 56 q 590 160 540 108 l 590 369 l 376 344 q 221 297 267 332 q 175 197 175 261 q 218 93 175 129 q 348 56 260 56 m 408 -234 q 364 -219 380 -234 q 348 -178 348 -203 q 364 -136 348 -151 q 408 -120 380 -120 q 451 -136 435 -120 q 467 -178 467 -151 q 451 -219 467 -203 q 408 -234 435 -234 m 395 881 q 275 909 325 881 q 199 988 225 938 q 169 1103 172 1038 l 231 1103 q 276 981 237 1025 q 395 937 316 937 q 557 1103 544 937 l 619 1103 q 557 941 614 1001 q 395 881 499 881 z "},"ằ":{"ha":792,"x_min":85,"x_max":675,"o":"m 371 763 q 540 738 473 763 q 641 655 606 713 q 675 497 675 597 l 675 0 l 601 0 l 594 89 l 588 89 q 477 16 545 43 q 333 -12 408 -12 q 199 13 255 -12 q 115 83 144 38 q 85 190 85 128 q 153 338 85 286 q 372 407 221 390 l 590 432 l 590 499 q 564 616 590 574 q 490 675 539 658 q 364 692 442 692 q 250 683 310 692 q 134 653 190 674 l 134 726 q 248 753 185 744 q 371 763 310 763 m 348 56 q 478 82 416 56 q 590 160 540 108 l 590 369 l 376 344 q 221 297 267 332 q 175 197 175 261 q 218 93 175 129 q 348 56 260 56 m 357 1108 l 190 1297 l 279 1297 l 431 1108 l 357 1108 m 395 882 q 274 910 324 882 q 197 986 224 938 q 166 1099 170 1035 l 229 1099 q 275 980 235 1024 q 395 937 315 937 q 513 980 474 937 q 558 1099 552 1023 l 622 1099 q 558 941 615 1000 q 395 882 500 882 z "},"ẳ":{"ha":792,"x_min":85,"x_max":675,"o":"m 371 763 q 540 738 473 763 q 641 655 606 713 q 675 497 675 597 l 675 0 l 601 0 l 594 89 l 588 89 q 477 16 545 43 q 333 -12 408 -12 q 199 13 255 -12 q 115 83 144 38 q 85 190 85 128 q 153 338 85 286 q 372 407 221 390 l 590 432 l 590 499 q 564 616 590 574 q 490 675 539 658 q 364 692 442 692 q 250 683 310 692 q 134 653 190 674 l 134 726 q 248 753 185 744 q 371 763 310 763 m 348 56 q 478 82 416 56 q 590 160 540 108 l 590 369 l 376 344 q 221 297 267 332 q 175 197 175 261 q 218 93 175 129 q 348 56 260 56 m 363 1108 q 384 1151 365 1136 q 439 1179 403 1165 q 478 1198 465 1189 q 491 1220 491 1206 q 471 1246 491 1237 q 402 1255 451 1255 q 327 1250 360 1255 q 253 1231 294 1244 l 253 1276 q 405 1300 318 1300 q 512 1279 477 1300 q 547 1223 547 1258 q 530 1182 547 1196 q 479 1154 513 1167 q 439 1134 453 1144 q 424 1108 426 1124 l 363 1108 m 395 882 q 274 910 324 882 q 197 986 224 938 q 166 1099 170 1035 l 229 1099 q 275 980 235 1024 q 395 937 315 937 q 513 980 474 937 q 558 1099 552 1023 l 622 1099 q 558 941 615 1000 q 395 882 500 882 z "},"ẵ":{"ha":792,"x_min":85,"x_max":675,"o":"m 371 763 q 540 738 473 763 q 641 655 606 713 q 675 497 675 597 l 675 0 l 601 0 l 594 89 l 588 89 q 477 16 545 43 q 333 -12 408 -12 q 199 13 255 -12 q 115 83 144 38 q 85 190 85 128 q 153 338 85 286 q 372 407 221 390 l 590 432 l 590 499 q 564 616 590 574 q 490 675 539 658 q 364 692 442 692 q 250 683 310 692 q 134 653 190 674 l 134 726 q 248 753 185 744 q 371 763 310 763 m 348 56 q 478 82 416 56 q 590 160 540 108 l 590 369 l 376 344 q 221 297 267 332 q 175 197 175 261 q 218 93 175 129 q 348 56 260 56 m 504 1156 q 448 1163 474 1156 q 383 1183 421 1170 q 326 1201 349 1195 q 282 1206 304 1206 q 215 1195 245 1206 q 158 1159 185 1183 l 158 1219 q 283 1261 204 1261 q 340 1254 313 1261 q 405 1234 367 1247 q 461 1217 439 1222 q 506 1211 483 1211 q 572 1223 542 1211 q 630 1258 602 1234 l 630 1198 q 504 1156 584 1156 m 395 882 q 274 910 324 882 q 197 986 224 938 q 166 1099 170 1035 l 229 1099 q 275 980 235 1024 q 395 937 315 937 q 513 980 474 937 q 558 1099 552 1023 l 622 1099 q 558 941 615 1000 q 395 882 500 882 z "},"â":{"ha":792,"x_min":85,"x_max":675,"o":"m 371 763 q 540 738 473 763 q 641 655 606 713 q 675 497 675 597 l 675 0 l 601 0 l 594 89 l 588 89 q 477 16 545 43 q 333 -12 408 -12 q 199 13 255 -12 q 115 83 144 38 q 85 190 85 128 q 153 338 85 286 q 372 407 221 390 l 590 432 l 590 499 q 564 616 590 574 q 490 675 539 658 q 364 692 442 692 q 250 683 310 692 q 134 653 190 674 l 134 726 q 248 753 185 744 q 371 763 310 763 m 348 56 q 478 82 416 56 q 590 160 540 108 l 590 369 l 376 344 q 221 297 267 332 q 175 197 175 261 q 218 93 175 129 q 348 56 260 56 m 617 874 l 538 874 l 394 1073 l 250 874 l 171 874 l 353 1122 l 434 1122 l 617 874 z "},"ấ":{"ha":792,"x_min":85,"x_max":794,"o":"m 371 763 q 540 738 473 763 q 641 655 606 713 q 675 497 675 597 l 675 0 l 601 0 l 594 89 l 588 89 q 477 16 545 43 q 333 -12 408 -12 q 199 13 255 -12 q 115 83 144 38 q 85 190 85 128 q 153 338 85 286 q 372 407 221 390 l 590 432 l 590 499 q 564 616 590 574 q 490 675 539 658 q 364 692 442 692 q 250 683 310 692 q 134 653 190 674 l 134 726 q 248 753 185 744 q 371 763 310 763 m 348 56 q 478 82 416 56 q 590 160 540 108 l 590 369 l 376 344 q 221 297 267 332 q 175 197 175 261 q 218 93 175 129 q 348 56 260 56 m 704 1297 l 794 1297 l 626 1108 l 552 1108 l 704 1297 m 353 1122 l 434 1122 l 617 874 l 538 874 l 394 1073 l 250 874 l 171 874 l 353 1122 z "},"ậ":{"ha":792,"x_min":85,"x_max":675,"o":"m 371 763 q 540 738 473 763 q 641 655 606 713 q 675 497 675 597 l 675 0 l 601 0 l 594 89 l 588 89 q 477 16 545 43 q 333 -12 408 -12 q 199 13 255 -12 q 115 83 144 38 q 85 190 85 128 q 153 338 85 286 q 372 407 221 390 l 590 432 l 590 499 q 564 616 590 574 q 490 675 539 658 q 364 692 442 692 q 250 683 310 692 q 134 653 190 674 l 134 726 q 248 753 185 744 q 371 763 310 763 m 348 56 q 478 82 416 56 q 590 160 540 108 l 590 369 l 376 344 q 221 297 267 332 q 175 197 175 261 q 218 93 175 129 q 348 56 260 56 m 408 -234 q 364 -219 380 -234 q 348 -178 348 -203 q 364 -136 348 -151 q 408 -120 380 -120 q 451 -136 435 -120 q 467 -178 467 -151 q 451 -219 467 -203 q 408 -234 435 -234 m 617 874 l 538 874 l 394 1073 l 250 874 l 171 874 l 353 1122 l 434 1122 l 617 874 z "},"ầ":{"ha":792,"x_min":85,"x_max":675,"o":"m 371 763 q 540 738 473 763 q 641 655 606 713 q 675 497 675 597 l 675 0 l 601 0 l 594 89 l 588 89 q 477 16 545 43 q 333 -12 408 -12 q 199 13 255 -12 q 115 83 144 38 q 85 190 85 128 q 153 338 85 286 q 372 407 221 390 l 590 432 l 590 499 q 564 616 590 574 q 490 675 539 658 q 364 692 442 692 q 250 683 310 692 q 134 653 190 674 l 134 726 q 248 753 185 744 q 371 763 310 763 m 348 56 q 478 82 416 56 q 590 160 540 108 l 590 369 l 376 344 q 221 297 267 332 q 175 197 175 261 q 218 93 175 129 q 348 56 260 56 m 646 1108 l 572 1108 l 404 1297 l 493 1297 l 646 1108 m 353 1122 l 434 1122 l 617 874 l 538 874 l 394 1073 l 250 874 l 171 874 l 353 1122 z "},"ẩ":{"ha":792,"x_min":85,"x_max":735,"o":"m 371 763 q 540 738 473 763 q 641 655 606 713 q 675 497 675 597 l 675 0 l 601 0 l 594 89 l 588 89 q 477 16 545 43 q 333 -12 408 -12 q 199 13 255 -12 q 115 83 144 38 q 85 190 85 128 q 153 338 85 286 q 372 407 221 390 l 590 432 l 590 499 q 564 616 590 574 q 490 675 539 658 q 364 692 442 692 q 250 683 310 692 q 134 653 190 674 l 134 726 q 248 753 185 744 q 371 763 310 763 m 348 56 q 478 82 416 56 q 590 160 540 108 l 590 369 l 376 344 q 221 297 267 332 q 175 197 175 261 q 218 93 175 129 q 348 56 260 56 m 597 1300 q 702 1280 668 1300 q 735 1223 735 1259 q 719 1184 735 1197 q 671 1157 703 1170 q 631 1136 644 1146 q 615 1108 617 1126 l 557 1108 q 578 1152 558 1137 q 631 1181 597 1167 q 669 1199 657 1191 q 681 1220 681 1207 q 661 1246 681 1237 q 594 1255 642 1255 q 520 1250 553 1255 q 448 1232 488 1244 l 448 1276 q 597 1300 511 1300 m 353 1122 l 434 1122 l 617 874 l 538 874 l 394 1073 l 250 874 l 171 874 l 353 1122 z "},"ẫ":{"ha":792,"x_min":85,"x_max":675,"o":"m 371 763 q 540 738 473 763 q 641 655 606 713 q 675 497 675 597 l 675 0 l 601 0 l 594 89 l 588 89 q 477 16 545 43 q 333 -12 408 -12 q 199 13 255 -12 q 115 83 144 38 q 85 190 85 128 q 153 338 85 286 q 372 407 221 390 l 590 432 l 590 499 q 564 616 590 574 q 490 675 539 658 q 364 692 442 692 q 250 683 310 692 q 134 653 190 674 l 134 726 q 248 753 185 744 q 371 763 310 763 m 348 56 q 478 82 416 56 q 590 160 540 108 l 590 369 l 376 344 q 221 297 267 332 q 175 197 175 261 q 218 93 175 129 q 348 56 260 56 m 503 1211 q 569 1223 540 1211 q 626 1258 599 1234 l 626 1198 q 503 1156 580 1156 q 447 1163 473 1156 q 383 1183 420 1170 q 327 1201 349 1195 q 284 1206 306 1206 q 218 1195 248 1206 q 162 1159 189 1183 l 162 1219 q 285 1261 208 1261 q 341 1254 315 1261 q 405 1234 367 1247 q 460 1217 438 1222 q 503 1211 482 1211 m 352 1115 l 435 1115 l 623 874 l 541 874 l 394 1069 l 247 874 l 165 874 l 352 1115 z "},"ȁ":{"ha":792,"x_min":85,"x_max":675,"o":"m 371 763 q 540 738 473 763 q 641 655 606 713 q 675 497 675 597 l 675 0 l 601 0 l 594 89 l 588 89 q 477 16 545 43 q 333 -12 408 -12 q 199 13 255 -12 q 115 83 144 38 q 85 190 85 128 q 153 338 85 286 q 372 407 221 390 l 590 432 l 590 499 q 564 616 590 574 q 490 675 539 658 q 364 692 442 692 q 250 683 310 692 q 134 653 190 674 l 134 726 q 248 753 185 744 q 371 763 310 763 m 348 56 q 478 82 416 56 q 590 160 540 108 l 590 369 l 376 344 q 221 297 267 332 q 175 197 175 261 q 218 93 175 129 q 348 56 260 56 m 234 874 l 103 1122 l 182 1122 l 306 874 l 234 874 m 481 874 l 351 1122 l 428 1122 l 553 874 l 481 874 z "},"ä":{"ha":792,"x_min":85,"x_max":675,"o":"m 371 763 q 540 738 473 763 q 641 655 606 713 q 675 497 675 597 l 675 0 l 601 0 l 594 89 l 588 89 q 477 16 545 43 q 333 -12 408 -12 q 199 13 255 -12 q 115 83 144 38 q 85 190 85 128 q 153 338 85 286 q 372 407 221 390 l 590 432 l 590 499 q 564 616 590 574 q 490 675 539 658 q 364 692 442 692 q 250 683 310 692 q 134 653 190 674 l 134 726 q 248 753 185 744 q 371 763 310 763 m 348 56 q 478 82 416 56 q 590 160 540 108 l 590 369 l 376 344 q 221 297 267 332 q 175 197 175 261 q 218 93 175 129 q 348 56 260 56 m 222 930 q 178 945 194 930 q 163 987 163 960 q 178 1030 163 1014 q 222 1046 194 1046 q 266 1030 250 1046 q 283 987 283 1014 q 267 945 283 960 q 222 930 251 930 m 565 930 q 521 945 537 930 q 505 987 505 960 q 521 1030 505 1014 q 565 1046 538 1046 q 609 1030 592 1046 q 625 987 625 1014 q 609 945 625 960 q 565 930 593 930 z "},"ạ":{"ha":792,"x_min":85,"x_max":675,"o":"m 371 763 q 540 738 473 763 q 641 655 606 713 q 675 497 675 597 l 675 0 l 601 0 l 594 89 l 588 89 q 477 16 545 43 q 333 -12 408 -12 q 199 13 255 -12 q 115 83 144 38 q 85 190 85 128 q 153 338 85 286 q 372 407 221 390 l 590 432 l 590 499 q 564 616 590 574 q 490 675 539 658 q 364 692 442 692 q 250 683 310 692 q 134 653 190 674 l 134 726 q 248 753 185 744 q 371 763 310 763 m 348 56 q 478 82 416 56 q 590 160 540 108 l 590 369 l 376 344 q 221 297 267 332 q 175 197 175 261 q 218 93 175 129 q 348 56 260 56 m 408 -234 q 364 -219 380 -234 q 348 -178 348 -203 q 364 -136 348 -151 q 408 -120 380 -120 q 451 -136 435 -120 q 467 -178 467 -151 q 451 -219 467 -203 q 408 -234 435 -234 z "},"à":{"ha":792,"x_min":85,"x_max":675,"o":"m 371 763 q 540 738 473 763 q 641 655 606 713 q 675 497 675 597 l 675 0 l 601 0 l 594 89 l 588 89 q 477 16 545 43 q 333 -12 408 -12 q 199 13 255 -12 q 115 83 144 38 q 85 190 85 128 q 153 338 85 286 q 372 407 221 390 l 590 432 l 590 499 q 564 616 590 574 q 490 675 539 658 q 364 692 442 692 q 250 683 310 692 q 134 653 190 674 l 134 726 q 248 753 185 744 q 371 763 310 763 m 348 56 q 478 82 416 56 q 590 160 540 108 l 590 369 l 376 344 q 221 297 267 332 q 175 197 175 261 q 218 93 175 129 q 348 56 260 56 m 351 874 l 151 1122 l 251 1122 l 437 874 l 351 874 z "},"ả":{"ha":792,"x_min":85,"x_max":675,"o":"m 371 763 q 540 738 473 763 q 641 655 606 713 q 675 497 675 597 l 675 0 l 601 0 l 594 89 l 588 89 q 477 16 545 43 q 333 -12 408 -12 q 199 13 255 -12 q 115 83 144 38 q 85 190 85 128 q 153 338 85 286 q 372 407 221 390 l 590 432 l 590 499 q 564 616 590 574 q 490 675 539 658 q 364 692 442 692 q 250 683 310 692 q 134 653 190 674 l 134 726 q 248 753 185 744 q 371 763 310 763 m 348 56 q 478 82 416 56 q 590 160 540 108 l 590 369 l 376 344 q 221 297 267 332 q 175 197 175 261 q 218 93 175 129 q 348 56 260 56 m 365 874 q 377 919 366 900 q 402 950 388 938 q 439 976 417 962 q 476 1002 464 991 q 488 1032 488 1014 q 464 1070 488 1058 q 392 1082 441 1082 q 332 1078 363 1082 q 274 1065 300 1074 l 274 1114 q 330 1126 297 1122 q 392 1131 362 1131 q 544 1035 544 1131 q 528 985 544 1003 q 482 949 513 967 q 439 915 453 930 q 424 874 425 900 l 365 874 z "},"ȃ":{"ha":792,"x_min":85,"x_max":675,"o":"m 371 763 q 540 738 473 763 q 641 655 606 713 q 675 497 675 597 l 675 0 l 601 0 l 594 89 l 588 89 q 477 16 545 43 q 333 -12 408 -12 q 199 13 255 -12 q 115 83 144 38 q 85 190 85 128 q 153 338 85 286 q 372 407 221 390 l 590 432 l 590 499 q 564 616 590 574 q 490 675 539 658 q 364 692 442 692 q 250 683 310 692 q 134 653 190 674 l 134 726 q 248 753 185 744 q 371 763 310 763 m 348 56 q 478 82 416 56 q 590 160 540 108 l 590 369 l 376 344 q 221 297 267 332 q 175 197 175 261 q 218 93 175 129 q 348 56 260 56 m 169 893 q 231 1055 174 995 q 392 1115 288 1115 q 513 1087 463 1115 q 589 1009 563 1059 q 619 893 615 959 l 557 893 q 511 1015 551 971 q 392 1058 471 1058 q 276 1015 315 1058 q 231 893 237 971 l 169 893 z "},"ā":{"ha":792,"x_min":85,"x_max":675,"o":"m 371 763 q 540 738 473 763 q 641 655 606 713 q 675 497 675 597 l 675 0 l 601 0 l 594 89 l 588 89 q 477 16 545 43 q 333 -12 408 -12 q 199 13 255 -12 q 115 83 144 38 q 85 190 85 128 q 153 338 85 286 q 372 407 221 390 l 590 432 l 590 499 q 564 616 590 574 q 490 675 539 658 q 364 692 442 692 q 250 683 310 692 q 134 653 190 674 l 134 726 q 248 753 185 744 q 371 763 310 763 m 348 56 q 478 82 416 56 q 590 160 540 108 l 590 369 l 376 344 q 221 297 267 332 q 175 197 175 261 q 218 93 175 129 q 348 56 260 56 m 165 958 l 165 1019 l 623 1019 l 623 958 l 165 958 z "},"ą":{"ha":792,"x_min":85,"x_max":747,"o":"m 633 -236 q 747 -206 690 -236 l 747 -256 q 690 -276 721 -269 q 628 -283 658 -283 q 518 -250 558 -283 q 478 -160 478 -217 q 508 -67 478 -110 q 601 11 538 -25 l 594 89 l 588 89 q 477 16 545 43 q 333 -12 408 -12 q 199 13 255 -12 q 115 83 144 38 q 85 190 85 128 q 153 338 85 286 q 372 407 221 390 l 590 432 l 590 499 q 564 616 590 574 q 490 675 539 658 q 364 692 442 692 q 250 683 310 692 q 134 653 190 674 l 134 726 q 248 753 185 744 q 371 763 310 763 q 540 738 473 763 q 641 655 606 713 q 675 497 675 597 l 675 0 q 569 -74 601 -37 q 538 -156 538 -110 q 563 -214 538 -192 q 633 -236 589 -236 m 348 56 q 478 82 416 56 q 590 160 540 108 l 590 369 l 376 344 q 221 297 267 332 q 175 197 175 261 q 218 93 175 129 q 348 56 260 56 z "},"å":{"ha":792,"x_min":85,"x_max":675,"o":"m 371 763 q 540 738 473 763 q 641 655 606 713 q 675 497 675 597 l 675 0 l 601 0 l 594 89 l 588 89 q 477 16 545 43 q 333 -12 408 -12 q 199 13 255 -12 q 115 83 144 38 q 85 190 85 128 q 153 338 85 286 q 372 407 221 390 l 590 432 l 590 499 q 564 616 590 574 q 490 675 539 658 q 364 692 442 692 q 250 683 310 692 q 134 653 190 674 l 134 726 q 248 753 185 744 q 371 763 310 763 m 348 56 q 478 82 416 56 q 590 160 540 108 l 590 369 l 376 344 q 221 297 267 332 q 175 197 175 261 q 218 93 175 129 q 348 56 260 56 m 394 870 q 326 887 356 870 q 279 934 296 904 q 262 1002 262 965 q 279 1069 262 1040 q 326 1116 296 1099 q 394 1133 356 1133 q 461 1116 431 1133 q 509 1069 492 1099 q 526 1002 526 1040 q 509 934 526 965 q 461 887 492 904 q 394 870 431 870 m 394 915 q 456 939 432 915 q 479 1002 479 962 q 456 1065 479 1042 q 394 1089 432 1089 q 332 1065 356 1089 q 308 1002 308 1042 q 332 939 308 962 q 394 915 356 915 z "},"ǻ":{"ha":792,"x_min":85,"x_max":675,"o":"m 371 763 q 540 738 473 763 q 641 655 606 713 q 675 497 675 597 l 675 0 l 601 0 l 594 89 l 588 89 q 477 16 545 43 q 333 -12 408 -12 q 199 13 255 -12 q 115 83 144 38 q 85 190 85 128 q 153 338 85 286 q 372 407 221 390 l 590 432 l 590 499 q 564 616 590 574 q 490 675 539 658 q 364 692 442 692 q 250 683 310 692 q 134 653 190 674 l 134 726 q 248 753 185 744 q 371 763 310 763 m 348 56 q 478 82 416 56 q 590 160 540 108 l 590 369 l 376 344 q 221 297 267 332 q 175 197 175 261 q 218 93 175 129 q 348 56 260 56 m 499 1083 q 526 1002 526 1048 q 509 934 526 965 q 461 887 492 904 q 394 870 431 870 q 326 887 356 870 q 279 934 296 904 q 262 1002 262 965 q 279 1069 262 1040 q 326 1116 296 1099 q 394 1133 356 1133 q 459 1117 431 1133 l 562 1236 l 638 1236 l 499 1083 m 394 915 q 456 939 432 915 q 479 1002 479 962 q 456 1065 479 1042 q 394 1089 432 1089 q 332 1065 356 1089 q 308 1002 308 1042 q 332 939 308 962 q 394 915 356 915 z "},"ã":{"ha":792,"x_min":85,"x_max":675,"o":"m 371 763 q 540 738 473 763 q 641 655 606 713 q 675 497 675 597 l 675 0 l 601 0 l 594 89 l 588 89 q 477 16 545 43 q 333 -12 408 -12 q 199 13 255 -12 q 115 83 144 38 q 85 190 85 128 q 153 338 85 286 q 372 407 221 390 l 590 432 l 590 499 q 564 616 590 574 q 490 675 539 658 q 364 692 442 692 q 250 683 310 692 q 134 653 190 674 l 134 726 q 248 753 185 744 q 371 763 310 763 m 348 56 q 478 82 416 56 q 590 160 540 108 l 590 369 l 376 344 q 221 297 267 332 q 175 197 175 261 q 218 93 175 129 q 348 56 260 56 m 501 944 q 445 952 472 944 q 383 974 419 959 q 327 993 348 987 q 285 999 306 999 q 221 986 250 999 q 165 948 192 974 l 165 1014 q 287 1058 210 1058 q 342 1051 316 1058 q 405 1029 369 1044 q 460 1010 440 1016 q 502 1004 481 1004 q 567 1016 538 1004 q 623 1055 596 1028 l 623 989 q 501 944 578 944 z "},"æ":{"ha":1297,"x_min":85,"x_max":1228,"o":"m 1228 346 l 675 346 q 756 127 680 197 q 977 58 832 58 q 1190 94 1071 58 l 1190 22 q 967 -13 1074 -13 q 649 129 740 -13 q 499 20 576 52 q 338 -12 422 -12 q 202 13 259 -12 q 115 83 145 38 q 85 192 85 129 q 160 351 85 292 q 393 409 235 409 l 590 409 l 590 499 q 564 616 590 574 q 490 675 539 658 q 364 692 442 692 q 250 683 310 692 q 134 653 190 674 l 134 726 q 247 753 185 744 q 369 763 308 763 q 552 730 483 763 q 649 617 622 696 q 755 726 687 689 q 915 763 822 763 q 1147 664 1065 763 q 1228 376 1228 565 l 1228 346 m 912 697 q 675 409 682 697 l 1144 409 q 912 697 1138 697 m 349 56 q 492 88 422 56 q 619 190 562 120 q 590 347 593 258 l 392 347 q 175 197 175 347 q 219 93 175 130 q 349 56 263 56 z "},"ǽ":{"ha":1297,"x_min":85,"x_max":1228,"o":"m 1228 346 l 675 346 q 756 127 680 197 q 977 58 832 58 q 1190 94 1071 58 l 1190 22 q 967 -13 1074 -13 q 649 129 740 -13 q 499 20 576 52 q 338 -12 422 -12 q 202 13 259 -12 q 115 83 145 38 q 85 192 85 129 q 160 351 85 292 q 393 409 235 409 l 590 409 l 590 499 q 564 616 590 574 q 490 675 539 658 q 364 692 442 692 q 250 683 310 692 q 134 653 190 674 l 134 726 q 247 753 185 744 q 369 763 308 763 q 552 730 483 763 q 649 617 622 696 q 755 726 687 689 q 915 763 822 763 q 1147 664 1065 763 q 1228 376 1228 565 l 1228 346 m 912 697 q 675 409 682 697 l 1144 409 q 912 697 1138 697 m 349 56 q 492 88 422 56 q 619 190 562 120 q 590 347 593 258 l 392 347 q 175 197 175 347 q 219 93 175 130 q 349 56 263 56 m 590 874 l 776 1122 l 876 1122 l 676 874 l 590 874 z "},"b":{"ha":878,"x_min":128,"x_max":796,"o":"m 386 -13 q 128 23 252 -13 l 128 1122 l 215 1122 l 215 667 l 220 667 q 329 738 265 713 q 470 763 393 763 q 639 725 565 763 q 754 603 712 686 q 796 391 796 519 q 693 88 796 190 q 386 -13 590 -13 m 394 60 q 630 139 551 60 q 708 383 708 218 q 639 616 708 544 q 451 688 570 688 q 320 663 382 688 q 215 585 259 638 l 215 84 q 394 60 296 60 z "},"c":{"ha":684,"x_min":83,"x_max":647,"o":"m 440 -13 q 175 84 267 -13 q 83 376 83 181 q 181 667 83 571 q 469 763 279 763 q 647 739 566 763 l 647 664 q 473 689 559 689 q 247 614 321 689 q 172 378 172 540 q 242 138 172 214 q 449 61 311 61 q 647 98 534 61 l 647 24 q 440 -13 549 -13 z "},"ć":{"ha":684,"x_min":83,"x_max":648,"o":"m 440 -13 q 175 84 267 -13 q 83 376 83 181 q 181 667 83 571 q 469 763 279 763 q 647 739 566 763 l 647 664 q 473 689 559 689 q 247 614 321 689 q 172 378 172 540 q 242 138 172 214 q 449 61 311 61 q 647 98 534 61 l 647 24 q 440 -13 549 -13 m 363 874 l 548 1122 l 648 1122 l 449 874 l 363 874 z "},"č":{"ha":684,"x_min":83,"x_max":647,"o":"m 440 -13 q 175 84 267 -13 q 83 376 83 181 q 181 667 83 571 q 469 763 279 763 q 647 739 566 763 l 647 664 q 473 689 559 689 q 247 614 321 689 q 172 378 172 540 q 242 138 172 214 q 449 61 311 61 q 647 98 534 61 l 647 24 q 440 -13 549 -13 m 554 1122 l 633 1122 l 446 874 l 365 874 l 178 1122 l 257 1122 l 406 921 l 554 1122 z "},"ç":{"ha":684,"x_min":83,"x_max":647,"o":"m 473 689 q 247 614 321 689 q 172 378 172 540 q 242 138 172 214 q 449 61 311 61 q 647 98 534 61 l 647 24 q 440 -13 549 -13 l 434 -13 l 434 -74 q 522 -105 491 -77 q 553 -178 553 -132 q 516 -256 553 -229 q 413 -283 479 -283 q 343 -276 378 -283 q 283 -257 308 -269 l 283 -208 q 410 -237 344 -237 q 476 -223 454 -237 q 497 -176 497 -208 q 476 -131 497 -145 q 410 -116 454 -116 l 381 -116 l 381 -10 q 159 102 235 6 q 83 376 83 198 q 181 667 83 571 q 469 763 279 763 q 647 739 566 763 l 647 664 q 473 689 559 689 z "},"ḉ":{"ha":684,"x_min":83,"x_max":648,"o":"m 648 1122 l 449 874 l 363 874 l 548 1122 l 648 1122 m 83 376 q 181 667 83 571 q 469 763 279 763 q 647 739 566 763 l 647 664 q 473 689 559 689 q 247 614 321 689 q 172 378 172 540 q 242 138 172 214 q 449 61 311 61 q 647 98 534 61 l 647 24 q 440 -13 549 -13 l 434 -13 l 434 -74 q 522 -105 491 -77 q 553 -178 553 -132 q 516 -256 553 -229 q 413 -283 479 -283 q 343 -276 378 -283 q 283 -257 308 -269 l 283 -208 q 410 -237 344 -237 q 476 -223 454 -237 q 497 -176 497 -208 q 476 -131 497 -145 q 410 -116 454 -116 l 381 -116 l 381 -10 q 159 102 235 6 q 83 376 83 198 z "},"ĉ":{"ha":684,"x_min":83,"x_max":647,"o":"m 440 -13 q 175 84 267 -13 q 83 376 83 181 q 181 667 83 571 q 469 763 279 763 q 647 739 566 763 l 647 664 q 473 689 559 689 q 247 614 321 689 q 172 378 172 540 q 242 138 172 214 q 449 61 311 61 q 647 98 534 61 l 647 24 q 440 -13 549 -13 m 628 874 l 549 874 l 406 1073 l 262 874 l 183 874 l 365 1122 l 446 1122 l 628 874 z "},"ċ":{"ha":684,"x_min":83,"x_max":647,"o":"m 440 -13 q 175 84 267 -13 q 83 376 83 181 q 181 667 83 571 q 469 763 279 763 q 647 739 566 763 l 647 664 q 473 689 559 689 q 247 614 321 689 q 172 378 172 540 q 242 138 172 214 q 449 61 311 61 q 647 98 534 61 l 647 24 q 440 -13 549 -13 m 406 929 q 359 944 376 929 q 342 987 342 960 q 359 1030 342 1015 q 406 1046 376 1046 q 452 1030 435 1046 q 469 987 469 1015 q 452 944 469 960 q 406 929 435 929 z "},"d":{"ha":878,"x_min":83,"x_max":750,"o":"m 417 -12 q 242 27 317 -12 q 125 151 167 67 q 83 360 83 234 q 187 663 83 561 q 494 764 291 764 q 664 747 576 764 l 664 1122 l 750 1122 l 750 0 l 676 0 l 671 89 l 664 89 q 556 14 619 41 q 417 -12 492 -12 m 432 63 q 560 89 500 63 q 664 174 620 116 l 664 670 q 583 685 628 680 q 494 691 539 691 q 251 612 331 691 q 171 368 171 533 q 432 63 171 63 z "},"ð":{"ha":862,"x_min":83,"x_max":778,"o":"m 594 916 q 730 667 681 801 q 778 401 778 533 q 735 169 778 262 q 615 32 692 77 q 432 -13 538 -13 q 175 84 268 -13 q 83 376 83 181 q 125 591 83 505 q 245 720 168 678 q 426 762 322 762 q 539 745 488 762 q 631 692 590 729 q 507 902 585 803 l 165 849 l 156 908 l 461 956 q 261 1122 377 1045 l 379 1122 q 551 969 473 1060 l 752 1001 l 761 942 l 594 916 m 432 60 q 623 138 555 60 q 691 375 691 215 q 624 615 691 540 q 431 690 556 690 q 171 377 171 690 q 432 60 171 60 z "},"ď":{"ha":878,"x_min":83,"x_max":911,"o":"m 417 -12 q 242 27 317 -12 q 125 151 167 67 q 83 360 83 234 q 187 663 83 561 q 494 764 291 764 q 664 747 576 764 l 664 1122 l 750 1122 l 750 0 l 676 0 l 671 89 l 664 89 q 556 14 619 41 q 417 -12 492 -12 m 432 63 q 560 89 500 63 q 664 174 620 116 l 664 670 q 583 685 628 680 q 494 691 539 691 q 251 612 331 691 q 171 368 171 533 q 432 63 171 63 m 829 819 q 844 1122 844 935 l 911 1122 q 904 966 911 1045 q 881 819 897 887 l 829 819 z "},"đ":{"ha":878,"x_min":83,"x_max":869,"o":"m 869 911 l 750 911 l 750 0 l 676 0 l 671 89 l 664 89 q 556 14 619 41 q 417 -12 492 -12 q 242 27 317 -12 q 125 151 167 67 q 83 360 83 234 q 187 663 83 561 q 494 764 291 764 q 664 747 576 764 l 664 911 l 367 911 l 367 972 l 664 972 l 664 1122 l 750 1122 l 750 972 l 869 972 l 869 911 m 664 670 q 583 685 628 680 q 494 691 539 691 q 251 612 331 691 q 171 368 171 533 q 432 63 171 63 q 560 89 500 63 q 664 174 620 116 l 664 670 z "},"ḍ":{"ha":878,"x_min":83,"x_max":750,"o":"m 417 -12 q 242 27 317 -12 q 125 151 167 67 q 83 360 83 234 q 187 663 83 561 q 494 764 291 764 q 664 747 576 764 l 664 1122 l 750 1122 l 750 0 l 676 0 l 671 89 l 664 89 q 556 14 619 41 q 417 -12 492 -12 m 432 63 q 560 89 500 63 q 664 174 620 116 l 664 670 q 583 685 628 680 q 494 691 539 691 q 251 612 331 691 q 171 368 171 533 q 432 63 171 63 m 440 -234 q 396 -219 412 -234 q 380 -178 380 -203 q 396 -136 380 -151 q 440 -120 412 -120 q 483 -136 467 -120 q 499 -178 499 -151 q 483 -219 499 -203 q 440 -234 467 -234 z "},"ḏ":{"ha":878,"x_min":83,"x_max":750,"o":"m 417 -12 q 242 27 317 -12 q 125 151 167 67 q 83 360 83 234 q 187 663 83 561 q 494 764 291 764 q 664 747 576 764 l 664 1122 l 750 1122 l 750 0 l 676 0 l 671 89 l 664 89 q 556 14 619 41 q 417 -12 492 -12 m 432 63 q 560 89 500 63 q 664 174 620 116 l 664 670 q 583 685 628 680 q 494 691 539 691 q 251 612 331 691 q 171 368 171 533 q 432 63 171 63 m 232 -208 l 232 -148 l 647 -148 l 647 -208 l 232 -208 z "},"ǳ":{"ha":1592,"x_min":83,"x_max":1548,"o":"m 417 -12 q 242 27 317 -12 q 125 151 167 67 q 83 360 83 234 q 187 663 83 561 q 494 764 291 764 q 664 747 576 764 l 664 1122 l 750 1122 l 750 0 l 676 0 l 671 89 l 664 89 q 556 14 619 41 q 417 -12 492 -12 m 432 63 q 560 89 500 63 q 664 174 620 116 l 664 670 q 583 685 628 680 q 494 691 539 691 q 251 612 331 691 q 171 368 171 533 q 432 63 171 63 m 1047 74 l 1548 74 l 1548 0 l 928 0 l 928 53 l 1419 678 l 938 678 l 938 752 l 1538 752 l 1538 699 l 1047 74 z "},"ǆ":{"ha":1592,"x_min":83,"x_max":1548,"o":"m 417 -12 q 242 27 317 -12 q 125 151 167 67 q 83 360 83 234 q 187 663 83 561 q 494 764 291 764 q 664 747 576 764 l 664 1122 l 750 1122 l 750 0 l 676 0 l 671 89 l 664 89 q 556 14 619 41 q 417 -12 492 -12 m 432 63 q 560 89 500 63 q 664 174 620 116 l 664 670 q 583 685 628 680 q 494 691 539 691 q 251 612 331 691 q 171 368 171 533 q 432 63 171 63 m 1047 74 l 1548 74 l 1548 0 l 928 0 l 928 53 l 1419 678 l 938 678 l 938 752 l 1538 752 l 1538 699 l 1047 74 m 1387 1122 l 1466 1122 l 1278 874 l 1198 874 l 1010 1122 l 1090 1122 l 1238 921 l 1387 1122 z "},"e":{"ha":798,"x_min":83,"x_max":729,"o":"m 729 346 l 170 346 q 251 127 175 197 q 476 58 328 58 q 691 94 569 58 l 691 22 q 466 -13 571 -13 q 181 83 278 -13 q 83 376 83 178 q 122 589 83 502 q 235 719 161 676 q 411 763 308 763 q 647 664 565 763 q 729 374 729 565 l 729 346 m 410 697 q 170 409 177 697 l 646 409 q 583 626 642 556 q 410 697 524 697 z "},"é":{"ha":798,"x_min":83,"x_max":729,"o":"m 729 346 l 170 346 q 251 127 175 197 q 476 58 328 58 q 691 94 569 58 l 691 22 q 466 -13 571 -13 q 181 83 278 -13 q 83 376 83 178 q 122 589 83 502 q 235 719 161 676 q 411 763 308 763 q 647 664 565 763 q 729 374 729 565 l 729 346 m 410 697 q 170 409 177 697 l 646 409 q 583 626 642 556 q 410 697 524 697 m 371 874 l 556 1122 l 656 1122 l 457 874 l 371 874 z "},"ĕ":{"ha":798,"x_min":83,"x_max":729,"o":"m 729 346 l 170 346 q 251 127 175 197 q 476 58 328 58 q 691 94 569 58 l 691 22 q 466 -13 571 -13 q 181 83 278 -13 q 83 376 83 178 q 122 589 83 502 q 235 719 161 676 q 411 763 308 763 q 647 664 565 763 q 729 374 729 565 l 729 346 m 410 697 q 170 409 177 697 l 646 409 q 583 626 642 556 q 410 697 524 697 m 415 881 q 295 909 345 881 q 219 988 245 938 q 189 1103 192 1038 l 251 1103 q 297 981 257 1025 q 415 937 336 937 q 577 1103 564 937 l 639 1103 q 577 941 634 1001 q 415 881 519 881 z "},"ě":{"ha":798,"x_min":83,"x_max":729,"o":"m 729 346 l 170 346 q 251 127 175 197 q 476 58 328 58 q 691 94 569 58 l 691 22 q 466 -13 571 -13 q 181 83 278 -13 q 83 376 83 178 q 122 589 83 502 q 235 719 161 676 q 411 763 308 763 q 647 664 565 763 q 729 374 729 565 l 729 346 m 410 697 q 170 409 177 697 l 646 409 q 583 626 642 556 q 410 697 524 697 m 563 1122 l 642 1122 l 454 874 l 374 874 l 186 1122 l 265 1122 l 414 921 l 563 1122 z "},"ḝ":{"ha":798,"x_min":83,"x_max":729,"o":"m 415 881 q 295 909 345 881 q 219 988 245 938 q 189 1103 192 1038 l 251 1103 q 297 981 257 1025 q 415 937 336 937 q 577 1103 564 937 l 639 1103 q 577 941 634 1001 q 415 881 519 881 m 729 346 l 170 346 q 251 127 175 197 q 476 58 328 58 q 691 94 569 58 l 691 22 q 466 -13 571 -13 q 443 -12 451 -13 l 443 -74 q 531 -105 500 -77 q 562 -178 562 -132 q 525 -256 562 -229 q 422 -283 488 -283 q 352 -276 387 -283 q 292 -257 317 -269 l 292 -208 q 419 -237 353 -237 q 485 -223 463 -237 q 506 -176 506 -208 q 485 -131 506 -145 q 419 -116 463 -116 l 390 -116 l 390 -9 q 161 105 239 10 q 83 376 83 200 q 122 589 83 502 q 235 719 161 676 q 411 763 308 763 q 647 664 565 763 q 729 374 729 565 l 729 346 m 410 697 q 170 409 177 697 l 646 409 q 583 626 642 556 q 410 697 524 697 z "},"ê":{"ha":798,"x_min":83,"x_max":729,"o":"m 729 346 l 170 346 q 251 127 175 197 q 476 58 328 58 q 691 94 569 58 l 691 22 q 466 -13 571 -13 q 181 83 278 -13 q 83 376 83 178 q 122 589 83 502 q 235 719 161 676 q 411 763 308 763 q 647 664 565 763 q 729 374 729 565 l 729 346 m 410 697 q 170 409 177 697 l 646 409 q 583 626 642 556 q 410 697 524 697 m 637 874 l 558 874 l 414 1073 l 270 874 l 191 874 l 374 1122 l 454 1122 l 637 874 z "},"ế":{"ha":798,"x_min":83,"x_max":814,"o":"m 729 346 l 170 346 q 251 127 175 197 q 476 58 328 58 q 691 94 569 58 l 691 22 q 466 -13 571 -13 q 181 83 278 -13 q 83 376 83 178 q 122 589 83 502 q 235 719 161 676 q 411 763 308 763 q 647 664 565 763 q 729 374 729 565 l 729 346 m 410 697 q 170 409 177 697 l 646 409 q 583 626 642 556 q 410 697 524 697 m 724 1297 l 814 1297 l 647 1108 l 572 1108 l 724 1297 m 374 1122 l 454 1122 l 637 874 l 558 874 l 414 1073 l 270 874 l 191 874 l 374 1122 z "},"ệ":{"ha":798,"x_min":83,"x_max":729,"o":"m 729 346 l 170 346 q 251 127 175 197 q 476 58 328 58 q 691 94 569 58 l 691 22 q 466 -13 571 -13 q 181 83 278 -13 q 83 376 83 178 q 122 589 83 502 q 235 719 161 676 q 411 763 308 763 q 647 664 565 763 q 729 374 729 565 l 729 346 m 410 697 q 170 409 177 697 l 646 409 q 583 626 642 556 q 410 697 524 697 m 414 -234 q 370 -219 386 -234 q 354 -178 354 -203 q 370 -136 354 -151 q 414 -120 386 -120 q 458 -136 442 -120 q 474 -178 474 -151 q 458 -219 474 -203 q 414 -234 442 -234 m 637 874 l 558 874 l 414 1073 l 270 874 l 191 874 l 374 1122 l 454 1122 l 637 874 z "},"ề":{"ha":798,"x_min":83,"x_max":729,"o":"m 729 346 l 170 346 q 251 127 175 197 q 476 58 328 58 q 691 94 569 58 l 691 22 q 466 -13 571 -13 q 181 83 278 -13 q 83 376 83 178 q 122 589 83 502 q 235 719 161 676 q 411 763 308 763 q 647 664 565 763 q 729 374 729 565 l 729 346 m 410 697 q 170 409 177 697 l 646 409 q 583 626 642 556 q 410 697 524 697 m 666 1108 l 592 1108 l 424 1297 l 513 1297 l 666 1108 m 374 1122 l 454 1122 l 637 874 l 558 874 l 414 1073 l 270 874 l 191 874 l 374 1122 z "},"ể":{"ha":798,"x_min":83,"x_max":756,"o":"m 729 346 l 170 346 q 251 127 175 197 q 476 58 328 58 q 691 94 569 58 l 691 22 q 466 -13 571 -13 q 181 83 278 -13 q 83 376 83 178 q 122 589 83 502 q 235 719 161 676 q 411 763 308 763 q 647 664 565 763 q 729 374 729 565 l 729 346 m 410 697 q 170 409 177 697 l 646 409 q 583 626 642 556 q 410 697 524 697 m 617 1300 q 722 1280 688 1300 q 756 1223 756 1259 q 739 1184 756 1197 q 691 1157 723 1170 q 651 1136 665 1146 q 635 1108 637 1126 l 577 1108 q 598 1152 578 1137 q 651 1181 617 1167 q 689 1199 677 1191 q 701 1220 701 1207 q 681 1246 701 1237 q 615 1255 662 1255 q 540 1250 573 1255 q 468 1232 508 1244 l 468 1276 q 617 1300 531 1300 m 374 1122 l 454 1122 l 637 874 l 558 874 l 414 1073 l 270 874 l 191 874 l 374 1122 z "},"ễ":{"ha":798,"x_min":83,"x_max":729,"o":"m 729 346 l 170 346 q 251 127 175 197 q 476 58 328 58 q 691 94 569 58 l 691 22 q 466 -13 571 -13 q 181 83 278 -13 q 83 376 83 178 q 122 589 83 502 q 235 719 161 676 q 411 763 308 763 q 647 664 565 763 q 729 374 729 565 l 729 346 m 410 697 q 170 409 177 697 l 646 409 q 583 626 642 556 q 410 697 524 697 m 524 1211 q 589 1223 560 1211 q 646 1258 619 1234 l 646 1198 q 523 1156 600 1156 q 467 1163 493 1156 q 403 1183 440 1170 q 348 1201 369 1195 q 304 1206 326 1206 q 239 1195 268 1206 q 182 1159 209 1183 l 182 1219 q 305 1261 228 1261 q 361 1254 335 1261 q 425 1234 388 1247 q 480 1217 458 1222 q 524 1211 502 1211 m 372 1115 l 456 1115 l 643 874 l 561 874 l 414 1069 l 267 874 l 185 874 l 372 1115 z "},"ȅ":{"ha":798,"x_min":83,"x_max":729,"o":"m 729 346 l 170 346 q 251 127 175 197 q 476 58 328 58 q 691 94 569 58 l 691 22 q 466 -13 571 -13 q 181 83 278 -13 q 83 376 83 178 q 122 589 83 502 q 235 719 161 676 q 411 763 308 763 q 647 664 565 763 q 729 374 729 565 l 729 346 m 410 697 q 170 409 177 697 l 646 409 q 583 626 642 556 q 410 697 524 697 m 254 874 l 124 1122 l 202 1122 l 326 874 l 254 874 m 501 874 l 371 1122 l 449 1122 l 574 874 l 501 874 z "},"ë":{"ha":798,"x_min":83,"x_max":729,"o":"m 729 346 l 170 346 q 251 127 175 197 q 476 58 328 58 q 691 94 569 58 l 691 22 q 466 -13 571 -13 q 181 83 278 -13 q 83 376 83 178 q 122 589 83 502 q 235 719 161 676 q 411 763 308 763 q 647 664 565 763 q 729 374 729 565 l 729 346 m 410 697 q 170 409 177 697 l 646 409 q 583 626 642 556 q 410 697 524 697 m 242 930 q 199 945 215 930 q 183 987 183 960 q 199 1030 183 1014 q 242 1046 215 1046 q 286 1030 270 1046 q 303 987 303 1014 q 287 945 303 960 q 242 930 271 930 m 585 930 q 541 945 557 930 q 525 987 525 960 q 541 1030 525 1014 q 585 1046 558 1046 q 629 1030 613 1046 q 645 987 645 1014 q 629 945 645 960 q 585 930 613 930 z "},"ė":{"ha":798,"x_min":83,"x_max":729,"o":"m 729 346 l 170 346 q 251 127 175 197 q 476 58 328 58 q 691 94 569 58 l 691 22 q 466 -13 571 -13 q 181 83 278 -13 q 83 376 83 178 q 122 589 83 502 q 235 719 161 676 q 411 763 308 763 q 647 664 565 763 q 729 374 729 565 l 729 346 m 410 697 q 170 409 177 697 l 646 409 q 583 626 642 556 q 410 697 524 697 m 414 929 q 367 944 384 929 q 350 987 350 960 q 367 1030 350 1015 q 414 1046 384 1046 q 461 1030 444 1046 q 478 987 478 1015 q 461 944 478 960 q 414 929 444 929 z "},"ẹ":{"ha":798,"x_min":83,"x_max":729,"o":"m 729 346 l 170 346 q 251 127 175 197 q 476 58 328 58 q 691 94 569 58 l 691 22 q 466 -13 571 -13 q 181 83 278 -13 q 83 376 83 178 q 122 589 83 502 q 235 719 161 676 q 411 763 308 763 q 647 664 565 763 q 729 374 729 565 l 729 346 m 410 697 q 170 409 177 697 l 646 409 q 583 626 642 556 q 410 697 524 697 m 414 -234 q 370 -219 386 -234 q 354 -178 354 -203 q 370 -136 354 -151 q 414 -120 386 -120 q 458 -136 442 -120 q 474 -178 474 -151 q 458 -219 474 -203 q 414 -234 442 -234 z "},"è":{"ha":798,"x_min":83,"x_max":729,"o":"m 729 346 l 170 346 q 251 127 175 197 q 476 58 328 58 q 691 94 569 58 l 691 22 q 466 -13 571 -13 q 181 83 278 -13 q 83 376 83 178 q 122 589 83 502 q 235 719 161 676 q 411 763 308 763 q 647 664 565 763 q 729 374 729 565 l 729 346 m 410 697 q 170 409 177 697 l 646 409 q 583 626 642 556 q 410 697 524 697 m 371 874 l 172 1122 l 272 1122 l 457 874 l 371 874 z "},"ẻ":{"ha":798,"x_min":83,"x_max":729,"o":"m 729 346 l 170 346 q 251 127 175 197 q 476 58 328 58 q 691 94 569 58 l 691 22 q 466 -13 571 -13 q 181 83 278 -13 q 83 376 83 178 q 122 589 83 502 q 235 719 161 676 q 411 763 308 763 q 647 664 565 763 q 729 374 729 565 l 729 346 m 410 697 q 170 409 177 697 l 646 409 q 583 626 642 556 q 410 697 524 697 m 385 874 q 397 919 386 900 q 422 950 408 938 q 459 976 437 962 q 496 1002 484 991 q 508 1032 508 1014 q 484 1070 508 1058 q 413 1082 461 1082 q 352 1078 383 1082 q 294 1065 320 1074 l 294 1114 q 350 1126 317 1122 q 412 1131 382 1131 q 564 1035 564 1131 q 548 985 564 1003 q 502 949 533 967 q 459 915 474 930 q 444 874 445 900 l 385 874 z "},"ȇ":{"ha":798,"x_min":83,"x_max":729,"o":"m 729 346 l 170 346 q 251 127 175 197 q 476 58 328 58 q 691 94 569 58 l 691 22 q 466 -13 571 -13 q 181 83 278 -13 q 83 376 83 178 q 122 589 83 502 q 235 719 161 676 q 411 763 308 763 q 647 664 565 763 q 729 374 729 565 l 729 346 m 410 697 q 170 409 177 697 l 646 409 q 583 626 642 556 q 410 697 524 697 m 189 893 q 251 1055 194 995 q 413 1115 308 1115 q 533 1087 483 1115 q 609 1009 583 1059 q 639 893 635 959 l 577 893 q 531 1015 571 971 q 413 1058 491 1058 q 296 1015 335 1058 q 251 893 257 971 l 189 893 z "},"ē":{"ha":798,"x_min":83,"x_max":729,"o":"m 729 346 l 170 346 q 251 127 175 197 q 476 58 328 58 q 691 94 569 58 l 691 22 q 466 -13 571 -13 q 181 83 278 -13 q 83 376 83 178 q 122 589 83 502 q 235 719 161 676 q 411 763 308 763 q 647 664 565 763 q 729 374 729 565 l 729 346 m 410 697 q 170 409 177 697 l 646 409 q 583 626 642 556 q 410 697 524 697 m 185 958 l 185 1019 l 643 1019 l 643 958 l 185 958 z "},"ḗ":{"ha":798,"x_min":83,"x_max":729,"o":"m 729 346 l 170 346 q 251 127 175 197 q 476 58 328 58 q 691 94 569 58 l 691 22 q 466 -13 571 -13 q 181 83 278 -13 q 83 376 83 178 q 122 589 83 502 q 235 719 161 676 q 411 763 308 763 q 647 664 565 763 q 729 374 729 565 l 729 346 m 410 697 q 170 409 177 697 l 646 409 q 583 626 642 556 q 410 697 524 697 m 185 958 l 185 1019 l 643 1019 l 643 958 l 185 958 m 372 1150 l 524 1343 l 623 1343 l 456 1150 l 372 1150 z "},"ḕ":{"ha":798,"x_min":83,"x_max":729,"o":"m 729 346 l 170 346 q 251 127 175 197 q 476 58 328 58 q 691 94 569 58 l 691 22 q 466 -13 571 -13 q 181 83 278 -13 q 83 376 83 178 q 122 589 83 502 q 235 719 161 676 q 411 763 308 763 q 647 664 565 763 q 729 374 729 565 l 729 346 m 410 697 q 170 409 177 697 l 646 409 q 583 626 642 556 q 410 697 524 697 m 185 958 l 185 1019 l 643 1019 l 643 958 l 185 958 m 372 1150 l 204 1343 l 303 1343 l 456 1150 l 372 1150 z "},"ę":{"ha":798,"x_min":83,"x_max":729,"o":"m 729 346 l 170 346 q 251 127 175 197 q 476 58 328 58 q 691 94 569 58 l 691 22 q 481 -154 481 -40 q 506 -214 481 -192 q 576 -236 532 -236 q 691 -206 633 -236 l 691 -256 q 633 -276 665 -269 q 572 -283 601 -283 q 462 -250 502 -283 q 422 -160 422 -217 q 445 -77 422 -116 q 512 -12 469 -39 q 466 -13 481 -13 q 181 83 278 -13 q 83 376 83 178 q 122 589 83 502 q 235 719 161 676 q 411 763 308 763 q 647 664 565 763 q 729 374 729 565 l 729 346 m 410 697 q 170 408 178 697 l 646 408 q 583 626 642 555 q 410 697 524 697 z "},"ẽ":{"ha":798,"x_min":83,"x_max":729,"o":"m 729 346 l 170 346 q 251 127 175 197 q 476 58 328 58 q 691 94 569 58 l 691 22 q 466 -13 571 -13 q 181 83 278 -13 q 83 376 83 178 q 122 589 83 502 q 235 719 161 676 q 411 763 308 763 q 647 664 565 763 q 729 374 729 565 l 729 346 m 410 697 q 170 409 177 697 l 646 409 q 583 626 642 556 q 410 697 524 697 m 521 944 q 466 952 492 944 q 403 974 439 959 q 347 993 368 987 q 306 999 326 999 q 241 986 270 999 q 185 948 212 974 l 185 1014 q 307 1058 230 1058 q 363 1051 336 1058 q 425 1029 389 1044 q 481 1010 460 1016 q 522 1004 501 1004 q 587 1016 558 1004 q 643 1055 616 1028 l 643 989 q 521 944 598 944 z "},"ə":{"ha":798,"x_min":69,"x_max":715,"o":"m 332 765 q 617 669 519 765 q 715 376 715 574 q 676 163 715 250 q 563 33 637 76 q 387 -11 490 -11 q 151 88 233 -11 q 69 378 69 188 l 69 406 l 628 406 q 547 625 623 556 q 322 694 470 694 q 107 658 228 694 l 107 730 q 332 765 227 765 m 388 55 q 628 343 621 55 l 152 343 q 215 126 156 197 q 388 55 274 55 z "},"f":{"ha":556,"x_min":18,"x_max":588,"o":"m 478 1062 q 357 1041 404 1062 q 288 974 310 1020 q 265 850 265 927 l 265 752 l 556 752 l 556 678 l 265 678 l 265 0 l 178 0 l 178 678 l 18 678 l 18 752 l 178 752 l 178 844 q 252 1063 178 990 q 473 1136 326 1136 q 588 1126 523 1136 l 588 1052 q 478 1062 531 1062 z "},"g":{"ha":878,"x_min":83,"x_max":750,"o":"m 383 -319 q 257 -309 324 -319 q 133 -280 189 -299 l 133 -206 q 381 -247 264 -247 q 542 -220 481 -247 q 634 -136 604 -194 q 664 20 664 -78 l 664 87 l 658 87 q 549 15 613 41 q 408 -10 485 -10 q 240 28 313 -10 q 125 150 167 67 q 83 360 83 233 q 186 662 83 560 q 493 763 290 763 q 750 728 628 763 l 750 33 q 710 -169 750 -92 q 589 -283 669 -247 q 383 -319 508 -319 m 428 65 q 558 90 496 65 q 664 167 619 115 l 664 669 q 484 690 584 690 q 249 611 327 690 q 171 369 171 533 q 240 137 171 208 q 428 65 308 65 z "},"ǵ":{"ha":878,"x_min":83,"x_max":750,"o":"m 383 -319 q 257 -309 324 -319 q 133 -280 189 -299 l 133 -206 q 381 -247 264 -247 q 542 -220 481 -247 q 634 -136 604 -194 q 664 20 664 -78 l 664 87 l 658 87 q 549 15 613 41 q 408 -10 485 -10 q 240 28 313 -10 q 125 150 167 67 q 83 360 83 233 q 186 662 83 560 q 493 763 290 763 q 750 728 628 763 l 750 33 q 710 -169 750 -92 q 589 -283 669 -247 q 383 -319 508 -319 m 428 65 q 558 90 496 65 q 664 167 619 115 l 664 669 q 484 690 584 690 q 249 611 327 690 q 171 369 171 533 q 240 137 171 208 q 428 65 308 65 m 409 874 l 594 1122 l 694 1122 l 495 874 l 409 874 z "},"ğ":{"ha":878,"x_min":83,"x_max":750,"o":"m 383 -319 q 257 -309 324 -319 q 133 -280 189 -299 l 133 -206 q 381 -247 264 -247 q 542 -220 481 -247 q 634 -136 604 -194 q 664 20 664 -78 l 664 87 l 658 87 q 549 15 613 41 q 408 -10 485 -10 q 240 28 313 -10 q 125 150 167 67 q 83 360 83 233 q 186 662 83 560 q 493 763 290 763 q 750 728 628 763 l 750 33 q 710 -169 750 -92 q 589 -283 669 -247 q 383 -319 508 -319 m 428 65 q 558 90 496 65 q 664 167 619 115 l 664 669 q 484 690 584 690 q 249 611 327 690 q 171 369 171 533 q 240 137 171 208 q 428 65 308 65 m 453 881 q 333 909 383 881 q 257 988 283 938 q 227 1103 231 1038 l 289 1103 q 335 981 295 1025 q 453 937 374 937 q 615 1103 602 937 l 677 1103 q 615 941 672 1001 q 453 881 558 881 z "},"ǧ":{"ha":878,"x_min":83,"x_max":750,"o":"m 383 -319 q 257 -309 324 -319 q 133 -280 189 -299 l 133 -206 q 381 -247 264 -247 q 542 -220 481 -247 q 634 -136 604 -194 q 664 20 664 -78 l 664 87 l 658 87 q 549 15 613 41 q 408 -10 485 -10 q 240 28 313 -10 q 125 150 167 67 q 83 360 83 233 q 186 662 83 560 q 493 763 290 763 q 750 728 628 763 l 750 33 q 710 -169 750 -92 q 589 -283 669 -247 q 383 -319 508 -319 m 428 65 q 558 90 496 65 q 664 167 619 115 l 664 669 q 484 690 584 690 q 249 611 327 690 q 171 369 171 533 q 240 137 171 208 q 428 65 308 65 m 601 1122 l 680 1122 l 492 874 l 412 874 l 224 1122 l 303 1122 l 452 921 l 601 1122 z "},"ĝ":{"ha":878,"x_min":83,"x_max":750,"o":"m 383 -319 q 257 -309 324 -319 q 133 -280 189 -299 l 133 -206 q 381 -247 264 -247 q 542 -220 481 -247 q 634 -136 604 -194 q 664 20 664 -78 l 664 87 l 658 87 q 549 15 613 41 q 408 -10 485 -10 q 240 28 313 -10 q 125 150 167 67 q 83 360 83 233 q 186 662 83 560 q 493 763 290 763 q 750 728 628 763 l 750 33 q 710 -169 750 -92 q 589 -283 669 -247 q 383 -319 508 -319 m 428 65 q 558 90 496 65 q 664 167 619 115 l 664 669 q 484 690 584 690 q 249 611 327 690 q 171 369 171 533 q 240 137 171 208 q 428 65 308 65 m 675 874 l 596 874 l 452 1073 l 308 874 l 229 874 l 412 1122 l 492 1122 l 675 874 z "},"ģ":{"ha":878,"x_min":83,"x_max":750,"o":"m 383 -319 q 257 -309 324 -319 q 133 -280 189 -299 l 133 -206 q 381 -247 264 -247 q 542 -220 481 -247 q 634 -136 604 -194 q 664 20 664 -78 l 664 87 l 658 87 q 549 15 613 41 q 408 -10 485 -10 q 240 28 313 -10 q 125 150 167 67 q 83 360 83 233 q 186 662 83 560 q 493 763 290 763 q 750 728 628 763 l 750 33 q 710 -169 750 -92 q 589 -283 669 -247 q 383 -319 508 -319 m 428 65 q 558 90 496 65 q 664 167 619 115 l 664 669 q 484 690 584 690 q 249 611 327 690 q 171 369 171 533 q 240 137 171 208 q 428 65 308 65 m 454 1031 q 498 1017 483 1031 q 513 981 513 1003 q 498 943 513 957 q 454 930 483 930 q 407 947 423 930 q 391 999 391 965 q 400 1063 391 1028 q 426 1128 409 1097 l 480 1128 q 454 1031 457 1072 z "},"ġ":{"ha":878,"x_min":83,"x_max":750,"o":"m 383 -319 q 257 -309 324 -319 q 133 -280 189 -299 l 133 -206 q 381 -247 264 -247 q 542 -220 481 -247 q 634 -136 604 -194 q 664 20 664 -78 l 664 87 l 658 87 q 549 15 613 41 q 408 -10 485 -10 q 240 28 313 -10 q 125 150 167 67 q 83 360 83 233 q 186 662 83 560 q 493 763 290 763 q 750 728 628 763 l 750 33 q 710 -169 750 -92 q 589 -283 669 -247 q 383 -319 508 -319 m 428 65 q 558 90 496 65 q 664 167 619 115 l 664 669 q 484 690 584 690 q 249 611 327 690 q 171 369 171 533 q 240 137 171 208 q 428 65 308 65 m 452 929 q 405 944 422 929 q 388 987 388 960 q 405 1030 388 1015 q 452 1046 422 1046 q 499 1030 482 1046 q 516 987 516 1015 q 499 944 516 960 q 452 929 482 929 z "},"ḡ":{"ha":878,"x_min":83,"x_max":750,"o":"m 383 -319 q 257 -309 324 -319 q 133 -280 189 -299 l 133 -206 q 381 -247 264 -247 q 542 -220 481 -247 q 634 -136 604 -194 q 664 20 664 -78 l 664 87 l 658 87 q 549 15 613 41 q 408 -10 485 -10 q 240 28 313 -10 q 125 150 167 67 q 83 360 83 233 q 186 662 83 560 q 493 763 290 763 q 750 728 628 763 l 750 33 q 710 -169 750 -92 q 589 -283 669 -247 q 383 -319 508 -319 m 428 65 q 558 90 496 65 q 664 167 619 115 l 664 669 q 484 690 584 690 q 249 611 327 690 q 171 369 171 533 q 240 137 171 208 q 428 65 308 65 m 223 958 l 223 1019 l 681 1019 l 681 958 l 223 958 z "},"h":{"ha":885,"x_min":128,"x_max":769,"o":"m 128 1122 l 215 1122 l 215 665 l 220 665 q 346 738 275 713 q 495 763 417 763 q 696 695 624 763 q 769 482 769 627 l 769 0 l 683 0 l 683 478 q 630 636 683 588 q 478 685 576 685 q 335 657 405 685 q 215 575 266 630 l 215 0 l 128 0 l 128 1122 z "},"ħ":{"ha":885,"x_min":10,"x_max":769,"o":"m 495 763 q 696 695 624 763 q 769 482 769 627 l 769 0 l 683 0 l 683 478 q 630 636 683 588 q 478 685 576 685 q 335 657 405 685 q 215 575 266 630 l 215 0 l 128 0 l 128 910 l 10 910 l 10 972 l 128 972 l 128 1122 l 215 1122 l 215 972 l 511 972 l 511 910 l 215 910 l 215 665 l 220 665 q 346 738 275 713 q 495 763 417 763 z "},"ḫ":{"ha":885,"x_min":128,"x_max":769,"o":"m 128 1122 l 215 1122 l 215 665 l 220 665 q 346 738 275 713 q 495 763 417 763 q 696 695 624 763 q 769 482 769 627 l 769 0 l 683 0 l 683 478 q 630 636 683 588 q 478 685 576 685 q 335 657 405 685 q 215 575 266 630 l 215 0 l 128 0 l 128 1122 m 451 -286 q 328 -263 378 -286 q 251 -200 277 -240 q 224 -109 226 -160 l 286 -109 q 330 -197 290 -165 q 451 -228 369 -228 q 613 -109 606 -228 l 674 -109 q 648 -200 673 -160 q 573 -263 623 -240 q 451 -286 523 -286 z "},"ĥ":{"ha":885,"x_min":128,"x_max":769,"o":"m 128 1122 l 215 1122 l 215 665 l 220 665 q 346 738 275 713 q 495 763 417 763 q 696 695 624 763 q 769 482 769 627 l 769 0 l 683 0 l 683 478 q 630 636 683 588 q 478 685 576 685 q 335 657 405 685 q 215 575 266 630 l 215 0 l 128 0 l 128 1122 m 693 1186 l 602 1186 l 449 1335 l 297 1186 l 206 1186 l 408 1379 l 491 1379 l 693 1186 z "},"ḥ":{"ha":885,"x_min":128,"x_max":769,"o":"m 128 1122 l 215 1122 l 215 665 l 220 665 q 346 738 275 713 q 495 763 417 763 q 696 695 624 763 q 769 482 769 627 l 769 0 l 683 0 l 683 478 q 630 636 683 588 q 478 685 576 685 q 335 657 405 685 q 215 575 266 630 l 215 0 l 128 0 l 128 1122 m 449 -234 q 406 -219 422 -234 q 390 -178 390 -203 q 406 -136 390 -151 q 449 -120 422 -120 q 493 -136 477 -120 q 509 -178 509 -151 q 493 -219 509 -203 q 449 -234 477 -234 z "},"i":{"ha":342,"x_min":108,"x_max":235,"o":"m 128 0 l 128 752 l 215 752 l 215 0 l 128 0 m 172 929 q 125 944 142 929 q 108 987 108 960 q 125 1030 108 1015 q 172 1046 142 1046 q 218 1030 201 1046 q 235 987 235 1015 q 218 944 235 960 q 172 929 201 929 z "},"ı":{"ha":342,"x_min":128,"x_max":215,"o":"m 128 0 l 128 752 l 215 752 l 215 0 l 128 0 z "},"í":{"ha":342,"x_min":128,"x_max":414,"o":"m 128 0 l 128 752 l 215 752 l 215 0 l 128 0 m 128 874 l 314 1122 l 414 1122 l 215 874 l 128 874 z "},"ĭ":{"ha":342,"x_min":-53,"x_max":397,"o":"m 128 0 l 128 752 l 215 752 l 215 0 l 128 0 m 173 881 q 53 909 103 881 q -24 988 3 938 q -53 1103 -50 1038 l 8 1103 q 54 981 15 1025 q 173 937 94 937 q 335 1103 322 937 l 397 1103 q 334 941 392 1001 q 173 881 277 881 z "},"î":{"ha":342,"x_min":-51,"x_max":394,"o":"m 128 0 l 128 752 l 215 752 l 215 0 l 128 0 m 394 874 l 315 874 l 172 1073 l 28 874 l -51 874 l 131 1122 l 212 1122 l 394 874 z "},"ȉ":{"ha":342,"x_min":-119,"x_max":331,"o":"m 128 0 l 128 752 l 215 752 l 215 0 l 128 0 m 12 874 l -119 1122 l -40 1122 l 84 874 l 12 874 m 259 874 l 128 1122 l 206 1122 l 331 874 l 259 874 z "},"ï":{"ha":342,"x_min":-60,"x_max":403,"o":"m 128 0 l 128 752 l 215 752 l 215 0 l 128 0 m 0 930 q -44 945 -28 930 q -60 987 -60 960 q -44 1030 -60 1014 q 0 1046 -28 1046 q 44 1030 28 1046 q 60 987 60 1014 q 44 945 60 960 q 0 930 28 930 m 343 930 q 299 945 315 930 q 283 987 283 960 q 299 1030 283 1014 q 343 1046 315 1046 q 386 1030 370 1046 q 403 987 403 1014 q 387 945 403 960 q 343 930 371 930 z "},"ḯ":{"ha":342,"x_min":-60,"x_max":403,"o":"m 128 0 l 128 752 l 215 752 l 215 0 l 128 0 m 0 930 q -44 945 -28 930 q -60 987 -60 960 q -44 1030 -60 1014 q 0 1046 -28 1046 q 44 1030 28 1046 q 60 987 60 1014 q 44 945 60 960 q 0 930 28 930 m 343 930 q 299 945 315 930 q 283 987 283 960 q 299 1030 283 1014 q 343 1046 315 1046 q 386 1030 370 1046 q 403 987 403 1014 q 387 945 403 960 q 343 930 371 930 m 129 1150 l 281 1343 l 381 1343 l 213 1150 l 129 1150 z "},"ị":{"ha":342,"x_min":108,"x_max":235,"o":"m 128 0 l 128 752 l 215 752 l 215 0 l 128 0 m 172 929 q 125 944 142 929 q 108 987 108 960 q 125 1030 108 1015 q 172 1046 142 1046 q 218 1030 201 1046 q 235 987 235 1015 q 218 944 235 960 q 172 929 201 929 m 172 -234 q 128 -219 144 -234 q 112 -178 112 -203 q 128 -136 112 -151 q 172 -120 144 -120 q 215 -136 199 -120 q 231 -178 231 -151 q 215 -219 231 -203 q 172 -234 199 -234 z "},"ì":{"ha":342,"x_min":-71,"x_max":215,"o":"m 128 0 l 128 752 l 215 752 l 215 0 l 128 0 m 128 874 l -71 1122 l 29 1122 l 215 874 l 128 874 z "},"ỉ":{"ha":342,"x_min":51,"x_max":322,"o":"m 128 0 l 128 752 l 215 752 l 215 0 l 128 0 m 143 874 q 155 919 144 900 q 180 950 165 938 q 217 976 194 962 q 253 1002 242 991 q 265 1032 265 1014 q 242 1070 265 1058 q 170 1082 219 1082 q 109 1078 141 1082 q 51 1065 78 1074 l 51 1114 q 107 1126 75 1122 q 169 1131 140 1131 q 322 1035 322 1131 q 306 985 322 1003 q 260 949 290 967 q 217 915 231 930 q 201 874 203 900 l 143 874 z "},"ȋ":{"ha":342,"x_min":-53,"x_max":397,"o":"m 128 0 l 128 752 l 215 752 l 215 0 l 128 0 m -53 893 q 8 1055 -49 995 q 170 1115 65 1115 q 290 1087 240 1115 q 367 1009 340 1059 q 397 893 393 959 l 335 893 q 289 1015 328 971 q 170 1058 249 1058 q 53 1015 92 1058 q 8 893 15 971 l -53 893 z "},"ī":{"ha":342,"x_min":-58,"x_max":401,"o":"m 128 0 l 128 752 l 215 752 l 215 0 l 128 0 m -58 958 l -58 1019 l 401 1019 l 401 958 l -58 958 z "},"į":{"ha":342,"x_min":18,"x_max":287,"o":"m 172 929 q 125 944 142 929 q 108 987 108 960 q 125 1030 108 1015 q 172 1046 142 1046 q 218 1030 201 1046 q 235 987 235 1015 q 218 944 235 960 q 172 929 201 929 m 173 -236 q 287 -206 230 -236 l 287 -256 q 229 -276 260 -269 q 168 -283 198 -283 q 58 -250 98 -283 q 18 -160 18 -217 q 44 -71 18 -112 q 128 4 71 -31 l 128 752 l 215 752 l 215 0 q 109 -74 141 -37 q 77 -156 77 -110 q 103 -214 77 -192 q 173 -236 128 -236 z "},"ĩ":{"ha":342,"x_min":-58,"x_max":401,"o":"m 128 0 l 128 752 l 215 752 l 215 0 l 128 0 m 278 944 q 223 952 250 944 q 160 974 197 959 q 105 993 126 987 q 63 999 84 999 q -1 986 28 999 q -58 948 -31 974 l -58 1014 q 65 1058 -12 1058 q 120 1051 94 1058 q 183 1029 147 1044 q 238 1010 217 1016 q 280 1004 259 1004 q 344 1016 315 1004 q 401 1055 374 1028 l 401 989 q 278 944 356 944 z "},"j":{"ha":342,"x_min":-12,"x_max":234,"o":"m -12 -281 q 95 -97 61 -192 q 128 117 128 -1 l 128 752 l 215 752 l 215 121 q 174 -114 215 -9 q 44 -321 133 -219 l -12 -281 m 170 936 q 123 951 140 936 q 106 994 106 967 q 123 1037 106 1022 q 170 1053 140 1053 q 217 1037 200 1053 q 234 994 234 1022 q 217 951 234 967 q 170 936 200 936 z "},"ȷ":{"ha":342,"x_min":-12,"x_max":215,"o":"m -12 -281 q 95 -97 61 -192 q 128 117 128 -1 l 128 752 l 215 752 l 215 121 q 174 -114 215 -9 q 44 -321 133 -219 l -12 -281 z "},"ĵ":{"ha":342,"x_min":-53,"x_max":393,"o":"m -12 -281 q 95 -97 61 -192 q 128 117 128 -1 l 128 752 l 215 752 l 215 121 q 174 -114 215 -9 q 44 -321 133 -219 l -12 -281 m 393 881 l 314 881 l 170 1080 l 26 881 l -53 881 l 130 1129 l 210 1129 l 393 881 z "},"k":{"ha":788,"x_min":128,"x_max":795,"o":"m 694 0 l 381 347 l 215 347 l 215 0 l 128 0 l 128 1122 l 215 1122 l 215 422 l 381 422 l 673 752 l 773 752 l 452 386 l 795 0 l 694 0 z "},"ķ":{"ha":788,"x_min":128,"x_max":795,"o":"m 694 0 l 381 347 l 215 347 l 215 0 l 128 0 l 128 1122 l 215 1122 l 215 422 l 381 422 l 673 752 l 773 752 l 452 386 l 795 0 l 694 0 m 415 -120 q 462 -137 446 -120 q 478 -189 478 -155 q 469 -252 478 -217 q 442 -318 460 -287 l 389 -318 q 415 -222 412 -262 q 371 -207 387 -221 q 356 -170 356 -193 q 371 -134 356 -147 q 415 -120 387 -120 z "},"ĸ":{"ha":788,"x_min":128,"x_max":795,"o":"m 694 0 l 381 347 l 215 347 l 215 0 l 128 0 l 128 752 l 215 752 l 215 422 l 381 422 l 673 752 l 773 752 l 452 386 l 795 0 l 694 0 z "},"l":{"ha":342,"x_min":128,"x_max":215,"o":"m 128 0 l 128 1122 l 215 1122 l 215 0 l 128 0 z "},"ĺ":{"ha":342,"x_min":128,"x_max":381,"o":"m 128 0 l 128 1122 l 215 1122 l 215 0 l 128 0 m 129 1186 l 281 1379 l 381 1379 l 213 1186 l 129 1186 z "},"ľ":{"ha":342,"x_min":128,"x_max":375,"o":"m 128 0 l 128 1122 l 215 1122 l 215 0 l 128 0 m 293 819 q 308 1122 308 935 l 375 1122 q 368 966 375 1045 q 344 819 360 887 l 293 819 z "},"ļ":{"ha":342,"x_min":110,"x_max":232,"o":"m 128 0 l 128 1122 l 215 1122 l 215 0 l 128 0 m 169 -120 q 216 -137 200 -120 q 232 -189 232 -155 q 223 -252 232 -217 q 197 -318 214 -287 l 143 -318 q 169 -222 166 -262 q 125 -207 141 -221 q 110 -170 110 -193 q 125 -134 110 -147 q 169 -120 141 -120 z "},"ŀ":{"ha":387,"x_min":128,"x_max":419,"o":"m 128 0 l 128 1122 l 215 1122 l 215 0 l 128 0 m 355 492 q 308 508 325 492 q 291 550 291 523 q 308 593 291 577 q 355 609 325 609 q 402 593 385 609 q 419 550 419 577 q 402 508 419 523 q 355 492 385 492 z "},"ḷ":{"ha":342,"x_min":111,"x_max":231,"o":"m 128 0 l 128 1122 l 215 1122 l 215 0 l 128 0 m 171 -234 q 127 -219 143 -234 q 111 -178 111 -203 q 127 -136 111 -151 q 171 -120 143 -120 q 215 -136 199 -120 q 231 -178 231 -151 q 215 -219 231 -203 q 171 -234 199 -234 z "},"ǉ":{"ha":685,"x_min":128,"x_max":576,"o":"m 128 0 l 128 1122 l 215 1122 l 215 0 l 128 0 m 330 -281 q 437 -97 403 -192 q 471 117 471 -1 l 471 752 l 557 752 l 557 121 q 516 -114 557 -9 q 387 -321 476 -219 l 330 -281 m 513 936 q 466 951 483 936 q 449 994 449 967 q 466 1037 449 1022 q 513 1053 483 1053 q 559 1037 542 1053 q 576 994 576 1022 q 559 951 576 967 q 513 936 542 936 z "},"ḻ":{"ha":342,"x_min":-37,"x_max":378,"o":"m 128 0 l 128 1122 l 215 1122 l 215 0 l 128 0 m -37 -208 l -37 -148 l 378 -148 l 378 -208 l -37 -208 z "},"ł":{"ha":351,"x_min":6,"x_max":346,"o":"m 346 578 l 219 488 l 219 0 l 133 0 l 133 427 l 40 362 l 6 414 l 133 503 l 133 1122 l 219 1122 l 219 564 l 312 630 l 346 578 z "},"m":{"ha":1290,"x_min":128,"x_max":1174,"o":"m 926 763 q 1108 695 1042 763 q 1174 482 1174 627 l 1174 0 l 1088 0 l 1088 478 q 1041 637 1088 588 q 911 686 995 686 q 791 660 851 686 q 688 578 731 634 q 697 483 697 537 l 697 0 l 612 0 l 612 478 q 567 638 612 589 q 440 686 522 686 q 318 658 377 686 q 215 573 259 630 l 215 0 l 128 0 l 128 752 l 201 752 l 208 663 l 214 663 q 324 738 261 712 q 457 763 387 763 q 663 650 607 763 q 790 736 722 709 q 926 763 858 763 z "},"ṃ":{"ha":1290,"x_min":128,"x_max":1174,"o":"m 926 763 q 1108 695 1042 763 q 1174 482 1174 627 l 1174 0 l 1088 0 l 1088 478 q 1041 637 1088 588 q 911 686 995 686 q 791 660 851 686 q 688 578 731 634 q 697 483 697 537 l 697 0 l 612 0 l 612 478 q 567 638 612 589 q 440 686 522 686 q 318 658 377 686 q 215 573 259 630 l 215 0 l 128 0 l 128 752 l 201 752 l 208 663 l 214 663 q 324 738 261 712 q 457 763 387 763 q 663 650 607 763 q 790 736 722 709 q 926 763 858 763 m 654 -234 q 610 -219 626 -234 q 594 -178 594 -203 q 610 -136 594 -151 q 654 -120 626 -120 q 698 -136 682 -120 q 714 -178 714 -151 q 698 -219 714 -203 q 654 -234 682 -234 z "},"n":{"ha":885,"x_min":128,"x_max":769,"o":"m 128 752 l 201 752 l 208 663 l 214 663 q 342 738 270 712 q 492 763 414 763 q 696 694 623 763 q 769 477 769 625 l 769 0 l 683 0 l 683 476 q 630 636 683 587 q 478 686 578 686 q 338 659 408 686 q 215 576 267 633 l 215 0 l 128 0 l 128 752 z "},"ń":{"ha":885,"x_min":128,"x_max":769,"o":"m 128 752 l 201 752 l 208 663 l 214 663 q 342 738 270 712 q 492 763 414 763 q 696 694 623 763 q 769 477 769 625 l 769 0 l 683 0 l 683 476 q 630 636 683 587 q 478 686 578 686 q 338 659 408 686 q 215 576 267 633 l 215 0 l 128 0 l 128 752 m 406 874 l 592 1122 l 692 1122 l 492 874 l 406 874 z "},"ŉ":{"ha":885,"x_min":10,"x_max":769,"o":"m 128 752 l 201 752 l 208 663 l 214 663 q 342 738 270 712 q 492 763 414 763 q 696 694 623 763 q 769 477 769 625 l 769 0 l 683 0 l 683 476 q 630 636 683 587 q 478 686 578 686 q 338 659 408 686 q 215 576 267 633 l 215 0 l 128 0 l 128 752 m 69 1128 q 117 1111 101 1128 q 133 1060 133 1093 q 124 996 133 1031 q 97 930 115 961 l 44 930 q 69 1026 66 982 q 26 1041 42 1027 q 10 1078 10 1055 q 26 1115 10 1101 q 69 1128 42 1128 z "},"ň":{"ha":885,"x_min":128,"x_max":769,"o":"m 128 752 l 201 752 l 208 663 l 214 663 q 342 738 270 712 q 492 763 414 763 q 696 694 623 763 q 769 477 769 625 l 769 0 l 683 0 l 683 476 q 630 636 683 587 q 478 686 578 686 q 338 659 408 686 q 215 576 267 633 l 215 0 l 128 0 l 128 752 m 598 1122 l 677 1122 l 490 874 l 409 874 l 222 1122 l 301 1122 l 449 921 l 598 1122 z "},"ņ":{"ha":885,"x_min":128,"x_max":769,"o":"m 128 752 l 201 752 l 208 663 l 214 663 q 342 738 270 712 q 492 763 414 763 q 696 694 623 763 q 769 477 769 625 l 769 0 l 683 0 l 683 476 q 630 636 683 587 q 478 686 578 686 q 338 659 408 686 q 215 576 267 633 l 215 0 l 128 0 l 128 752 m 447 -120 q 494 -137 478 -120 q 510 -189 510 -155 q 501 -252 510 -217 q 475 -318 492 -287 l 422 -318 q 447 -222 444 -262 q 404 -207 419 -221 q 388 -170 388 -193 q 404 -134 388 -147 q 447 -120 419 -120 z "},"ṅ":{"ha":885,"x_min":128,"x_max":769,"o":"m 128 752 l 201 752 l 208 663 l 214 663 q 342 738 270 712 q 492 763 414 763 q 696 694 623 763 q 769 477 769 625 l 769 0 l 683 0 l 683 476 q 630 636 683 587 q 478 686 578 686 q 338 659 408 686 q 215 576 267 633 l 215 0 l 128 0 l 128 752 m 449 929 q 402 944 419 929 q 385 987 385 960 q 402 1030 385 1015 q 449 1046 419 1046 q 496 1030 479 1046 q 513 987 513 1015 q 496 944 513 960 q 449 929 479 929 z "},"ṇ":{"ha":885,"x_min":128,"x_max":769,"o":"m 128 752 l 201 752 l 208 663 l 214 663 q 342 738 270 712 q 492 763 414 763 q 696 694 623 763 q 769 477 769 625 l 769 0 l 683 0 l 683 476 q 630 636 683 587 q 478 686 578 686 q 338 659 408 686 q 215 576 267 633 l 215 0 l 128 0 l 128 752 m 449 -234 q 406 -219 422 -234 q 390 -178 390 -203 q 406 -136 390 -151 q 449 -120 422 -120 q 493 -136 477 -120 q 509 -178 509 -151 q 493 -219 509 -203 q 449 -234 477 -234 z "},"ŋ":{"ha":885,"x_min":128,"x_max":769,"o":"m 542 -281 q 649 -97 615 -192 q 683 117 683 -1 l 683 478 q 630 638 683 589 q 478 686 576 686 q 336 658 406 686 q 215 575 266 631 l 215 0 l 128 0 l 128 752 l 201 752 l 208 663 l 214 663 q 341 738 269 712 q 493 763 413 763 q 696 695 623 763 q 769 482 769 627 l 769 97 q 724 -125 763 -28 q 599 -321 685 -222 l 542 -281 z "},"ǌ":{"ha":1228,"x_min":128,"x_max":1119,"o":"m 128 752 l 201 752 l 208 663 l 214 663 q 342 738 270 712 q 492 763 414 763 q 696 694 623 763 q 769 477 769 625 l 769 0 l 683 0 l 683 476 q 630 636 683 587 q 478 686 578 686 q 338 659 408 686 q 215 576 267 633 l 215 0 l 128 0 l 128 752 m 873 -281 q 980 -97 947 -192 q 1014 117 1014 -1 l 1014 752 l 1100 752 l 1100 121 q 1059 -114 1100 -9 q 930 -321 1019 -219 l 873 -281 m 1056 936 q 1009 951 1026 936 q 992 994 992 967 q 1009 1037 992 1022 q 1056 1053 1026 1053 q 1102 1037 1085 1053 q 1119 994 1119 1022 q 1102 951 1119 967 q 1056 936 1085 936 z "},"ṉ":{"ha":885,"x_min":128,"x_max":769,"o":"m 128 752 l 201 752 l 208 663 l 214 663 q 342 738 270 712 q 492 763 414 763 q 696 694 623 763 q 769 477 769 625 l 769 0 l 683 0 l 683 476 q 630 636 683 587 q 478 686 578 686 q 338 659 408 686 q 215 576 267 633 l 215 0 l 128 0 l 128 752 m 242 -208 l 242 -148 l 657 -148 l 657 -208 l 242 -208 z "},"ñ":{"ha":885,"x_min":128,"x_max":769,"o":"m 128 752 l 201 752 l 208 663 l 214 663 q 342 738 270 712 q 492 763 414 763 q 696 694 623 763 q 769 477 769 625 l 769 0 l 683 0 l 683 476 q 630 636 683 587 q 478 686 578 686 q 338 659 408 686 q 215 576 267 633 l 215 0 l 128 0 l 128 752 m 556 944 q 501 952 528 944 q 438 974 474 959 q 383 993 403 987 q 341 999 362 999 q 276 986 306 999 q 220 948 247 974 l 220 1014 q 342 1058 265 1058 q 398 1051 372 1058 q 460 1029 424 1044 q 516 1010 495 1016 q 558 1004 537 1004 q 622 1016 593 1004 q 678 1055 651 1028 l 678 989 q 556 944 633 944 z "},"o":{"ha":862,"x_min":83,"x_max":779,"o":"m 431 -13 q 175 83 268 -13 q 83 376 83 180 q 125 592 83 506 q 246 721 168 678 q 431 763 324 763 q 687 668 595 763 q 779 376 779 572 q 736 159 779 247 q 614 30 692 72 q 431 -13 536 -13 m 431 60 q 691 375 691 60 q 623 615 691 540 q 431 690 556 690 q 171 377 171 690 q 431 60 171 60 z "},"ó":{"ha":862,"x_min":83,"x_max":779,"o":"m 431 -13 q 175 83 268 -13 q 83 376 83 180 q 125 592 83 506 q 246 721 168 678 q 431 763 324 763 q 687 668 595 763 q 779 376 779 572 q 736 159 779 247 q 614 30 692 72 q 431 -13 536 -13 m 431 60 q 691 375 691 60 q 623 615 691 540 q 431 690 556 690 q 171 377 171 690 q 431 60 171 60 m 388 874 l 573 1122 l 673 1122 l 474 874 l 388 874 z "},"ŏ":{"ha":862,"x_min":83,"x_max":779,"o":"m 431 -13 q 175 83 268 -13 q 83 376 83 180 q 125 592 83 506 q 246 721 168 678 q 431 763 324 763 q 687 668 595 763 q 779 376 779 572 q 736 159 779 247 q 614 30 692 72 q 431 -13 536 -13 m 431 60 q 691 375 691 60 q 623 615 691 540 q 431 690 556 690 q 171 377 171 690 q 431 60 171 60 m 432 881 q 312 909 362 881 q 235 988 262 938 q 206 1103 209 1038 l 267 1103 q 313 981 274 1025 q 432 937 353 937 q 594 1103 581 937 l 656 1103 q 593 941 651 1001 q 432 881 536 881 z "},"ô":{"ha":862,"x_min":83,"x_max":779,"o":"m 431 -13 q 175 83 268 -13 q 83 376 83 180 q 125 592 83 506 q 246 721 168 678 q 431 763 324 763 q 687 668 595 763 q 779 376 779 572 q 736 159 779 247 q 614 30 692 72 q 431 -13 536 -13 m 431 60 q 691 375 691 60 q 623 615 691 540 q 431 690 556 690 q 171 377 171 690 q 431 60 171 60 m 653 874 l 574 874 l 431 1073 l 287 874 l 208 874 l 390 1122 l 471 1122 l 653 874 z "},"ố":{"ha":862,"x_min":83,"x_max":831,"o":"m 431 -13 q 175 83 268 -13 q 83 376 83 180 q 125 592 83 506 q 246 721 168 678 q 431 763 324 763 q 687 668 595 763 q 779 376 779 572 q 736 159 779 247 q 614 30 692 72 q 431 -13 536 -13 m 431 60 q 691 375 691 60 q 623 615 691 540 q 431 690 556 690 q 171 377 171 690 q 431 60 171 60 m 741 1297 l 831 1297 l 663 1108 l 589 1108 l 741 1297 m 390 1122 l 471 1122 l 653 874 l 574 874 l 431 1073 l 287 874 l 208 874 l 390 1122 z "},"ộ":{"ha":862,"x_min":83,"x_max":779,"o":"m 431 -13 q 175 83 268 -13 q 83 376 83 180 q 125 592 83 506 q 246 721 168 678 q 431 763 324 763 q 687 668 595 763 q 779 376 779 572 q 736 159 779 247 q 614 30 692 72 q 431 -13 536 -13 m 431 60 q 691 375 691 60 q 623 615 691 540 q 431 690 556 690 q 171 377 171 690 q 431 60 171 60 m 431 -234 q 387 -219 403 -234 q 371 -178 371 -203 q 387 -136 371 -151 q 431 -120 403 -120 q 474 -136 458 -120 q 490 -178 490 -151 q 474 -219 490 -203 q 431 -234 458 -234 m 653 874 l 574 874 l 431 1073 l 287 874 l 208 874 l 390 1122 l 471 1122 l 653 874 z "},"ồ":{"ha":862,"x_min":83,"x_max":779,"o":"m 431 -13 q 175 83 268 -13 q 83 376 83 180 q 125 592 83 506 q 246 721 168 678 q 431 763 324 763 q 687 668 595 763 q 779 376 779 572 q 736 159 779 247 q 614 30 692 72 q 431 -13 536 -13 m 431 60 q 691 375 691 60 q 623 615 691 540 q 431 690 556 690 q 171 377 171 690 q 431 60 171 60 m 683 1108 l 608 1108 l 441 1297 l 530 1297 l 683 1108 m 390 1122 l 471 1122 l 653 874 l 574 874 l 431 1073 l 287 874 l 208 874 l 390 1122 z "},"ổ":{"ha":862,"x_min":83,"x_max":779,"o":"m 431 -13 q 175 83 268 -13 q 83 376 83 180 q 125 592 83 506 q 246 721 168 678 q 431 763 324 763 q 687 668 595 763 q 779 376 779 572 q 736 159 779 247 q 614 30 692 72 q 431 -13 536 -13 m 431 60 q 691 375 691 60 q 623 615 691 540 q 431 690 556 690 q 171 377 171 690 q 431 60 171 60 m 634 1300 q 739 1280 705 1300 q 772 1223 772 1259 q 756 1184 772 1197 q 708 1157 740 1170 q 667 1136 681 1146 q 651 1108 653 1126 l 594 1108 q 615 1152 595 1137 q 668 1181 634 1167 q 706 1199 694 1191 q 717 1220 717 1207 q 698 1246 717 1237 q 631 1255 678 1255 q 557 1250 590 1255 q 485 1232 524 1244 l 485 1276 q 634 1300 548 1300 m 390 1122 l 471 1122 l 653 874 l 574 874 l 431 1073 l 287 874 l 208 874 l 390 1122 z "},"ỗ":{"ha":862,"x_min":83,"x_max":779,"o":"m 431 -13 q 175 83 268 -13 q 83 376 83 180 q 125 592 83 506 q 246 721 168 678 q 431 763 324 763 q 687 668 595 763 q 779 376 779 572 q 736 159 779 247 q 614 30 692 72 q 431 -13 536 -13 m 431 60 q 691 375 691 60 q 623 615 691 540 q 431 690 556 690 q 171 377 171 690 q 431 60 171 60 m 540 1211 q 606 1223 576 1211 q 663 1258 635 1234 l 663 1198 q 540 1156 617 1156 q 483 1163 510 1156 q 419 1183 457 1170 q 364 1201 386 1195 q 321 1206 342 1206 q 255 1195 285 1206 q 199 1159 226 1183 l 199 1219 q 322 1261 244 1261 q 378 1254 351 1261 q 442 1234 404 1247 q 497 1217 475 1222 q 540 1211 519 1211 m 389 1115 l 472 1115 l 660 874 l 578 874 l 431 1069 l 283 874 l 201 874 l 389 1115 z "},"ȍ":{"ha":862,"x_min":83,"x_max":779,"o":"m 431 -13 q 175 83 268 -13 q 83 376 83 180 q 125 592 83 506 q 246 721 168 678 q 431 763 324 763 q 687 668 595 763 q 779 376 779 572 q 736 159 779 247 q 614 30 692 72 q 431 -13 536 -13 m 431 60 q 691 375 691 60 q 623 615 691 540 q 431 690 556 690 q 171 377 171 690 q 431 60 171 60 m 271 874 l 140 1122 l 219 1122 l 343 874 l 271 874 m 518 874 l 388 1122 l 465 1122 l 590 874 l 518 874 z "},"ö":{"ha":862,"x_min":83,"x_max":779,"o":"m 431 -13 q 175 83 268 -13 q 83 376 83 180 q 125 592 83 506 q 246 721 168 678 q 431 763 324 763 q 687 668 595 763 q 779 376 779 572 q 736 159 779 247 q 614 30 692 72 q 431 -13 536 -13 m 431 60 q 691 375 691 60 q 623 615 691 540 q 431 690 556 690 q 171 377 171 690 q 431 60 171 60 m 259 930 q 215 945 231 930 q 199 987 199 960 q 215 1030 199 1014 q 259 1046 231 1046 q 303 1030 287 1046 q 319 987 319 1014 q 303 945 319 960 q 259 930 288 930 m 602 930 q 558 945 574 930 q 542 987 542 960 q 558 1030 542 1014 q 602 1046 574 1046 q 645 1030 629 1046 q 662 987 662 1014 q 646 945 662 960 q 602 930 630 930 z "},"ȫ":{"ha":862,"x_min":83,"x_max":779,"o":"m 431 -13 q 175 83 268 -13 q 83 376 83 180 q 125 592 83 506 q 246 721 168 678 q 431 763 324 763 q 687 668 595 763 q 779 376 779 572 q 736 159 779 247 q 614 30 692 72 q 431 -13 536 -13 m 431 60 q 691 375 691 60 q 623 615 691 540 q 431 690 556 690 q 171 377 171 690 q 431 60 171 60 m 259 930 q 215 945 231 930 q 199 987 199 960 q 215 1030 199 1014 q 259 1046 231 1046 q 303 1030 287 1046 q 319 987 319 1014 q 303 945 319 960 q 259 930 288 930 m 602 930 q 558 945 574 930 q 542 987 542 960 q 558 1030 542 1014 q 602 1046 574 1046 q 645 1030 629 1046 q 662 987 662 1014 q 646 945 662 960 q 602 930 630 930 m 201 1211 l 201 1272 l 660 1272 l 660 1211 l 201 1211 z "},"ȱ":{"ha":862,"x_min":83,"x_max":779,"o":"m 431 -13 q 175 83 268 -13 q 83 376 83 180 q 125 592 83 506 q 246 721 168 678 q 431 763 324 763 q 687 668 595 763 q 779 376 779 572 q 736 159 779 247 q 614 30 692 72 q 431 -13 536 -13 m 431 60 q 691 375 691 60 q 623 615 691 540 q 431 690 556 690 q 171 377 171 690 q 431 60 171 60 m 431 929 q 384 944 401 929 q 367 987 367 960 q 384 1030 367 1015 q 431 1046 401 1046 q 477 1030 460 1046 q 494 987 494 1015 q 477 944 494 960 q 431 929 460 929 m 201 1157 l 201 1217 l 660 1217 l 660 1157 l 201 1157 z "},"ọ":{"ha":862,"x_min":83,"x_max":779,"o":"m 431 -13 q 175 83 268 -13 q 83 376 83 180 q 125 592 83 506 q 246 721 168 678 q 431 763 324 763 q 687 668 595 763 q 779 376 779 572 q 736 159 779 247 q 614 30 692 72 q 431 -13 536 -13 m 431 60 q 691 375 691 60 q 623 615 691 540 q 431 690 556 690 q 171 377 171 690 q 431 60 171 60 m 431 -234 q 387 -219 403 -234 q 371 -178 371 -203 q 387 -136 371 -151 q 431 -120 403 -120 q 474 -136 458 -120 q 490 -178 490 -151 q 474 -219 490 -203 q 431 -234 458 -234 z "},"ò":{"ha":862,"x_min":83,"x_max":779,"o":"m 431 -13 q 175 83 268 -13 q 83 376 83 180 q 125 592 83 506 q 246 721 168 678 q 431 763 324 763 q 687 668 595 763 q 779 376 779 572 q 736 159 779 247 q 614 30 692 72 q 431 -13 536 -13 m 431 60 q 691 375 691 60 q 623 615 691 540 q 431 690 556 690 q 171 377 171 690 q 431 60 171 60 m 388 874 l 188 1122 l 288 1122 l 474 874 l 388 874 z "},"ỏ":{"ha":862,"x_min":83,"x_max":779,"o":"m 431 -13 q 175 83 268 -13 q 83 376 83 180 q 125 592 83 506 q 246 721 168 678 q 431 763 324 763 q 687 668 595 763 q 779 376 779 572 q 736 159 779 247 q 614 30 692 72 q 431 -13 536 -13 m 431 60 q 691 375 691 60 q 623 615 691 540 q 431 690 556 690 q 171 377 171 690 q 431 60 171 60 m 402 874 q 414 919 403 900 q 439 950 424 938 q 476 976 453 962 q 513 1002 501 991 q 524 1032 524 1014 q 501 1070 524 1058 q 429 1082 478 1082 q 368 1078 400 1082 q 310 1065 337 1074 l 310 1114 q 366 1126 334 1122 q 428 1131 399 1131 q 581 1035 581 1131 q 565 985 581 1003 q 519 949 549 967 q 476 915 490 930 q 460 874 462 900 l 402 874 z "},"ơ":{"ha":862,"x_min":83,"x_max":797,"o":"m 649 700 q 779 376 779 604 q 736 159 779 247 q 614 30 692 72 q 431 -13 536 -13 q 175 83 268 -13 q 83 376 83 180 q 126 592 83 506 q 247 721 169 678 q 433 763 326 763 q 524 758 462 763 q 579 755 558 755 q 730 871 730 755 q 726 919 730 897 q 713 969 722 942 l 779 969 q 792 920 788 943 q 797 869 797 897 q 759 756 797 799 q 649 700 721 713 m 431 60 q 691 375 691 60 q 623 615 691 540 q 431 690 556 690 q 171 377 171 690 q 431 60 171 60 z "},"ớ":{"ha":862,"x_min":83,"x_max":797,"o":"m 649 700 q 779 376 779 604 q 736 159 779 247 q 614 30 692 72 q 431 -13 536 -13 q 175 83 268 -13 q 83 376 83 180 q 126 592 83 506 q 247 721 169 678 q 433 763 326 763 q 524 758 462 763 q 579 755 558 755 q 730 871 730 755 q 726 919 730 897 q 713 969 722 942 l 779 969 q 792 920 788 943 q 797 869 797 897 q 759 756 797 799 q 649 700 721 713 m 431 60 q 691 375 691 60 q 623 615 691 540 q 431 690 556 690 q 171 377 171 690 q 431 60 171 60 m 384 874 l 569 1122 l 669 1122 l 470 874 l 384 874 z "},"ợ":{"ha":862,"x_min":83,"x_max":797,"o":"m 649 700 q 779 376 779 604 q 736 159 779 247 q 614 30 692 72 q 431 -13 536 -13 q 175 83 268 -13 q 83 376 83 180 q 126 592 83 506 q 247 721 169 678 q 433 763 326 763 q 524 758 462 763 q 579 755 558 755 q 730 871 730 755 q 726 919 730 897 q 713 969 722 942 l 779 969 q 792 920 788 943 q 797 869 797 897 q 759 756 797 799 q 649 700 721 713 m 431 60 q 691 375 691 60 q 623 615 691 540 q 431 690 556 690 q 171 377 171 690 q 431 60 171 60 m 427 -234 q 383 -219 399 -234 q 367 -178 367 -203 q 383 -136 367 -151 q 427 -120 399 -120 q 471 -136 455 -120 q 487 -178 487 -151 q 471 -219 487 -203 q 427 -234 455 -234 z "},"ờ":{"ha":862,"x_min":83,"x_max":797,"o":"m 649 700 q 779 376 779 604 q 736 159 779 247 q 614 30 692 72 q 431 -13 536 -13 q 175 83 268 -13 q 83 376 83 180 q 126 592 83 506 q 247 721 169 678 q 433 763 326 763 q 524 758 462 763 q 579 755 558 755 q 730 871 730 755 q 726 919 730 897 q 713 969 722 942 l 779 969 q 792 920 788 943 q 797 869 797 897 q 759 756 797 799 q 649 700 721 713 m 431 60 q 691 375 691 60 q 623 615 691 540 q 431 690 556 690 q 171 377 171 690 q 431 60 171 60 m 384 874 l 185 1122 l 285 1122 l 470 874 l 384 874 z "},"ở":{"ha":862,"x_min":83,"x_max":797,"o":"m 649 700 q 779 376 779 604 q 736 159 779 247 q 614 30 692 72 q 431 -13 536 -13 q 175 83 268 -13 q 83 376 83 180 q 126 592 83 506 q 247 721 169 678 q 433 763 326 763 q 524 758 462 763 q 579 755 558 755 q 730 871 730 755 q 726 919 730 897 q 713 969 722 942 l 779 969 q 792 920 788 943 q 797 869 797 897 q 759 756 797 799 q 649 700 721 713 m 431 60 q 691 375 691 60 q 623 615 691 540 q 431 690 556 690 q 171 377 171 690 q 431 60 171 60 m 399 874 q 410 919 399 900 q 435 950 421 938 q 472 976 450 962 q 509 1002 497 991 q 521 1032 521 1014 q 498 1070 521 1058 q 426 1082 474 1082 q 365 1078 397 1082 q 307 1065 333 1074 l 307 1114 q 363 1126 331 1122 q 425 1131 395 1131 q 577 1035 577 1131 q 561 985 577 1003 q 515 949 546 967 q 473 915 487 930 q 457 874 458 900 l 399 874 z "},"ỡ":{"ha":862,"x_min":83,"x_max":797,"o":"m 533 944 q 478 952 505 944 q 416 974 452 959 q 362 993 382 987 q 320 999 342 999 q 256 986 285 999 q 200 948 227 974 l 200 1014 q 321 1058 244 1058 q 374 1051 349 1058 q 439 1029 399 1044 q 493 1010 473 1016 q 534 1004 513 1004 q 599 1016 569 1004 q 655 1055 628 1028 l 655 989 q 533 944 610 944 m 649 700 q 779 376 779 604 q 736 159 779 247 q 614 30 692 72 q 431 -13 536 -13 q 175 83 268 -13 q 83 376 83 180 q 126 592 83 506 q 247 721 169 678 q 433 763 326 763 q 524 758 462 763 q 579 755 558 755 q 730 871 730 755 q 726 919 730 897 q 713 969 722 942 l 779 969 q 792 920 788 943 q 797 869 797 897 q 759 756 797 799 q 649 700 721 713 m 431 60 q 691 375 691 60 q 623 615 691 540 q 431 690 556 690 q 171 377 171 690 q 431 60 171 60 z "},"ő":{"ha":862,"x_min":83,"x_max":779,"o":"m 431 -13 q 175 83 268 -13 q 83 376 83 180 q 125 592 83 506 q 246 721 168 678 q 431 763 324 763 q 687 668 595 763 q 779 376 779 572 q 736 159 779 247 q 614 30 692 72 q 431 -13 536 -13 m 431 60 q 691 375 691 60 q 623 615 691 540 q 431 690 556 690 q 171 377 171 690 q 431 60 171 60 m 274 874 l 398 1122 l 474 1122 l 343 874 l 274 874 m 518 874 l 642 1122 l 718 1122 l 588 874 l 518 874 z "},"ȏ":{"ha":862,"x_min":83,"x_max":779,"o":"m 431 -13 q 175 83 268 -13 q 83 376 83 180 q 125 592 83 506 q 246 721 168 678 q 431 763 324 763 q 687 668 595 763 q 779 376 779 572 q 736 159 779 247 q 614 30 692 72 q 431 -13 536 -13 m 431 60 q 691 375 691 60 q 623 615 691 540 q 431 690 556 690 q 171 377 171 690 q 431 60 171 60 m 206 893 q 267 1055 210 995 q 429 1115 324 1115 q 549 1087 499 1115 q 626 1009 599 1059 q 656 893 652 959 l 594 893 q 548 1015 588 971 q 429 1058 508 1058 q 313 1015 351 1058 q 267 893 274 971 l 206 893 z "},"ō":{"ha":862,"x_min":83,"x_max":779,"o":"m 431 -13 q 175 83 268 -13 q 83 376 83 180 q 125 592 83 506 q 246 721 168 678 q 431 763 324 763 q 687 668 595 763 q 779 376 779 572 q 736 159 779 247 q 614 30 692 72 q 431 -13 536 -13 m 431 60 q 691 375 691 60 q 623 615 691 540 q 431 690 556 690 q 171 377 171 690 q 431 60 171 60 m 201 958 l 201 1019 l 660 1019 l 660 958 l 201 958 z "},"ṓ":{"ha":862,"x_min":83,"x_max":779,"o":"m 431 -13 q 175 83 268 -13 q 83 376 83 180 q 125 592 83 506 q 246 721 168 678 q 431 763 324 763 q 687 668 595 763 q 779 376 779 572 q 736 159 779 247 q 614 30 692 72 q 431 -13 536 -13 m 431 60 q 691 375 691 60 q 623 615 691 540 q 431 690 556 690 q 171 377 171 690 q 431 60 171 60 m 201 958 l 201 1019 l 660 1019 l 660 958 l 201 958 m 388 1150 l 540 1343 l 640 1343 l 472 1150 l 388 1150 z "},"ṑ":{"ha":862,"x_min":83,"x_max":779,"o":"m 431 -13 q 175 83 268 -13 q 83 376 83 180 q 125 592 83 506 q 246 721 168 678 q 431 763 324 763 q 687 668 595 763 q 779 376 779 572 q 736 159 779 247 q 614 30 692 72 q 431 -13 536 -13 m 431 60 q 691 375 691 60 q 623 615 691 540 q 431 690 556 690 q 171 377 171 690 q 431 60 171 60 m 201 958 l 201 1019 l 660 1019 l 660 958 l 201 958 m 388 1150 l 221 1343 l 320 1343 l 473 1150 l 388 1150 z "},"ǫ":{"ha":862,"x_min":83,"x_max":779,"o":"m 544 2 q 371 -155 371 -46 q 397 -215 371 -193 q 467 -236 422 -236 q 569 -212 519 -236 l 581 -257 q 523 -276 554 -269 q 462 -283 492 -283 q 352 -250 392 -283 q 312 -160 312 -217 q 404 -12 312 -69 q 168 92 253 -5 q 83 376 83 188 q 125 592 83 506 q 246 721 168 678 q 431 763 324 763 q 687 668 595 763 q 779 376 779 572 q 717 126 779 219 q 544 2 655 32 m 171 377 q 431 60 171 60 q 691 375 691 60 q 623 615 691 540 q 431 690 556 690 q 171 377 171 690 z "},"ø":{"ha":862,"x_min":83,"x_max":779,"o":"m 692 662 q 779 376 779 563 q 736 159 779 247 q 614 30 692 72 q 431 -13 536 -13 q 212 51 297 -13 l 158 -18 l 114 18 l 170 90 q 83 376 83 189 q 125 592 83 506 q 246 721 168 678 q 431 763 324 763 q 649 701 564 763 l 704 770 l 749 734 l 692 662 m 431 690 q 170 377 170 690 q 223 156 170 233 l 601 638 q 431 690 539 690 m 431 60 q 692 375 692 60 q 638 597 692 519 l 260 114 q 431 60 324 60 z "},"ǿ":{"ha":862,"x_min":83,"x_max":779,"o":"m 692 662 q 779 376 779 563 q 736 159 779 247 q 614 30 692 72 q 431 -13 536 -13 q 212 51 297 -13 l 158 -18 l 114 18 l 170 90 q 83 376 83 189 q 125 592 83 506 q 246 721 168 678 q 431 763 324 763 q 649 701 564 763 l 704 770 l 749 734 l 692 662 m 431 690 q 170 377 170 690 q 223 156 170 233 l 601 638 q 431 690 539 690 m 431 60 q 692 375 692 60 q 638 597 692 519 l 260 114 q 431 60 324 60 m 381 874 l 566 1122 l 666 1122 l 467 874 l 381 874 z "},"õ":{"ha":862,"x_min":83,"x_max":779,"o":"m 431 -13 q 175 83 268 -13 q 83 376 83 180 q 125 592 83 506 q 246 721 168 678 q 431 763 324 763 q 687 668 595 763 q 779 376 779 572 q 736 159 779 247 q 614 30 692 72 q 431 -13 536 -13 m 431 60 q 691 375 691 60 q 623 615 691 540 q 431 690 556 690 q 171 377 171 690 q 431 60 171 60 m 538 944 q 482 952 509 944 q 419 974 456 959 q 364 993 385 987 q 322 999 343 999 q 258 986 287 999 q 201 948 228 974 l 201 1014 q 324 1058 247 1058 q 379 1051 353 1058 q 442 1029 406 1044 q 497 1010 476 1016 q 539 1004 518 1004 q 603 1016 574 1004 q 660 1055 633 1028 l 660 989 q 538 944 615 944 z "},"ṍ":{"ha":862,"x_min":83,"x_max":779,"o":"m 431 -13 q 175 83 268 -13 q 83 376 83 180 q 125 592 83 506 q 246 721 168 678 q 431 763 324 763 q 687 668 595 763 q 779 376 779 572 q 736 159 779 247 q 614 30 692 72 q 431 -13 536 -13 m 431 60 q 691 375 691 60 q 623 615 691 540 q 431 690 556 690 q 171 377 171 690 q 431 60 171 60 m 538 944 q 482 952 509 944 q 419 974 456 959 q 364 993 385 987 q 322 999 343 999 q 258 986 287 999 q 201 948 228 974 l 201 1014 q 324 1058 247 1058 q 379 1051 353 1058 q 442 1029 406 1044 q 497 1010 476 1016 q 539 1004 518 1004 q 603 1016 574 1004 q 660 1055 633 1028 l 660 989 q 538 944 615 944 m 388 1150 l 540 1343 l 640 1343 l 472 1150 l 388 1150 z "},"ṏ":{"ha":862,"x_min":83,"x_max":779,"o":"m 431 -13 q 175 83 268 -13 q 83 376 83 180 q 125 592 83 506 q 246 721 168 678 q 431 763 324 763 q 687 668 595 763 q 779 376 779 572 q 736 159 779 247 q 614 30 692 72 q 431 -13 536 -13 m 431 60 q 691 375 691 60 q 623 615 691 540 q 431 690 556 690 q 171 377 171 690 q 431 60 171 60 m 538 944 q 482 952 509 944 q 419 974 456 959 q 364 993 385 987 q 322 999 343 999 q 258 986 287 999 q 201 948 228 974 l 201 1014 q 324 1058 247 1058 q 379 1051 353 1058 q 442 1029 406 1044 q 497 1010 476 1016 q 539 1004 518 1004 q 603 1016 574 1004 q 660 1055 633 1028 l 660 989 q 538 944 615 944 m 259 1183 q 215 1198 231 1183 q 199 1240 199 1213 q 215 1283 199 1267 q 259 1299 231 1299 q 303 1283 287 1299 q 319 1240 319 1267 q 303 1198 319 1213 q 259 1183 288 1183 m 602 1183 q 558 1198 574 1183 q 542 1240 542 1213 q 558 1283 542 1267 q 602 1299 574 1299 q 645 1283 629 1299 q 662 1240 662 1267 q 646 1198 662 1213 q 602 1183 630 1183 z "},"ȭ":{"ha":862,"x_min":83,"x_max":779,"o":"m 431 -13 q 175 83 268 -13 q 83 376 83 180 q 125 592 83 506 q 246 721 168 678 q 431 763 324 763 q 687 668 595 763 q 779 376 779 572 q 736 159 779 247 q 614 30 692 72 q 431 -13 536 -13 m 431 60 q 691 375 691 60 q 623 615 691 540 q 431 690 556 690 q 171 377 171 690 q 431 60 171 60 m 538 944 q 482 952 509 944 q 419 974 456 959 q 364 993 385 987 q 322 999 343 999 q 258 986 287 999 q 201 948 228 974 l 201 1014 q 324 1058 247 1058 q 379 1051 353 1058 q 442 1029 406 1044 q 497 1010 476 1016 q 539 1004 518 1004 q 603 1016 574 1004 q 660 1055 633 1028 l 660 989 q 538 944 615 944 m 201 1211 l 201 1272 l 660 1272 l 660 1211 l 201 1211 z "},"œ":{"ha":1396,"x_min":83,"x_max":1327,"o":"m 1327 346 l 774 346 q 855 127 778 197 q 1076 58 931 58 q 1289 94 1170 58 l 1289 22 q 1066 -13 1174 -13 q 727 176 807 -13 q 613 34 690 82 q 426 -13 535 -13 q 245 29 322 -13 q 125 158 168 71 q 83 376 83 244 q 125 592 83 505 q 245 721 168 678 q 426 763 322 763 q 615 717 538 763 q 729 576 692 670 q 837 716 765 668 q 1014 763 910 763 q 1245 664 1164 763 q 1327 376 1327 565 l 1327 346 m 1011 697 q 774 409 781 697 l 1244 409 q 1011 697 1237 697 m 428 60 q 619 136 551 60 q 686 375 686 212 q 428 690 686 690 q 171 377 171 690 q 428 60 171 60 z "},"p":{"ha":878,"x_min":128,"x_max":796,"o":"m 128 752 l 202 752 l 209 662 l 215 662 q 323 736 259 710 q 462 763 387 763 q 635 725 560 763 q 753 603 710 686 q 796 390 796 520 q 692 88 796 190 q 385 -13 588 -13 q 215 2 310 -13 l 215 -306 l 128 -306 l 128 752 m 384 60 q 628 139 548 60 q 708 383 708 217 q 447 688 708 688 q 318 661 378 688 q 215 577 258 635 l 215 81 q 295 65 251 71 q 384 60 340 60 z "},"þ":{"ha":878,"x_min":128,"x_max":796,"o":"m 128 1122 l 215 1122 l 215 664 l 220 664 q 329 738 265 712 q 468 763 392 763 q 637 725 564 763 q 753 602 710 686 q 796 390 796 519 q 692 88 796 190 q 385 -13 588 -13 q 215 2 310 -13 l 215 -306 l 128 -306 l 128 1122 m 384 60 q 628 139 548 60 q 708 383 708 217 q 639 616 708 544 q 449 688 569 688 q 320 662 381 688 q 215 578 258 635 l 215 81 q 295 65 251 71 q 384 60 340 60 z "},"q":{"ha":878,"x_min":83,"x_max":750,"o":"m 664 84 l 658 84 q 549 13 613 38 q 408 -13 485 -13 q 240 26 313 -13 q 125 148 167 65 q 83 360 83 231 q 186 662 83 561 q 493 763 290 763 q 750 728 628 763 l 750 -306 l 664 -306 l 664 84 m 428 63 q 558 88 496 63 q 664 165 619 113 l 664 669 q 484 690 584 690 q 249 611 327 690 q 171 367 171 532 q 240 134 171 206 q 428 63 308 63 z "},"r":{"ha":559,"x_min":128,"x_max":549,"o":"m 128 752 l 201 752 l 208 651 l 215 651 q 330 730 260 701 q 471 758 399 758 q 549 752 513 758 l 549 672 q 468 677 515 677 q 331 649 401 677 q 215 566 260 622 l 215 0 l 128 0 l 128 752 z "},"ŕ":{"ha":559,"x_min":128,"x_max":581,"o":"m 128 752 l 201 752 l 208 651 l 215 651 q 330 730 260 701 q 471 758 399 758 q 549 752 513 758 l 549 672 q 468 677 515 677 q 331 649 401 677 q 215 566 260 622 l 215 0 l 128 0 l 128 752 m 295 874 l 481 1122 l 581 1122 l 381 874 l 295 874 z "},"ř":{"ha":559,"x_min":110,"x_max":566,"o":"m 128 752 l 201 752 l 208 651 l 215 651 q 330 730 260 701 q 471 758 399 758 q 549 752 513 758 l 549 672 q 468 677 515 677 q 331 649 401 677 q 215 566 260 622 l 215 0 l 128 0 l 128 752 m 487 1122 l 566 1122 l 378 874 l 298 874 l 110 1122 l 190 1122 l 338 921 l 487 1122 z "},"ŗ":{"ha":559,"x_min":110,"x_max":549,"o":"m 128 752 l 201 752 l 208 651 l 215 651 q 330 730 260 701 q 471 758 399 758 q 549 752 513 758 l 549 672 q 468 677 515 677 q 331 649 401 677 q 215 566 260 622 l 215 0 l 128 0 l 128 752 m 169 -120 q 217 -137 201 -120 q 233 -189 233 -155 q 224 -252 233 -217 q 197 -318 215 -287 l 144 -318 q 169 -222 167 -262 q 126 -207 142 -221 q 110 -170 110 -193 q 126 -134 110 -147 q 169 -120 142 -120 z "},"ȑ":{"ha":559,"x_min":48,"x_max":549,"o":"m 128 752 l 201 752 l 208 651 l 215 651 q 330 730 260 701 q 471 758 399 758 q 549 752 513 758 l 549 672 q 468 677 515 677 q 331 649 401 677 q 215 566 260 622 l 215 0 l 128 0 l 128 752 m 178 874 l 48 1122 l 126 1122 l 251 874 l 178 874 m 426 874 l 295 1122 l 373 1122 l 498 874 l 426 874 z "},"ṛ":{"ha":559,"x_min":112,"x_max":549,"o":"m 128 752 l 201 752 l 208 651 l 215 651 q 330 730 260 701 q 471 758 399 758 q 549 752 513 758 l 549 672 q 468 677 515 677 q 331 649 401 677 q 215 566 260 622 l 215 0 l 128 0 l 128 752 m 172 -234 q 128 -219 144 -234 q 112 -178 112 -203 q 128 -136 112 -151 q 172 -120 144 -120 q 215 -136 199 -120 q 231 -178 231 -151 q 215 -219 231 -203 q 172 -234 199 -234 z "},"ȓ":{"ha":559,"x_min":113,"x_max":563,"o":"m 128 752 l 201 752 l 208 651 l 215 651 q 330 730 260 701 q 471 758 399 758 q 549 752 513 758 l 549 672 q 468 677 515 677 q 331 649 401 677 q 215 566 260 622 l 215 0 l 128 0 l 128 752 m 113 893 q 175 1055 118 995 q 337 1115 232 1115 q 457 1087 407 1115 q 533 1009 507 1059 q 563 893 560 959 l 501 893 q 455 1015 495 971 q 337 1058 415 1058 q 220 1015 259 1058 q 175 893 181 971 l 113 893 z "},"ṟ":{"ha":559,"x_min":-36,"x_max":549,"o":"m 128 752 l 201 752 l 208 651 l 215 651 q 330 730 260 701 q 471 758 399 758 q 549 752 513 758 l 549 672 q 468 677 515 677 q 331 649 401 677 q 215 566 260 622 l 215 0 l 128 0 l 128 752 m -36 -208 l -36 -148 l 379 -148 l 379 -208 l -36 -208 z "},"s":{"ha":708,"x_min":85,"x_max":645,"o":"m 331 -13 q 96 19 201 -13 l 96 90 q 215 64 159 72 q 333 56 271 56 q 506 92 453 56 q 560 197 560 128 q 547 259 560 234 q 502 300 533 284 q 415 326 470 317 l 293 347 q 134 417 183 367 q 85 549 85 467 q 163 705 85 647 q 401 763 240 763 q 602 736 506 763 l 602 666 q 501 687 549 681 q 401 694 454 694 q 224 656 278 694 q 171 552 171 619 q 201 468 171 501 q 309 422 232 435 l 431 401 q 594 334 544 381 q 645 203 645 288 q 566 44 645 101 q 331 -13 488 -13 z "},"ś":{"ha":708,"x_min":85,"x_max":645,"o":"m 331 -13 q 96 19 201 -13 l 96 90 q 215 64 159 72 q 333 56 271 56 q 506 92 453 56 q 560 197 560 128 q 547 259 560 234 q 502 300 533 284 q 415 326 470 317 l 293 347 q 134 417 183 367 q 85 549 85 467 q 163 705 85 647 q 401 763 240 763 q 602 736 506 763 l 602 666 q 501 687 549 681 q 401 694 454 694 q 224 656 278 694 q 171 552 171 619 q 201 468 171 501 q 309 422 232 435 l 431 401 q 594 334 544 381 q 645 203 645 288 q 566 44 645 101 q 331 -13 488 -13 m 315 874 l 500 1122 l 600 1122 l 401 874 l 315 874 z "},"ṥ":{"ha":708,"x_min":85,"x_max":645,"o":"m 331 -13 q 96 19 201 -13 l 96 90 q 215 64 159 72 q 333 56 271 56 q 506 92 453 56 q 560 197 560 128 q 547 259 560 234 q 502 300 533 284 q 415 326 470 317 l 293 347 q 134 417 183 367 q 85 549 85 467 q 163 705 85 647 q 401 763 240 763 q 602 736 506 763 l 602 666 q 501 687 549 681 q 401 694 454 694 q 224 656 278 694 q 171 552 171 619 q 201 468 171 501 q 309 422 232 435 l 431 401 q 594 334 544 381 q 645 203 645 288 q 566 44 645 101 q 331 -13 488 -13 m 310 1094 q 268 1108 283 1094 q 252 1146 252 1122 q 268 1184 252 1169 q 310 1198 283 1198 q 352 1184 337 1198 q 368 1146 368 1169 q 353 1108 368 1122 q 310 1094 338 1094 m 315 874 l 500 1122 l 600 1122 l 401 874 l 315 874 z "},"š":{"ha":708,"x_min":85,"x_max":645,"o":"m 331 -13 q 96 19 201 -13 l 96 90 q 215 64 159 72 q 333 56 271 56 q 506 92 453 56 q 560 197 560 128 q 547 259 560 234 q 502 300 533 284 q 415 326 470 317 l 293 347 q 134 417 183 367 q 85 549 85 467 q 163 705 85 647 q 401 763 240 763 q 602 736 506 763 l 602 666 q 501 687 549 681 q 401 694 454 694 q 224 656 278 694 q 171 552 171 619 q 201 468 171 501 q 309 422 232 435 l 431 401 q 594 334 544 381 q 645 203 645 288 q 566 44 645 101 q 331 -13 488 -13 m 506 1122 l 585 1122 l 398 874 l 317 874 l 130 1122 l 209 1122 l 358 921 l 506 1122 z "},"ṧ":{"ha":708,"x_min":85,"x_max":645,"o":"m 331 -13 q 96 19 201 -13 l 96 90 q 215 64 159 72 q 333 56 271 56 q 506 92 453 56 q 560 197 560 128 q 547 259 560 234 q 502 300 533 284 q 415 326 470 317 l 293 347 q 134 417 183 367 q 85 549 85 467 q 163 705 85 647 q 401 763 240 763 q 602 736 506 763 l 602 666 q 501 687 549 681 q 401 694 454 694 q 224 656 278 694 q 171 552 171 619 q 201 468 171 501 q 309 422 232 435 l 431 401 q 594 334 544 381 q 645 203 645 288 q 566 44 645 101 q 331 -13 488 -13 m 358 1125 q 315 1139 331 1125 q 300 1176 300 1153 q 315 1214 300 1200 q 358 1228 331 1228 q 400 1214 385 1228 q 415 1176 415 1200 q 400 1139 415 1153 q 358 1125 385 1125 m 506 1122 l 585 1122 l 398 874 l 317 874 l 130 1122 l 209 1122 l 358 921 l 506 1122 z "},"ş":{"ha":708,"x_min":85,"x_max":645,"o":"m 645 203 q 581 55 645 111 q 387 -11 516 -1 l 387 -74 q 475 -105 444 -77 q 506 -178 506 -132 q 469 -256 506 -229 q 365 -283 432 -283 q 295 -276 331 -283 q 236 -257 260 -269 l 236 -208 q 363 -237 297 -237 q 428 -223 407 -237 q 450 -176 450 -208 q 428 -131 450 -145 q 363 -116 407 -116 l 333 -116 l 333 -13 l 331 -13 q 96 19 201 -13 l 96 90 q 215 64 159 72 q 333 56 271 56 q 506 92 453 56 q 560 197 560 128 q 547 259 560 234 q 502 300 533 284 q 415 326 470 317 l 293 347 q 134 417 183 367 q 85 549 85 467 q 163 705 85 647 q 401 763 240 763 q 602 736 506 763 l 602 666 q 501 687 549 681 q 401 694 454 694 q 224 656 278 694 q 171 552 171 619 q 201 468 171 501 q 309 422 232 435 l 431 401 q 594 334 544 381 q 645 203 645 288 z "},"ŝ":{"ha":708,"x_min":85,"x_max":645,"o":"m 331 -13 q 96 19 201 -13 l 96 90 q 215 64 159 72 q 333 56 271 56 q 506 92 453 56 q 560 197 560 128 q 547 259 560 234 q 502 300 533 284 q 415 326 470 317 l 293 347 q 134 417 183 367 q 85 549 85 467 q 163 705 85 647 q 401 763 240 763 q 602 736 506 763 l 602 666 q 501 687 549 681 q 401 694 454 694 q 224 656 278 694 q 171 552 171 619 q 201 468 171 501 q 309 422 232 435 l 431 401 q 594 334 544 381 q 645 203 645 288 q 566 44 645 101 q 331 -13 488 -13 m 581 874 l 501 874 l 358 1073 l 214 874 l 135 874 l 317 1122 l 398 1122 l 581 874 z "},"ș":{"ha":708,"x_min":85,"x_max":645,"o":"m 331 -13 q 96 19 201 -13 l 96 90 q 215 64 159 72 q 333 56 271 56 q 506 92 453 56 q 560 197 560 128 q 547 259 560 234 q 502 300 533 284 q 415 326 470 317 l 293 347 q 134 417 183 367 q 85 549 85 467 q 163 705 85 647 q 401 763 240 763 q 602 736 506 763 l 602 666 q 501 687 549 681 q 401 694 454 694 q 224 656 278 694 q 171 552 171 619 q 201 468 171 501 q 309 422 232 435 l 431 401 q 594 334 544 381 q 645 203 645 288 q 566 44 645 101 q 331 -13 488 -13 m 356 -120 q 403 -137 387 -120 q 419 -189 419 -155 q 410 -252 419 -217 q 383 -318 401 -287 l 330 -318 q 356 -222 353 -262 q 312 -207 328 -221 q 297 -170 297 -193 q 312 -134 297 -147 q 356 -120 328 -120 z "},"ṡ":{"ha":708,"x_min":85,"x_max":645,"o":"m 331 -13 q 96 19 201 -13 l 96 90 q 215 64 159 72 q 333 56 271 56 q 506 92 453 56 q 560 197 560 128 q 547 259 560 234 q 502 300 533 284 q 415 326 470 317 l 293 347 q 134 417 183 367 q 85 549 85 467 q 163 705 85 647 q 401 763 240 763 q 602 736 506 763 l 602 666 q 501 687 549 681 q 401 694 454 694 q 224 656 278 694 q 171 552 171 619 q 201 468 171 501 q 309 422 232 435 l 431 401 q 594 334 544 381 q 645 203 645 288 q 566 44 645 101 q 331 -13 488 -13 m 358 929 q 311 944 328 929 q 294 987 294 960 q 311 1030 294 1015 q 358 1046 328 1046 q 405 1030 388 1046 q 422 987 422 1015 q 405 944 422 960 q 358 929 388 929 z "}}}
